<mxfile host="www.draw.io" modified="2019-12-01T19:52:10.916Z" agent="Mozilla/5.0 (Windows NT 10.0; Win64; x64; rv:70.0) Gecko/20100101 Firefox/70.0" etag="oqiLTnR6mvWAVCnqN3L2" version="12.3.3" type="github" pages="1">
  <diagram id="RUhn7tRkSTi1m4gML7DM" name="Page-1">
    <mxGraphModel dx="5030" dy="2276" grid="1" gridSize="10" guides="1" tooltips="1" connect="1" arrows="1" fold="1" page="1" pageScale="1" pageWidth="827" pageHeight="1169" math="0" shadow="0">
      <root>
        <mxCell id="0"/>
        <mxCell id="1" parent="0"/>
        <mxCell id="NBViREjLb1xKZu8kLgCA-1" value="" style="group;strokeColor=none;" parent="1" vertex="1" connectable="0">
          <mxGeometry x="-376.5" y="190" width="80" height="80" as="geometry"/>
        </mxCell>
        <mxCell id="NBViREjLb1xKZu8kLgCA-2" value="" style="ellipse;whiteSpace=wrap;html=1;aspect=fixed;fillColor=#ffe6cc;strokeColor=#d79b00;" parent="NBViREjLb1xKZu8kLgCA-1" vertex="1">
          <mxGeometry width="80" height="80" as="geometry"/>
        </mxCell>
        <mxCell id="NBViREjLb1xKZu8kLgCA-3" value="" style="shape=flexArrow;endArrow=classic;html=1;endWidth=8.20977056344623;endSize=6.232558139534884;width=4.697986577181208;fillColor=#ffffff;" parent="NBViREjLb1xKZu8kLgCA-1" edge="1">
          <mxGeometry width="50" height="50" relative="1" as="geometry">
            <mxPoint x="20" y="20" as="sourcePoint"/>
            <mxPoint x="70" y="20" as="targetPoint"/>
            <Array as="points"/>
          </mxGeometry>
        </mxCell>
        <mxCell id="NBViREjLb1xKZu8kLgCA-4" value="" style="shape=flexArrow;endArrow=classic;html=1;endWidth=8.20977056344623;endSize=6.232558139534884;width=4.697986577181208;fillColor=#ffffff;" parent="NBViREjLb1xKZu8kLgCA-1" edge="1">
          <mxGeometry width="50" height="50" relative="1" as="geometry">
            <mxPoint x="20" y="40" as="sourcePoint"/>
            <mxPoint x="70" y="40" as="targetPoint"/>
            <Array as="points"/>
          </mxGeometry>
        </mxCell>
        <mxCell id="NBViREjLb1xKZu8kLgCA-5" value="" style="shape=flexArrow;endArrow=classic;html=1;endWidth=8.20977056344623;endSize=6.232558139534884;width=4.697986577181208;fillColor=#ffffff;" parent="NBViREjLb1xKZu8kLgCA-1" edge="1">
          <mxGeometry width="50" height="50" relative="1" as="geometry">
            <mxPoint x="20" y="60" as="sourcePoint"/>
            <mxPoint x="70" y="60" as="targetPoint"/>
            <Array as="points"/>
          </mxGeometry>
        </mxCell>
        <mxCell id="NBViREjLb1xKZu8kLgCA-7" value="" style="group" parent="1" vertex="1" connectable="0">
          <mxGeometry x="-800" y="440" width="80" height="80" as="geometry"/>
        </mxCell>
        <mxCell id="NBViREjLb1xKZu8kLgCA-8" value="" style="ellipse;whiteSpace=wrap;html=1;aspect=fixed;fillColor=#ffe6cc;strokeColor=#d79b00;" parent="NBViREjLb1xKZu8kLgCA-7" vertex="1">
          <mxGeometry width="80" height="80" as="geometry"/>
        </mxCell>
        <mxCell id="NBViREjLb1xKZu8kLgCA-9" value="" style="shape=flexArrow;endArrow=classic;html=1;fillColor=#ffffff;" parent="NBViREjLb1xKZu8kLgCA-7" edge="1">
          <mxGeometry width="50" height="50" relative="1" as="geometry">
            <mxPoint x="20" y="40" as="sourcePoint"/>
            <mxPoint x="60" y="40" as="targetPoint"/>
          </mxGeometry>
        </mxCell>
        <mxCell id="NBViREjLb1xKZu8kLgCA-10" value="" style="endArrow=classic;html=1;fillColor=#ffffff;exitX=0.5;exitY=1;exitDx=0;exitDy=0;entryX=0.5;entryY=0;entryDx=0;entryDy=0;exitPerimeter=0;" parent="1" source="NBViREjLb1xKZu8kLgCA-13" target="NBViREjLb1xKZu8kLgCA-8" edge="1">
          <mxGeometry width="50" height="50" relative="1" as="geometry">
            <mxPoint x="-690" y="390.0000000000001" as="sourcePoint"/>
            <mxPoint x="-760" y="410" as="targetPoint"/>
          </mxGeometry>
        </mxCell>
        <mxCell id="NBViREjLb1xKZu8kLgCA-12" value="" style="group" parent="1" vertex="1" connectable="0">
          <mxGeometry x="-810" y="320" width="100" height="100" as="geometry"/>
        </mxCell>
        <mxCell id="NBViREjLb1xKZu8kLgCA-13" value="" style="strokeWidth=2;html=1;shape=mxgraph.flowchart.decision;whiteSpace=wrap;fillColor=#ffe6cc;strokeColor=#d79b00;" parent="NBViREjLb1xKZu8kLgCA-12" vertex="1">
          <mxGeometry width="100" height="100" as="geometry"/>
        </mxCell>
        <mxCell id="NBViREjLb1xKZu8kLgCA-14" value="" style="html=1;shadow=0;dashed=0;align=center;verticalAlign=middle;shape=mxgraph.arrows2.uTurnArrow;dy=3.03;arrowHead=19.28;dx2=10.64;" parent="NBViREjLb1xKZu8kLgCA-12" vertex="1">
          <mxGeometry x="20" y="32.5" width="30" height="30" as="geometry"/>
        </mxCell>
        <mxCell id="NBViREjLb1xKZu8kLgCA-15" value="" style="html=1;shadow=0;dashed=0;align=center;verticalAlign=middle;shape=mxgraph.arrows2.uTurnArrow;dy=3.03;arrowHead=19.28;dx2=10.64;rotation=180;" parent="NBViREjLb1xKZu8kLgCA-12" vertex="1">
          <mxGeometry x="50" y="37.5" width="30" height="30" as="geometry"/>
        </mxCell>
        <mxCell id="NBViREjLb1xKZu8kLgCA-25" style="edgeStyle=orthogonalEdgeStyle;rounded=0;orthogonalLoop=1;jettySize=auto;html=1;exitX=0.5;exitY=1;exitDx=0;exitDy=0;entryX=0.5;entryY=0;entryDx=0;entryDy=0;entryPerimeter=0;strokeWidth=1;fillColor=#ffffff;" parent="1" source="NBViREjLb1xKZu8kLgCA-2" target="NBViREjLb1xKZu8kLgCA-13" edge="1">
          <mxGeometry relative="1" as="geometry"/>
        </mxCell>
        <mxCell id="NBViREjLb1xKZu8kLgCA-26" value="" style="group" parent="1" vertex="1" connectable="0">
          <mxGeometry x="-170" y="479" width="80" height="80" as="geometry"/>
        </mxCell>
        <mxCell id="NBViREjLb1xKZu8kLgCA-27" value="" style="ellipse;whiteSpace=wrap;html=1;aspect=fixed;fillColor=#ffe6cc;strokeColor=#d79b00;" parent="NBViREjLb1xKZu8kLgCA-26" vertex="1">
          <mxGeometry width="80" height="80" as="geometry"/>
        </mxCell>
        <mxCell id="NBViREjLb1xKZu8kLgCA-28" value="" style="shape=flexArrow;endArrow=classic;html=1;fillColor=#ffffff;" parent="NBViREjLb1xKZu8kLgCA-26" edge="1">
          <mxGeometry width="50" height="50" relative="1" as="geometry">
            <mxPoint x="20" y="40" as="sourcePoint"/>
            <mxPoint x="60" y="40" as="targetPoint"/>
          </mxGeometry>
        </mxCell>
        <mxCell id="NBViREjLb1xKZu8kLgCA-30" value="" style="shape=loopLimit;whiteSpace=wrap;html=1;fillColor=#ffe6cc;strokeColor=#d79b00;strokeWidth=2;" parent="1" vertex="1">
          <mxGeometry x="-276.5" y="710" width="100" height="80" as="geometry"/>
        </mxCell>
        <mxCell id="NBViREjLb1xKZu8kLgCA-31" value="Calculate Threshold" style="text;html=1;strokeColor=none;fillColor=none;align=center;verticalAlign=middle;whiteSpace=wrap;rounded=0;" parent="1" vertex="1">
          <mxGeometry x="-266.5" y="725" width="80" height="50" as="geometry"/>
        </mxCell>
        <mxCell id="NBViREjLb1xKZu8kLgCA-32" style="edgeStyle=orthogonalEdgeStyle;rounded=0;orthogonalLoop=1;jettySize=auto;html=1;exitX=0.5;exitY=1;exitDx=0;exitDy=0;entryX=0.5;entryY=0;entryDx=0;entryDy=0;strokeWidth=1;fillColor=#ffffff;" parent="1" source="NBViREjLb1xKZu8kLgCA-27" target="NBViREjLb1xKZu8kLgCA-30" edge="1">
          <mxGeometry relative="1" as="geometry"/>
        </mxCell>
        <mxCell id="NBViREjLb1xKZu8kLgCA-33" value="" style="group" parent="1" vertex="1" connectable="0">
          <mxGeometry x="-46.5" y="710" width="80" height="80" as="geometry"/>
        </mxCell>
        <mxCell id="NBViREjLb1xKZu8kLgCA-34" value="" style="ellipse;whiteSpace=wrap;html=1;aspect=fixed;fillColor=#ffe6cc;strokeColor=#d79b00;" parent="NBViREjLb1xKZu8kLgCA-33" vertex="1">
          <mxGeometry width="80" height="80" as="geometry"/>
        </mxCell>
        <mxCell id="NBViREjLb1xKZu8kLgCA-35" value="?" style="text;html=1;strokeColor=none;fillColor=none;align=center;verticalAlign=middle;whiteSpace=wrap;rounded=0;strokeWidth=5;labelBorderColor=none;fontSize=60;" parent="NBViREjLb1xKZu8kLgCA-33" vertex="1">
          <mxGeometry x="20" y="30" width="40" height="20" as="geometry"/>
        </mxCell>
        <mxCell id="NBViREjLb1xKZu8kLgCA-36" style="edgeStyle=orthogonalEdgeStyle;rounded=0;orthogonalLoop=1;jettySize=auto;html=1;exitX=0.5;exitY=1;exitDx=0;exitDy=0;entryX=0.5;entryY=0;entryDx=0;entryDy=0;strokeWidth=1;fillColor=#ffffff;fontSize=60;" parent="1" source="NBViREjLb1xKZu8kLgCA-27" target="NBViREjLb1xKZu8kLgCA-34" edge="1">
          <mxGeometry relative="1" as="geometry"/>
        </mxCell>
        <mxCell id="NBViREjLb1xKZu8kLgCA-48" value="" style="endArrow=classic;html=1;fontSize=18;exitX=0;exitY=1;exitDx=0;exitDy=0;entryX=0.5;entryY=0;entryDx=0;entryDy=0;" parent="1" source="NBViREjLb1xKZu8kLgCA-86" target="NBViREjLb1xKZu8kLgCA-2" edge="1">
          <mxGeometry width="50" height="50" relative="1" as="geometry">
            <mxPoint x="105.21572875253787" y="98.28427124746213" as="sourcePoint"/>
            <mxPoint x="-20" y="140" as="targetPoint"/>
          </mxGeometry>
        </mxCell>
        <mxCell id="NBViREjLb1xKZu8kLgCA-80" value="" style="group" parent="1" vertex="1" connectable="0">
          <mxGeometry x="-1130" y="600" width="120" height="130" as="geometry"/>
        </mxCell>
        <mxCell id="NBViREjLb1xKZu8kLgCA-81" value="" style="group" parent="NBViREjLb1xKZu8kLgCA-80" vertex="1" connectable="0">
          <mxGeometry x="10" width="100" height="100" as="geometry"/>
        </mxCell>
        <mxCell id="NBViREjLb1xKZu8kLgCA-82" value="" style="strokeWidth=2;html=1;shape=mxgraph.flowchart.decision;whiteSpace=wrap;fontSize=18;fillColor=#ffe6cc;strokeColor=#d79b00;" parent="NBViREjLb1xKZu8kLgCA-81" vertex="1">
          <mxGeometry width="100" height="100" as="geometry"/>
        </mxCell>
        <mxCell id="NBViREjLb1xKZu8kLgCA-83" value="" style="html=1;verticalLabelPosition=bottom;align=center;labelBackgroundColor=#ffffff;verticalAlign=top;strokeWidth=2;strokeColor=#333333;shadow=0;dashed=0;shape=mxgraph.ios7.icons.alarm_clock;fontSize=18;" parent="NBViREjLb1xKZu8kLgCA-81" vertex="1">
          <mxGeometry x="36.5" y="35" width="27" height="30" as="geometry"/>
        </mxCell>
        <mxCell id="NBViREjLb1xKZu8kLgCA-84" value="Wait 0.5 Sec" style="rounded=0;whiteSpace=wrap;html=1;strokeColor=#d79b00;strokeWidth=2;fontSize=18;fillColor=#ffe6cc;" parent="NBViREjLb1xKZu8kLgCA-80" vertex="1">
          <mxGeometry y="70" width="120" height="60" as="geometry"/>
        </mxCell>
        <mxCell id="NBViREjLb1xKZu8kLgCA-87" value="" style="group" parent="1" vertex="1" connectable="0">
          <mxGeometry x="100" y="30" width="80" height="80" as="geometry"/>
        </mxCell>
        <mxCell id="NBViREjLb1xKZu8kLgCA-86" value="" style="ellipse;whiteSpace=wrap;html=1;aspect=fixed;fillColor=#ffe6cc;strokeColor=#d79b00;" parent="NBViREjLb1xKZu8kLgCA-87" vertex="1">
          <mxGeometry width="80" height="80" as="geometry"/>
        </mxCell>
        <mxCell id="NBViREjLb1xKZu8kLgCA-6" value="" style="shape=flexArrow;endArrow=classic;html=1;fillColor=#ffffff;" parent="NBViREjLb1xKZu8kLgCA-87" edge="1">
          <mxGeometry width="50" height="50" relative="1" as="geometry">
            <mxPoint x="23.5" y="40" as="sourcePoint"/>
            <mxPoint x="63.5" y="40" as="targetPoint"/>
          </mxGeometry>
        </mxCell>
        <mxCell id="NBViREjLb1xKZu8kLgCA-99" value="" style="group" parent="1" vertex="1" connectable="0">
          <mxGeometry x="827" y="230" width="100" height="80" as="geometry"/>
        </mxCell>
        <mxCell id="NBViREjLb1xKZu8kLgCA-100" value="" style="shape=loopLimit;whiteSpace=wrap;html=1;fillColor=#ffe6cc;strokeColor=#d79b00;strokeWidth=2;" parent="NBViREjLb1xKZu8kLgCA-99" vertex="1">
          <mxGeometry width="100" height="80" as="geometry"/>
        </mxCell>
        <mxCell id="NBViREjLb1xKZu8kLgCA-101" value="Clear Perception Events" style="text;html=1;strokeColor=none;fillColor=none;align=center;verticalAlign=middle;whiteSpace=wrap;rounded=0;fontStyle=1;fontSize=18;" parent="NBViREjLb1xKZu8kLgCA-99" vertex="1">
          <mxGeometry x="30" y="35" width="40" height="20" as="geometry"/>
        </mxCell>
        <mxCell id="NBViREjLb1xKZu8kLgCA-102" value="" style="endArrow=classic;html=1;exitX=1;exitY=1;exitDx=0;exitDy=0;entryX=0.5;entryY=0;entryDx=0;entryDy=0;" parent="1" source="NBViREjLb1xKZu8kLgCA-86" target="NBViREjLb1xKZu8kLgCA-100" edge="1">
          <mxGeometry width="50" height="50" relative="1" as="geometry">
            <mxPoint x="600" y="120" as="sourcePoint"/>
            <mxPoint x="650" y="70" as="targetPoint"/>
            <Array as="points">
              <mxPoint x="810" y="190"/>
            </Array>
          </mxGeometry>
        </mxCell>
        <mxCell id="NBViREjLb1xKZu8kLgCA-103" value="" style="group" parent="1" vertex="1" connectable="0">
          <mxGeometry x="-850" y="600" width="80" height="80" as="geometry"/>
        </mxCell>
        <mxCell id="NBViREjLb1xKZu8kLgCA-104" value="" style="ellipse;whiteSpace=wrap;html=1;aspect=fixed;fillColor=#ffe6cc;strokeColor=#d79b00;" parent="NBViREjLb1xKZu8kLgCA-103" vertex="1">
          <mxGeometry width="80" height="80" as="geometry"/>
        </mxCell>
        <mxCell id="NBViREjLb1xKZu8kLgCA-105" value="?" style="text;html=1;strokeColor=none;fillColor=none;align=center;verticalAlign=middle;whiteSpace=wrap;rounded=0;strokeWidth=5;labelBorderColor=none;fontSize=60;" parent="NBViREjLb1xKZu8kLgCA-103" vertex="1">
          <mxGeometry x="20" y="30" width="40" height="20" as="geometry"/>
        </mxCell>
        <mxCell id="NBViREjLb1xKZu8kLgCA-110" value="" style="group" parent="1" vertex="1" connectable="0">
          <mxGeometry x="-650" y="600" width="100" height="80" as="geometry"/>
        </mxCell>
        <mxCell id="NBViREjLb1xKZu8kLgCA-17" value="" style="shape=loopLimit;whiteSpace=wrap;html=1;fillColor=#ffe6cc;strokeColor=#d79b00;strokeWidth=2;" parent="NBViREjLb1xKZu8kLgCA-110" vertex="1">
          <mxGeometry width="100" height="80" as="geometry"/>
        </mxCell>
        <mxCell id="NBViREjLb1xKZu8kLgCA-18" value="Set Interrupted" style="text;html=1;strokeColor=none;fillColor=none;align=center;verticalAlign=middle;whiteSpace=wrap;rounded=0;" parent="NBViREjLb1xKZu8kLgCA-110" vertex="1">
          <mxGeometry x="10" y="15" width="80" height="50" as="geometry"/>
        </mxCell>
        <mxCell id="NBViREjLb1xKZu8kLgCA-111" value="" style="endArrow=classic;html=1;exitX=0.5;exitY=1;exitDx=0;exitDy=0;entryX=0.5;entryY=0;entryDx=0;entryDy=0;" parent="1" source="NBViREjLb1xKZu8kLgCA-8" target="NBViREjLb1xKZu8kLgCA-104" edge="1">
          <mxGeometry width="50" height="50" relative="1" as="geometry">
            <mxPoint x="-740" y="640" as="sourcePoint"/>
            <mxPoint x="-690" y="590" as="targetPoint"/>
          </mxGeometry>
        </mxCell>
        <mxCell id="NBViREjLb1xKZu8kLgCA-112" value="" style="endArrow=classic;html=1;exitX=0.5;exitY=1;exitDx=0;exitDy=0;entryX=0.5;entryY=0;entryDx=0;entryDy=0;" parent="1" source="NBViREjLb1xKZu8kLgCA-8" target="NBViREjLb1xKZu8kLgCA-17" edge="1">
          <mxGeometry width="50" height="50" relative="1" as="geometry">
            <mxPoint x="-550" y="510" as="sourcePoint"/>
            <mxPoint x="-500" y="460" as="targetPoint"/>
          </mxGeometry>
        </mxCell>
        <mxCell id="NBViREjLb1xKZu8kLgCA-113" value="" style="endArrow=classic;html=1;exitX=0.5;exitY=1;exitDx=0;exitDy=0;entryX=0.5;entryY=0;entryDx=0;entryDy=0;entryPerimeter=0;" parent="1" source="NBViREjLb1xKZu8kLgCA-8" target="NBViREjLb1xKZu8kLgCA-82" edge="1">
          <mxGeometry width="50" height="50" relative="1" as="geometry">
            <mxPoint x="-910" y="590" as="sourcePoint"/>
            <mxPoint x="-860" y="540" as="targetPoint"/>
          </mxGeometry>
        </mxCell>
        <mxCell id="NBViREjLb1xKZu8kLgCA-116" value="" style="group" parent="1" vertex="1" connectable="0">
          <mxGeometry x="-980" y="710" width="120" height="60" as="geometry"/>
        </mxCell>
        <mxCell id="NBViREjLb1xKZu8kLgCA-117" value="" style="rounded=0;whiteSpace=wrap;html=1;fontSize=18;fillColor=#ffe6cc;strokeColor=#d79b00;" parent="NBViREjLb1xKZu8kLgCA-116" vertex="1">
          <mxGeometry width="120" height="60" as="geometry"/>
        </mxCell>
        <mxCell id="NBViREjLb1xKZu8kLgCA-118" value="Not Fainted?" style="text;html=1;strokeColor=none;fillColor=none;align=center;verticalAlign=middle;whiteSpace=wrap;rounded=0;fontSize=18;" parent="NBViREjLb1xKZu8kLgCA-116" vertex="1">
          <mxGeometry x="40" y="20" width="40" height="20" as="geometry"/>
        </mxCell>
        <mxCell id="NBViREjLb1xKZu8kLgCA-119" value="" style="group" parent="1" vertex="1" connectable="0">
          <mxGeometry x="-980" y="790" width="120" height="60" as="geometry"/>
        </mxCell>
        <mxCell id="NBViREjLb1xKZu8kLgCA-120" value="" style="rounded=0;whiteSpace=wrap;html=1;fontSize=18;fillColor=#ffe6cc;strokeColor=#d79b00;" parent="NBViREjLb1xKZu8kLgCA-119" vertex="1">
          <mxGeometry width="120" height="60" as="geometry"/>
        </mxCell>
        <mxCell id="NBViREjLb1xKZu8kLgCA-121" value="Not Dead?" style="text;html=1;strokeColor=none;fillColor=none;align=center;verticalAlign=middle;whiteSpace=wrap;rounded=0;fontSize=18;" parent="NBViREjLb1xKZu8kLgCA-119" vertex="1">
          <mxGeometry x="40" y="20" width="40" height="20" as="geometry"/>
        </mxCell>
        <mxCell id="NBViREjLb1xKZu8kLgCA-123" value="" style="group" parent="1" vertex="1" connectable="0">
          <mxGeometry x="-980" y="870" width="120" height="60" as="geometry"/>
        </mxCell>
        <mxCell id="NBViREjLb1xKZu8kLgCA-124" value="" style="rounded=0;whiteSpace=wrap;html=1;fontSize=18;fillColor=#ffe6cc;strokeColor=#d79b00;" parent="NBViREjLb1xKZu8kLgCA-123" vertex="1">
          <mxGeometry width="120" height="60" as="geometry"/>
        </mxCell>
        <mxCell id="NBViREjLb1xKZu8kLgCA-125" value="Hit by guard?" style="text;html=1;strokeColor=none;fillColor=none;align=center;verticalAlign=middle;whiteSpace=wrap;rounded=0;fontSize=18;" parent="NBViREjLb1xKZu8kLgCA-123" vertex="1">
          <mxGeometry x="40" y="20" width="40" height="20" as="geometry"/>
        </mxCell>
        <mxCell id="NBViREjLb1xKZu8kLgCA-127" style="edgeStyle=orthogonalEdgeStyle;rounded=0;orthogonalLoop=1;jettySize=auto;html=1;exitX=0.5;exitY=1;exitDx=0;exitDy=0;entryX=0.5;entryY=0;entryDx=0;entryDy=0;" parent="1" source="NBViREjLb1xKZu8kLgCA-117" target="NBViREjLb1xKZu8kLgCA-120" edge="1">
          <mxGeometry relative="1" as="geometry"/>
        </mxCell>
        <mxCell id="NBViREjLb1xKZu8kLgCA-128" style="edgeStyle=orthogonalEdgeStyle;rounded=0;orthogonalLoop=1;jettySize=auto;html=1;exitX=0.5;exitY=1;exitDx=0;exitDy=0;entryX=0.5;entryY=0;entryDx=0;entryDy=0;" parent="1" source="NBViREjLb1xKZu8kLgCA-120" target="NBViREjLb1xKZu8kLgCA-124" edge="1">
          <mxGeometry relative="1" as="geometry"/>
        </mxCell>
        <mxCell id="NBViREjLb1xKZu8kLgCA-129" value="" style="group" parent="1" vertex="1" connectable="0">
          <mxGeometry x="-790" y="710" width="120" height="60" as="geometry"/>
        </mxCell>
        <mxCell id="NBViREjLb1xKZu8kLgCA-130" value="" style="rounded=0;whiteSpace=wrap;html=1;fontSize=18;fillColor=#ffe6cc;strokeColor=#d79b00;" parent="NBViREjLb1xKZu8kLgCA-129" vertex="1">
          <mxGeometry width="120" height="60" as="geometry"/>
        </mxCell>
        <mxCell id="NBViREjLb1xKZu8kLgCA-131" value="Not Fainted?" style="text;html=1;strokeColor=none;fillColor=none;align=center;verticalAlign=middle;whiteSpace=wrap;rounded=0;fontSize=18;" parent="NBViREjLb1xKZu8kLgCA-129" vertex="1">
          <mxGeometry x="40" y="20" width="40" height="20" as="geometry"/>
        </mxCell>
        <mxCell id="NBViREjLb1xKZu8kLgCA-132" value="" style="group" parent="1" vertex="1" connectable="0">
          <mxGeometry x="-790" y="790" width="120" height="60" as="geometry"/>
        </mxCell>
        <mxCell id="NBViREjLb1xKZu8kLgCA-133" value="" style="rounded=0;whiteSpace=wrap;html=1;fontSize=18;fillColor=#ffe6cc;strokeColor=#d79b00;" parent="NBViREjLb1xKZu8kLgCA-132" vertex="1">
          <mxGeometry width="120" height="60" as="geometry"/>
        </mxCell>
        <mxCell id="NBViREjLb1xKZu8kLgCA-134" value="Not Dead?" style="text;html=1;strokeColor=none;fillColor=none;align=center;verticalAlign=middle;whiteSpace=wrap;rounded=0;fontSize=18;" parent="NBViREjLb1xKZu8kLgCA-132" vertex="1">
          <mxGeometry x="40" y="20" width="40" height="20" as="geometry"/>
        </mxCell>
        <mxCell id="NBViREjLb1xKZu8kLgCA-135" value="" style="group" parent="1" vertex="1" connectable="0">
          <mxGeometry x="-790" y="870" width="120" height="60" as="geometry"/>
        </mxCell>
        <mxCell id="NBViREjLb1xKZu8kLgCA-184" value="" style="group" parent="NBViREjLb1xKZu8kLgCA-135" vertex="1" connectable="0">
          <mxGeometry width="120" height="60" as="geometry"/>
        </mxCell>
        <mxCell id="NBViREjLb1xKZu8kLgCA-136" value="" style="rounded=0;whiteSpace=wrap;html=1;fontSize=18;fillColor=#ffe6cc;strokeColor=#d79b00;" parent="NBViREjLb1xKZu8kLgCA-184" vertex="1">
          <mxGeometry width="120" height="60" as="geometry"/>
        </mxCell>
        <mxCell id="NBViREjLb1xKZu8kLgCA-137" value="Hit by guard?" style="text;html=1;strokeColor=none;fillColor=none;align=center;verticalAlign=middle;whiteSpace=wrap;rounded=0;fontSize=18;" parent="NBViREjLb1xKZu8kLgCA-184" vertex="1">
          <mxGeometry x="40" y="20" width="40" height="20" as="geometry"/>
        </mxCell>
        <mxCell id="NBViREjLb1xKZu8kLgCA-138" style="edgeStyle=orthogonalEdgeStyle;rounded=0;orthogonalLoop=1;jettySize=auto;html=1;exitX=0.5;exitY=1;exitDx=0;exitDy=0;entryX=0.5;entryY=0;entryDx=0;entryDy=0;" parent="1" source="NBViREjLb1xKZu8kLgCA-130" target="NBViREjLb1xKZu8kLgCA-133" edge="1">
          <mxGeometry relative="1" as="geometry"/>
        </mxCell>
        <mxCell id="NBViREjLb1xKZu8kLgCA-139" style="edgeStyle=orthogonalEdgeStyle;rounded=0;orthogonalLoop=1;jettySize=auto;html=1;exitX=0.5;exitY=1;exitDx=0;exitDy=0;entryX=0.5;entryY=0;entryDx=0;entryDy=0;" parent="1" source="NBViREjLb1xKZu8kLgCA-133" target="NBViREjLb1xKZu8kLgCA-136" edge="1">
          <mxGeometry relative="1" as="geometry"/>
        </mxCell>
        <mxCell id="NBViREjLb1xKZu8kLgCA-142" value="" style="group" parent="1" vertex="1" connectable="0">
          <mxGeometry x="-780" y="980" width="100" height="80" as="geometry"/>
        </mxCell>
        <mxCell id="NBViREjLb1xKZu8kLgCA-143" value="" style="shape=loopLimit;whiteSpace=wrap;html=1;fillColor=#ffe6cc;strokeColor=#d79b00;strokeWidth=2;" parent="NBViREjLb1xKZu8kLgCA-142" vertex="1">
          <mxGeometry width="100" height="80" as="geometry"/>
        </mxCell>
        <mxCell id="NBViREjLb1xKZu8kLgCA-144" value="Set Afraid" style="text;html=1;strokeColor=none;fillColor=none;align=center;verticalAlign=middle;whiteSpace=wrap;rounded=0;fontStyle=1;fontSize=18;" parent="NBViREjLb1xKZu8kLgCA-142" vertex="1">
          <mxGeometry x="30" y="35" width="40" height="20" as="geometry"/>
        </mxCell>
        <mxCell id="NBViREjLb1xKZu8kLgCA-145" value="" style="group" parent="1" vertex="1" connectable="0">
          <mxGeometry x="-1350" y="1000" width="80" height="80" as="geometry"/>
        </mxCell>
        <mxCell id="NBViREjLb1xKZu8kLgCA-146" value="" style="ellipse;whiteSpace=wrap;html=1;aspect=fixed;fillColor=#ffe6cc;strokeColor=#d79b00;" parent="NBViREjLb1xKZu8kLgCA-145" vertex="1">
          <mxGeometry width="80" height="80" as="geometry"/>
        </mxCell>
        <mxCell id="NBViREjLb1xKZu8kLgCA-147" value="" style="shape=flexArrow;endArrow=classic;html=1;fillColor=#ffffff;" parent="NBViREjLb1xKZu8kLgCA-145" edge="1">
          <mxGeometry width="50" height="50" relative="1" as="geometry">
            <mxPoint x="20" y="40" as="sourcePoint"/>
            <mxPoint x="60" y="40" as="targetPoint"/>
          </mxGeometry>
        </mxCell>
        <mxCell id="NBViREjLb1xKZu8kLgCA-148" value="" style="group" parent="1" vertex="1" connectable="0">
          <mxGeometry x="-1530" y="1128" width="100" height="80" as="geometry"/>
        </mxCell>
        <mxCell id="NBViREjLb1xKZu8kLgCA-149" value="" style="shape=loopLimit;whiteSpace=wrap;html=1;fillColor=#ffe6cc;strokeColor=#d79b00;strokeWidth=2;" parent="NBViREjLb1xKZu8kLgCA-148" vertex="1">
          <mxGeometry width="100" height="80" as="geometry"/>
        </mxCell>
        <mxCell id="NBViREjLb1xKZu8kLgCA-150" value="Stop Movement" style="text;html=1;strokeColor=none;fillColor=none;align=center;verticalAlign=middle;whiteSpace=wrap;rounded=0;fontStyle=1;fontSize=18;" parent="NBViREjLb1xKZu8kLgCA-148" vertex="1">
          <mxGeometry x="30" y="35" width="40" height="20" as="geometry"/>
        </mxCell>
        <mxCell id="NBViREjLb1xKZu8kLgCA-151" value="" style="group" parent="1" vertex="1" connectable="0">
          <mxGeometry x="-1420" y="1128" width="100" height="80" as="geometry"/>
        </mxCell>
        <mxCell id="NBViREjLb1xKZu8kLgCA-152" value="" style="shape=loopLimit;whiteSpace=wrap;html=1;fillColor=#ffe6cc;strokeColor=#d79b00;strokeWidth=2;" parent="NBViREjLb1xKZu8kLgCA-151" vertex="1">
          <mxGeometry width="100" height="80" as="geometry"/>
        </mxCell>
        <mxCell id="NBViREjLb1xKZu8kLgCA-153" value="Set Fainted" style="text;html=1;strokeColor=none;fillColor=none;align=center;verticalAlign=middle;whiteSpace=wrap;rounded=0;fontStyle=1;fontSize=18;" parent="NBViREjLb1xKZu8kLgCA-151" vertex="1">
          <mxGeometry x="30" y="35" width="40" height="20" as="geometry"/>
        </mxCell>
        <mxCell id="NBViREjLb1xKZu8kLgCA-154" value="" style="endArrow=classic;html=1;exitX=0.5;exitY=1;exitDx=0;exitDy=0;entryX=0.5;entryY=0;entryDx=0;entryDy=0;" parent="1" source="NBViREjLb1xKZu8kLgCA-104" target="NBViREjLb1xKZu8kLgCA-117" edge="1">
          <mxGeometry width="50" height="50" relative="1" as="geometry">
            <mxPoint x="-1040" y="1070" as="sourcePoint"/>
            <mxPoint x="-990" y="1020" as="targetPoint"/>
          </mxGeometry>
        </mxCell>
        <mxCell id="NBViREjLb1xKZu8kLgCA-155" value="" style="endArrow=classic;html=1;exitX=0.5;exitY=1;exitDx=0;exitDy=0;entryX=0.5;entryY=0;entryDx=0;entryDy=0;" parent="1" source="NBViREjLb1xKZu8kLgCA-104" target="NBViREjLb1xKZu8kLgCA-130" edge="1">
          <mxGeometry width="50" height="50" relative="1" as="geometry">
            <mxPoint x="-580" y="880" as="sourcePoint"/>
            <mxPoint x="-530" y="830" as="targetPoint"/>
          </mxGeometry>
        </mxCell>
        <mxCell id="NBViREjLb1xKZu8kLgCA-156" value="" style="endArrow=classic;html=1;exitX=0.5;exitY=1;exitDx=0;exitDy=0;entryX=0.5;entryY=0;entryDx=0;entryDy=0;" parent="1" source="NBViREjLb1xKZu8kLgCA-136" target="NBViREjLb1xKZu8kLgCA-143" edge="1">
          <mxGeometry width="50" height="50" relative="1" as="geometry">
            <mxPoint x="-660" y="1020" as="sourcePoint"/>
            <mxPoint x="-610" y="970" as="targetPoint"/>
          </mxGeometry>
        </mxCell>
        <mxCell id="NBViREjLb1xKZu8kLgCA-157" value="" style="endArrow=classic;html=1;exitX=0.5;exitY=1;exitDx=0;exitDy=0;entryX=0.5;entryY=0;entryDx=0;entryDy=0;" parent="1" source="NBViREjLb1xKZu8kLgCA-124" target="NBViREjLb1xKZu8kLgCA-146" edge="1">
          <mxGeometry width="50" height="50" relative="1" as="geometry">
            <mxPoint x="-1000" y="1040" as="sourcePoint"/>
            <mxPoint x="-950" y="990" as="targetPoint"/>
          </mxGeometry>
        </mxCell>
        <mxCell id="NBViREjLb1xKZu8kLgCA-158" value="" style="group" parent="1" vertex="1" connectable="0">
          <mxGeometry x="-1310" y="1128.5" width="100" height="80" as="geometry"/>
        </mxCell>
        <mxCell id="NBViREjLb1xKZu8kLgCA-159" value="" style="shape=loopLimit;whiteSpace=wrap;html=1;fillColor=#ffe6cc;strokeColor=#d79b00;strokeWidth=2;" parent="NBViREjLb1xKZu8kLgCA-158" vertex="1">
          <mxGeometry width="100" height="80" as="geometry"/>
        </mxCell>
        <mxCell id="NBViREjLb1xKZu8kLgCA-160" value="Damage += 20" style="text;html=1;strokeColor=none;fillColor=none;align=center;verticalAlign=middle;whiteSpace=wrap;rounded=0;fontStyle=1;fontSize=18;" parent="NBViREjLb1xKZu8kLgCA-158" vertex="1">
          <mxGeometry x="30" y="35" width="40" height="20" as="geometry"/>
        </mxCell>
        <mxCell id="NBViREjLb1xKZu8kLgCA-166" value="" style="group" parent="1" vertex="1" connectable="0">
          <mxGeometry x="-1200" y="1128.5" width="100" height="80" as="geometry"/>
        </mxCell>
        <mxCell id="NBViREjLb1xKZu8kLgCA-167" value="" style="shape=loopLimit;whiteSpace=wrap;html=1;fillColor=#ffe6cc;strokeColor=#d79b00;strokeWidth=2;" parent="NBViREjLb1xKZu8kLgCA-166" vertex="1">
          <mxGeometry width="100" height="80" as="geometry"/>
        </mxCell>
        <mxCell id="NBViREjLb1xKZu8kLgCA-168" value="Set Angry" style="text;html=1;strokeColor=none;fillColor=none;align=center;verticalAlign=middle;whiteSpace=wrap;rounded=0;fontStyle=1;fontSize=18;" parent="NBViREjLb1xKZu8kLgCA-166" vertex="1">
          <mxGeometry x="30" y="35" width="40" height="20" as="geometry"/>
        </mxCell>
        <mxCell id="NBViREjLb1xKZu8kLgCA-169" value="" style="endArrow=classic;html=1;exitX=0.5;exitY=1;exitDx=0;exitDy=0;entryX=0.5;entryY=0;entryDx=0;entryDy=0;" parent="1" source="NBViREjLb1xKZu8kLgCA-146" target="NBViREjLb1xKZu8kLgCA-149" edge="1">
          <mxGeometry width="50" height="50" relative="1" as="geometry">
            <mxPoint x="-1490" y="1090" as="sourcePoint"/>
            <mxPoint x="-1440" y="1040" as="targetPoint"/>
          </mxGeometry>
        </mxCell>
        <mxCell id="NBViREjLb1xKZu8kLgCA-170" value="" style="endArrow=classic;html=1;exitX=0.5;exitY=1;exitDx=0;exitDy=0;entryX=0.5;entryY=0;entryDx=0;entryDy=0;" parent="1" source="NBViREjLb1xKZu8kLgCA-146" target="NBViREjLb1xKZu8kLgCA-152" edge="1">
          <mxGeometry width="50" height="50" relative="1" as="geometry">
            <mxPoint x="-1170" y="1120" as="sourcePoint"/>
            <mxPoint x="-1120" y="1070" as="targetPoint"/>
          </mxGeometry>
        </mxCell>
        <mxCell id="NBViREjLb1xKZu8kLgCA-171" value="" style="endArrow=classic;html=1;exitX=0.5;exitY=1;exitDx=0;exitDy=0;entryX=0.5;entryY=0;entryDx=0;entryDy=0;" parent="1" source="NBViREjLb1xKZu8kLgCA-146" target="NBViREjLb1xKZu8kLgCA-159" edge="1">
          <mxGeometry width="50" height="50" relative="1" as="geometry">
            <mxPoint x="-1250" y="1120" as="sourcePoint"/>
            <mxPoint x="-1200" y="1070" as="targetPoint"/>
          </mxGeometry>
        </mxCell>
        <mxCell id="NBViREjLb1xKZu8kLgCA-172" value="" style="endArrow=classic;html=1;exitX=0.5;exitY=1;exitDx=0;exitDy=0;entryX=0.5;entryY=0;entryDx=0;entryDy=0;" parent="1" source="NBViREjLb1xKZu8kLgCA-146" target="NBViREjLb1xKZu8kLgCA-167" edge="1">
          <mxGeometry width="50" height="50" relative="1" as="geometry">
            <mxPoint x="-1220" y="1100" as="sourcePoint"/>
            <mxPoint x="-1170" y="1050" as="targetPoint"/>
          </mxGeometry>
        </mxCell>
        <mxCell id="NBViREjLb1xKZu8kLgCA-173" value="" style="group" parent="1" vertex="1" connectable="0">
          <mxGeometry x="-966.5" y="990" width="100" height="100" as="geometry"/>
        </mxCell>
        <mxCell id="NBViREjLb1xKZu8kLgCA-174" value="" style="strokeWidth=2;html=1;shape=mxgraph.flowchart.decision;whiteSpace=wrap;fillColor=#ffe6cc;strokeColor=#d79b00;" parent="NBViREjLb1xKZu8kLgCA-173" vertex="1">
          <mxGeometry width="100" height="100" as="geometry"/>
        </mxCell>
        <mxCell id="NBViREjLb1xKZu8kLgCA-175" value="" style="triangle;whiteSpace=wrap;html=1;strokeWidth=2;fontSize=18;rotation=-90;" parent="NBViREjLb1xKZu8kLgCA-173" vertex="1">
          <mxGeometry x="34" y="20" width="32" height="43" as="geometry"/>
        </mxCell>
        <mxCell id="NBViREjLb1xKZu8kLgCA-176" value="" style="edgeStyle=orthogonalEdgeStyle;rounded=0;orthogonalLoop=1;jettySize=auto;html=1;fontSize=18;entryX=0.5;entryY=0;entryDx=0;entryDy=0;" parent="1" source="NBViREjLb1xKZu8kLgCA-177" target="NBViREjLb1xKZu8kLgCA-180" edge="1">
          <mxGeometry relative="1" as="geometry">
            <mxPoint x="-916.5" y="1280" as="targetPoint"/>
          </mxGeometry>
        </mxCell>
        <mxCell id="NBViREjLb1xKZu8kLgCA-177" value="Damage &amp;gt; 100?" style="rounded=0;whiteSpace=wrap;html=1;strokeWidth=2;fontSize=18;fillColor=#ffe6cc;strokeColor=#d79b00;" parent="1" vertex="1">
          <mxGeometry x="-990" y="1120" width="147" height="60" as="geometry"/>
        </mxCell>
        <mxCell id="NBViREjLb1xKZu8kLgCA-178" style="edgeStyle=orthogonalEdgeStyle;rounded=0;orthogonalLoop=1;jettySize=auto;html=1;exitX=0.5;exitY=1;exitDx=0;exitDy=0;exitPerimeter=0;entryX=0.5;entryY=0;entryDx=0;entryDy=0;fontSize=18;" parent="1" source="NBViREjLb1xKZu8kLgCA-174" target="NBViREjLb1xKZu8kLgCA-177" edge="1">
          <mxGeometry relative="1" as="geometry"/>
        </mxCell>
        <mxCell id="NBViREjLb1xKZu8kLgCA-179" value="" style="group" parent="1" vertex="1" connectable="0">
          <mxGeometry x="-966.5" y="1200" width="100" height="80" as="geometry"/>
        </mxCell>
        <mxCell id="NBViREjLb1xKZu8kLgCA-180" value="" style="shape=loopLimit;whiteSpace=wrap;html=1;fillColor=#ffe6cc;strokeColor=#d79b00;strokeWidth=2;" parent="NBViREjLb1xKZu8kLgCA-179" vertex="1">
          <mxGeometry width="100" height="80" as="geometry"/>
        </mxCell>
        <mxCell id="NBViREjLb1xKZu8kLgCA-181" value="Set Dead" style="text;html=1;strokeColor=none;fillColor=none;align=center;verticalAlign=middle;whiteSpace=wrap;rounded=0;fontSize=18;" parent="NBViREjLb1xKZu8kLgCA-179" vertex="1">
          <mxGeometry x="30" y="40" width="40" height="20" as="geometry"/>
        </mxCell>
        <mxCell id="NBViREjLb1xKZu8kLgCA-182" value="" style="endArrow=classic;html=1;exitX=0.5;exitY=1;exitDx=0;exitDy=0;entryX=0.5;entryY=0;entryDx=0;entryDy=0;entryPerimeter=0;" parent="1" source="NBViREjLb1xKZu8kLgCA-124" target="NBViREjLb1xKZu8kLgCA-174" edge="1">
          <mxGeometry width="50" height="50" relative="1" as="geometry">
            <mxPoint x="-850" y="1020" as="sourcePoint"/>
            <mxPoint x="-800" y="970" as="targetPoint"/>
          </mxGeometry>
        </mxCell>
        <mxCell id="NBViREjLb1xKZu8kLgCA-185" value="" style="group" parent="1" vertex="1" connectable="0">
          <mxGeometry x="-440" y="1070" width="120" height="60" as="geometry"/>
        </mxCell>
        <mxCell id="NBViREjLb1xKZu8kLgCA-186" value="" style="rounded=0;whiteSpace=wrap;html=1;fontSize=18;fillColor=#ffe6cc;strokeColor=#d79b00;" parent="NBViREjLb1xKZu8kLgCA-185" vertex="1">
          <mxGeometry width="120" height="60" as="geometry"/>
        </mxCell>
        <mxCell id="NBViREjLb1xKZu8kLgCA-187" value="Afraid?" style="text;html=1;strokeColor=none;fillColor=none;align=center;verticalAlign=middle;whiteSpace=wrap;rounded=0;fontSize=18;" parent="NBViREjLb1xKZu8kLgCA-185" vertex="1">
          <mxGeometry x="40" y="20" width="40" height="20" as="geometry"/>
        </mxCell>
        <mxCell id="NBViREjLb1xKZu8kLgCA-188" value="" style="group" parent="1" vertex="1" connectable="0">
          <mxGeometry x="170" y="1068" width="120" height="60" as="geometry"/>
        </mxCell>
        <mxCell id="NBViREjLb1xKZu8kLgCA-189" value="" style="rounded=0;whiteSpace=wrap;html=1;fontSize=18;fillColor=#ffe6cc;strokeColor=#d79b00;" parent="NBViREjLb1xKZu8kLgCA-188" vertex="1">
          <mxGeometry width="120" height="60" as="geometry"/>
        </mxCell>
        <mxCell id="NBViREjLb1xKZu8kLgCA-190" value="Angry?" style="text;html=1;strokeColor=none;fillColor=none;align=center;verticalAlign=middle;whiteSpace=wrap;rounded=0;fontSize=18;" parent="NBViREjLb1xKZu8kLgCA-188" vertex="1">
          <mxGeometry x="40" y="20" width="40" height="20" as="geometry"/>
        </mxCell>
        <mxCell id="NBViREjLb1xKZu8kLgCA-191" value="" style="group" parent="1" vertex="1" connectable="0">
          <mxGeometry x="-420" y="1300" width="80" height="80" as="geometry"/>
        </mxCell>
        <mxCell id="NBViREjLb1xKZu8kLgCA-192" value="" style="ellipse;whiteSpace=wrap;html=1;aspect=fixed;fillColor=#ffe6cc;strokeColor=#d79b00;" parent="NBViREjLb1xKZu8kLgCA-191" vertex="1">
          <mxGeometry width="80" height="80" as="geometry"/>
        </mxCell>
        <mxCell id="NBViREjLb1xKZu8kLgCA-193" value="" style="shape=flexArrow;endArrow=classic;html=1;fillColor=#ffffff;" parent="NBViREjLb1xKZu8kLgCA-191" edge="1">
          <mxGeometry width="50" height="50" relative="1" as="geometry">
            <mxPoint x="20" y="40" as="sourcePoint"/>
            <mxPoint x="60" y="40" as="targetPoint"/>
          </mxGeometry>
        </mxCell>
        <mxCell id="NBViREjLb1xKZu8kLgCA-194" value="" style="endArrow=classic;html=1;fillColor=#ffffff;exitX=0.5;exitY=1;exitDx=0;exitDy=0;entryX=0.5;entryY=0;entryDx=0;entryDy=0;exitPerimeter=0;" parent="1" source="NBViREjLb1xKZu8kLgCA-196" target="NBViREjLb1xKZu8kLgCA-192" edge="1">
          <mxGeometry width="50" height="50" relative="1" as="geometry">
            <mxPoint x="-310" y="1250" as="sourcePoint"/>
            <mxPoint x="-380" y="1270" as="targetPoint"/>
          </mxGeometry>
        </mxCell>
        <mxCell id="NBViREjLb1xKZu8kLgCA-195" value="" style="group" parent="1" vertex="1" connectable="0">
          <mxGeometry x="-430" y="1180" width="100" height="100" as="geometry"/>
        </mxCell>
        <mxCell id="NBViREjLb1xKZu8kLgCA-196" value="" style="strokeWidth=2;html=1;shape=mxgraph.flowchart.decision;whiteSpace=wrap;fillColor=#ffe6cc;strokeColor=#d79b00;" parent="NBViREjLb1xKZu8kLgCA-195" vertex="1">
          <mxGeometry width="100" height="100" as="geometry"/>
        </mxCell>
        <mxCell id="NBViREjLb1xKZu8kLgCA-197" value="" style="html=1;shadow=0;dashed=0;align=center;verticalAlign=middle;shape=mxgraph.arrows2.uTurnArrow;dy=3.03;arrowHead=19.28;dx2=10.64;" parent="NBViREjLb1xKZu8kLgCA-195" vertex="1">
          <mxGeometry x="20" y="32.5" width="30" height="30" as="geometry"/>
        </mxCell>
        <mxCell id="NBViREjLb1xKZu8kLgCA-198" value="" style="html=1;shadow=0;dashed=0;align=center;verticalAlign=middle;shape=mxgraph.arrows2.uTurnArrow;dy=3.03;arrowHead=19.28;dx2=10.64;rotation=180;" parent="NBViREjLb1xKZu8kLgCA-195" vertex="1">
          <mxGeometry x="50" y="37.5" width="30" height="30" as="geometry"/>
        </mxCell>
        <mxCell id="NBViREjLb1xKZu8kLgCA-199" value="" style="group" parent="1" vertex="1" connectable="0">
          <mxGeometry x="-620" y="1450" width="100" height="80" as="geometry"/>
        </mxCell>
        <mxCell id="NBViREjLb1xKZu8kLgCA-200" value="" style="group" parent="NBViREjLb1xKZu8kLgCA-199" vertex="1" connectable="0">
          <mxGeometry width="100" height="80" as="geometry"/>
        </mxCell>
        <mxCell id="NBViREjLb1xKZu8kLgCA-201" value="" style="shape=loopLimit;whiteSpace=wrap;html=1;fillColor=#ffe6cc;strokeColor=#d79b00;strokeWidth=2;" parent="NBViREjLb1xKZu8kLgCA-200" vertex="1">
          <mxGeometry width="100" height="80" as="geometry"/>
        </mxCell>
        <mxCell id="NBViREjLb1xKZu8kLgCA-202" value="Find Wander Spot" style="text;html=1;strokeColor=none;fillColor=none;align=center;verticalAlign=middle;whiteSpace=wrap;rounded=0;fontSize=18;" parent="NBViREjLb1xKZu8kLgCA-200" vertex="1">
          <mxGeometry x="30" y="30" width="40" height="20" as="geometry"/>
        </mxCell>
        <mxCell id="NBViREjLb1xKZu8kLgCA-209" value="" style="group" parent="1" vertex="1" connectable="0">
          <mxGeometry x="-426.5" y="1450" width="100" height="80" as="geometry"/>
        </mxCell>
        <mxCell id="NBViREjLb1xKZu8kLgCA-210" value="" style="group" parent="NBViREjLb1xKZu8kLgCA-209" vertex="1" connectable="0">
          <mxGeometry width="100" height="80" as="geometry"/>
        </mxCell>
        <mxCell id="NBViREjLb1xKZu8kLgCA-211" value="" style="shape=loopLimit;whiteSpace=wrap;html=1;fillColor=#ffe6cc;strokeColor=#d79b00;strokeWidth=2;" parent="NBViREjLb1xKZu8kLgCA-210" vertex="1">
          <mxGeometry width="100" height="80" as="geometry"/>
        </mxCell>
        <mxCell id="NBViREjLb1xKZu8kLgCA-212" value="Run" style="text;html=1;strokeColor=none;fillColor=none;align=center;verticalAlign=middle;whiteSpace=wrap;rounded=0;fontSize=18;" parent="NBViREjLb1xKZu8kLgCA-210" vertex="1">
          <mxGeometry x="30" y="30" width="40" height="20" as="geometry"/>
        </mxCell>
        <mxCell id="NBViREjLb1xKZu8kLgCA-214" value="" style="endArrow=classic;html=1;exitX=0.5;exitY=1;exitDx=0;exitDy=0;entryX=0.5;entryY=0;entryDx=0;entryDy=0;" parent="1" source="NBViREjLb1xKZu8kLgCA-192" target="NBViREjLb1xKZu8kLgCA-201" edge="1">
          <mxGeometry width="50" height="50" relative="1" as="geometry">
            <mxPoint x="-620" y="1760" as="sourcePoint"/>
            <mxPoint x="-570" y="1710" as="targetPoint"/>
          </mxGeometry>
        </mxCell>
        <mxCell id="NBViREjLb1xKZu8kLgCA-215" value="" style="endArrow=classic;html=1;exitX=0.5;exitY=1;exitDx=0;exitDy=0;entryX=0.5;entryY=0;entryDx=0;entryDy=0;" parent="1" source="NBViREjLb1xKZu8kLgCA-192" target="NBViREjLb1xKZu8kLgCA-211" edge="1">
          <mxGeometry width="50" height="50" relative="1" as="geometry">
            <mxPoint x="-320" y="1700" as="sourcePoint"/>
            <mxPoint x="-270" y="1650" as="targetPoint"/>
          </mxGeometry>
        </mxCell>
        <mxCell id="NBViREjLb1xKZu8kLgCA-216" value="" style="endArrow=classic;html=1;exitX=0.5;exitY=1;exitDx=0;exitDy=0;entryX=0.5;entryY=0;entryDx=0;entryDy=0;entryPerimeter=0;" parent="1" source="NBViREjLb1xKZu8kLgCA-192" target="NBViREjLb1xKZu8kLgCA-224" edge="1">
          <mxGeometry width="50" height="50" relative="1" as="geometry">
            <mxPoint x="-160" y="1390" as="sourcePoint"/>
            <mxPoint x="-186.5" y="1450" as="targetPoint"/>
          </mxGeometry>
        </mxCell>
        <mxCell id="NBViREjLb1xKZu8kLgCA-222" value="" style="group" parent="1" vertex="1" connectable="0">
          <mxGeometry x="-210" y="1440" width="120" height="138" as="geometry"/>
        </mxCell>
        <mxCell id="NBViREjLb1xKZu8kLgCA-223" value="" style="group" parent="NBViREjLb1xKZu8kLgCA-222" vertex="1" connectable="0">
          <mxGeometry x="10" width="100" height="100" as="geometry"/>
        </mxCell>
        <mxCell id="NBViREjLb1xKZu8kLgCA-224" value="" style="strokeWidth=2;html=1;shape=mxgraph.flowchart.decision;whiteSpace=wrap;fontSize=18;fillColor=#ffe6cc;strokeColor=#d79b00;" parent="NBViREjLb1xKZu8kLgCA-223" vertex="1">
          <mxGeometry width="100" height="100" as="geometry"/>
        </mxCell>
        <mxCell id="NBViREjLb1xKZu8kLgCA-225" value="" style="html=1;verticalLabelPosition=bottom;align=center;labelBackgroundColor=#ffffff;verticalAlign=top;strokeWidth=2;strokeColor=#333333;shadow=0;dashed=0;shape=mxgraph.ios7.icons.alarm_clock;fontSize=18;" parent="NBViREjLb1xKZu8kLgCA-223" vertex="1">
          <mxGeometry x="36.5" y="35" width="27" height="30" as="geometry"/>
        </mxCell>
        <mxCell id="NBViREjLb1xKZu8kLgCA-226" value="Until Finished Path" style="rounded=0;whiteSpace=wrap;html=1;strokeColor=#d79b00;strokeWidth=2;fontSize=18;fillColor=#ffe6cc;" parent="NBViREjLb1xKZu8kLgCA-222" vertex="1">
          <mxGeometry y="78" width="120" height="60" as="geometry"/>
        </mxCell>
        <mxCell id="NBViREjLb1xKZu8kLgCA-228" value="" style="group;strokeColor=none;" parent="1" vertex="1" connectable="0">
          <mxGeometry x="-190" y="1640" width="80" height="80" as="geometry"/>
        </mxCell>
        <mxCell id="NBViREjLb1xKZu8kLgCA-229" value="" style="ellipse;whiteSpace=wrap;html=1;aspect=fixed;fillColor=#ffe6cc;strokeColor=#d79b00;" parent="NBViREjLb1xKZu8kLgCA-228" vertex="1">
          <mxGeometry width="80" height="80" as="geometry"/>
        </mxCell>
        <mxCell id="NBViREjLb1xKZu8kLgCA-230" value="" style="shape=flexArrow;endArrow=classic;html=1;endWidth=8.20977056344623;endSize=6.232558139534884;width=4.697986577181208;fillColor=#ffffff;" parent="NBViREjLb1xKZu8kLgCA-228" edge="1">
          <mxGeometry width="50" height="50" relative="1" as="geometry">
            <mxPoint x="20" y="20" as="sourcePoint"/>
            <mxPoint x="70" y="20" as="targetPoint"/>
            <Array as="points"/>
          </mxGeometry>
        </mxCell>
        <mxCell id="NBViREjLb1xKZu8kLgCA-231" value="" style="shape=flexArrow;endArrow=classic;html=1;endWidth=8.20977056344623;endSize=6.232558139534884;width=4.697986577181208;fillColor=#ffffff;" parent="NBViREjLb1xKZu8kLgCA-228" edge="1">
          <mxGeometry width="50" height="50" relative="1" as="geometry">
            <mxPoint x="20" y="40" as="sourcePoint"/>
            <mxPoint x="70" y="40" as="targetPoint"/>
            <Array as="points"/>
          </mxGeometry>
        </mxCell>
        <mxCell id="NBViREjLb1xKZu8kLgCA-232" value="" style="shape=flexArrow;endArrow=classic;html=1;endWidth=8.20977056344623;endSize=6.232558139534884;width=4.697986577181208;fillColor=#ffffff;" parent="NBViREjLb1xKZu8kLgCA-228" edge="1">
          <mxGeometry width="50" height="50" relative="1" as="geometry">
            <mxPoint x="20" y="60" as="sourcePoint"/>
            <mxPoint x="70" y="60" as="targetPoint"/>
            <Array as="points"/>
          </mxGeometry>
        </mxCell>
        <mxCell id="NBViREjLb1xKZu8kLgCA-233" value="" style="group" parent="1" vertex="1" connectable="0">
          <mxGeometry x="-530" y="1778.5" width="80" height="80" as="geometry"/>
        </mxCell>
        <mxCell id="NBViREjLb1xKZu8kLgCA-234" value="" style="ellipse;whiteSpace=wrap;html=1;aspect=fixed;fillColor=#ffe6cc;strokeColor=#d79b00;" parent="NBViREjLb1xKZu8kLgCA-233" vertex="1">
          <mxGeometry width="80" height="80" as="geometry"/>
        </mxCell>
        <mxCell id="NBViREjLb1xKZu8kLgCA-235" value="" style="shape=flexArrow;endArrow=classic;html=1;fillColor=#ffffff;" parent="NBViREjLb1xKZu8kLgCA-233" edge="1">
          <mxGeometry width="50" height="50" relative="1" as="geometry">
            <mxPoint x="20" y="40" as="sourcePoint"/>
            <mxPoint x="60" y="40" as="targetPoint"/>
          </mxGeometry>
        </mxCell>
        <mxCell id="NBViREjLb1xKZu8kLgCA-236" value="" style="group" parent="1" vertex="1" connectable="0">
          <mxGeometry x="-80" y="1880" width="100" height="100" as="geometry"/>
        </mxCell>
        <mxCell id="NBViREjLb1xKZu8kLgCA-237" value="" style="strokeWidth=2;html=1;shape=mxgraph.flowchart.decision;whiteSpace=wrap;fillColor=#ffe6cc;strokeColor=#d79b00;" parent="NBViREjLb1xKZu8kLgCA-236" vertex="1">
          <mxGeometry width="100" height="100" as="geometry"/>
        </mxCell>
        <mxCell id="NBViREjLb1xKZu8kLgCA-238" value="" style="html=1;shadow=0;dashed=0;align=center;verticalAlign=middle;shape=mxgraph.arrows2.uTurnArrow;dy=3.03;arrowHead=19.28;dx2=10.64;" parent="NBViREjLb1xKZu8kLgCA-236" vertex="1">
          <mxGeometry x="20" y="32.5" width="30" height="30" as="geometry"/>
        </mxCell>
        <mxCell id="NBViREjLb1xKZu8kLgCA-239" value="" style="html=1;shadow=0;dashed=0;align=center;verticalAlign=middle;shape=mxgraph.arrows2.uTurnArrow;dy=3.03;arrowHead=19.28;dx2=10.64;rotation=180;" parent="NBViREjLb1xKZu8kLgCA-236" vertex="1">
          <mxGeometry x="50" y="37.5" width="30" height="30" as="geometry"/>
        </mxCell>
        <mxCell id="NBViREjLb1xKZu8kLgCA-241" value="" style="group" parent="1" vertex="1" connectable="0">
          <mxGeometry x="-80" y="1760" width="100" height="100" as="geometry"/>
        </mxCell>
        <mxCell id="NBViREjLb1xKZu8kLgCA-242" value="" style="strokeWidth=2;html=1;shape=mxgraph.flowchart.decision;whiteSpace=wrap;fillColor=#ffe6cc;strokeColor=#d79b00;" parent="NBViREjLb1xKZu8kLgCA-241" vertex="1">
          <mxGeometry width="100" height="100" as="geometry"/>
        </mxCell>
        <mxCell id="NBViREjLb1xKZu8kLgCA-243" value="" style="group" parent="NBViREjLb1xKZu8kLgCA-241" vertex="1" connectable="0">
          <mxGeometry x="20" y="35" width="60" height="30" as="geometry"/>
        </mxCell>
        <mxCell id="NBViREjLb1xKZu8kLgCA-244" value="" style="verticalLabelPosition=bottom;verticalAlign=top;html=1;shape=mxgraph.basic.rect;fillColor2=none;strokeWidth=2;size=20;indent=5;fontSize=18;" parent="NBViREjLb1xKZu8kLgCA-243" vertex="1">
          <mxGeometry x="10" y="20" width="40" height="10" as="geometry"/>
        </mxCell>
        <mxCell id="NBViREjLb1xKZu8kLgCA-245" value="" style="verticalLabelPosition=bottom;verticalAlign=top;html=1;shape=mxgraph.basic.rect;fillColor2=none;strokeWidth=2;size=20;indent=5;fontSize=18;" parent="NBViREjLb1xKZu8kLgCA-243" vertex="1">
          <mxGeometry x="10" width="40" height="10" as="geometry"/>
        </mxCell>
        <mxCell id="NBViREjLb1xKZu8kLgCA-246" value="" style="verticalLabelPosition=bottom;verticalAlign=top;html=1;shape=mxgraph.basic.rect;fillColor2=none;strokeWidth=1;size=20;indent=5;fontSize=18;rotation=-60;" parent="NBViREjLb1xKZu8kLgCA-243" vertex="1">
          <mxGeometry y="10" width="60" height="10" as="geometry"/>
        </mxCell>
        <mxCell id="NBViREjLb1xKZu8kLgCA-247" value="" style="verticalLabelPosition=bottom;verticalAlign=top;html=1;shape=mxgraph.basic.rect;fillColor2=none;strokeWidth=1;size=20;indent=5;fontSize=18;strokeColor=none;" parent="NBViREjLb1xKZu8kLgCA-243" vertex="1">
          <mxGeometry x="10" width="40" height="10" as="geometry"/>
        </mxCell>
        <mxCell id="NBViREjLb1xKZu8kLgCA-248" value="" style="verticalLabelPosition=bottom;verticalAlign=top;html=1;shape=mxgraph.basic.rect;fillColor2=none;strokeWidth=1;size=20;indent=5;fontSize=18;strokeColor=none;" parent="NBViREjLb1xKZu8kLgCA-243" vertex="1">
          <mxGeometry x="10" y="20" width="40" height="10" as="geometry"/>
        </mxCell>
        <mxCell id="NBViREjLb1xKZu8kLgCA-249" style="edgeStyle=orthogonalEdgeStyle;rounded=0;orthogonalLoop=1;jettySize=auto;html=1;exitX=0.5;exitY=1;exitDx=0;exitDy=0;" parent="1" source="NBViREjLb1xKZu8kLgCA-226" target="NBViREjLb1xKZu8kLgCA-229" edge="1">
          <mxGeometry relative="1" as="geometry"/>
        </mxCell>
        <mxCell id="NBViREjLb1xKZu8kLgCA-250" value="" style="endArrow=classic;html=1;exitX=0.5;exitY=1;exitDx=0;exitDy=0;entryX=0.5;entryY=0;entryDx=0;entryDy=0;" parent="1" source="NBViREjLb1xKZu8kLgCA-229" target="NBViREjLb1xKZu8kLgCA-234" edge="1">
          <mxGeometry width="50" height="50" relative="1" as="geometry">
            <mxPoint x="-230" y="1830" as="sourcePoint"/>
            <mxPoint x="-180" y="1780" as="targetPoint"/>
          </mxGeometry>
        </mxCell>
        <mxCell id="NBViREjLb1xKZu8kLgCA-251" value="" style="endArrow=classic;html=1;exitX=0.5;exitY=1;exitDx=0;exitDy=0;entryX=0.5;entryY=0;entryDx=0;entryDy=0;entryPerimeter=0;" parent="1" source="NBViREjLb1xKZu8kLgCA-229" target="NBViREjLb1xKZu8kLgCA-242" edge="1">
          <mxGeometry width="50" height="50" relative="1" as="geometry">
            <mxPoint y="1730" as="sourcePoint"/>
            <mxPoint x="50" y="1680" as="targetPoint"/>
          </mxGeometry>
        </mxCell>
        <mxCell id="NBViREjLb1xKZu8kLgCA-252" value="" style="group" parent="1" vertex="1" connectable="0">
          <mxGeometry x="-70" y="2020" width="80" height="80" as="geometry"/>
        </mxCell>
        <mxCell id="NBViREjLb1xKZu8kLgCA-253" value="" style="ellipse;whiteSpace=wrap;html=1;aspect=fixed;fillColor=#ffe6cc;strokeColor=#d79b00;" parent="NBViREjLb1xKZu8kLgCA-252" vertex="1">
          <mxGeometry width="80" height="80" as="geometry"/>
        </mxCell>
        <mxCell id="NBViREjLb1xKZu8kLgCA-254" value="" style="shape=flexArrow;endArrow=classic;html=1;fillColor=#ffffff;" parent="NBViREjLb1xKZu8kLgCA-252" edge="1">
          <mxGeometry width="50" height="50" relative="1" as="geometry">
            <mxPoint x="20" y="40" as="sourcePoint"/>
            <mxPoint x="60" y="40" as="targetPoint"/>
          </mxGeometry>
        </mxCell>
        <mxCell id="NBViREjLb1xKZu8kLgCA-256" value="" style="group" parent="1" vertex="1" connectable="0">
          <mxGeometry x="-240" y="2120" width="120" height="138" as="geometry"/>
        </mxCell>
        <mxCell id="NBViREjLb1xKZu8kLgCA-257" value="" style="group" parent="NBViREjLb1xKZu8kLgCA-256" vertex="1" connectable="0">
          <mxGeometry x="10" width="100" height="100" as="geometry"/>
        </mxCell>
        <mxCell id="NBViREjLb1xKZu8kLgCA-258" value="" style="strokeWidth=2;html=1;shape=mxgraph.flowchart.decision;whiteSpace=wrap;fontSize=18;fillColor=#ffe6cc;strokeColor=#d79b00;" parent="NBViREjLb1xKZu8kLgCA-257" vertex="1">
          <mxGeometry width="100" height="100" as="geometry"/>
        </mxCell>
        <mxCell id="NBViREjLb1xKZu8kLgCA-259" value="" style="html=1;verticalLabelPosition=bottom;align=center;labelBackgroundColor=#ffffff;verticalAlign=top;strokeWidth=2;strokeColor=#333333;shadow=0;dashed=0;shape=mxgraph.ios7.icons.alarm_clock;fontSize=18;" parent="NBViREjLb1xKZu8kLgCA-257" vertex="1">
          <mxGeometry x="36.5" y="35" width="27" height="30" as="geometry"/>
        </mxCell>
        <mxCell id="NBViREjLb1xKZu8kLgCA-260" value="Wait 0.5 Sec" style="rounded=0;whiteSpace=wrap;html=1;strokeColor=#d79b00;strokeWidth=2;fontSize=18;fillColor=#ffe6cc;" parent="NBViREjLb1xKZu8kLgCA-256" vertex="1">
          <mxGeometry y="78" width="120" height="60" as="geometry"/>
        </mxCell>
        <mxCell id="NBViREjLb1xKZu8kLgCA-261" value="" style="group" parent="1" vertex="1" connectable="0">
          <mxGeometry x="-80" y="2130" width="100" height="80" as="geometry"/>
        </mxCell>
        <mxCell id="NBViREjLb1xKZu8kLgCA-262" value="" style="group" parent="NBViREjLb1xKZu8kLgCA-261" vertex="1" connectable="0">
          <mxGeometry width="100" height="80" as="geometry"/>
        </mxCell>
        <mxCell id="NBViREjLb1xKZu8kLgCA-263" value="" style="shape=loopLimit;whiteSpace=wrap;html=1;fillColor=#ffe6cc;strokeColor=#d79b00;strokeWidth=2;" parent="NBViREjLb1xKZu8kLgCA-262" vertex="1">
          <mxGeometry width="100" height="80" as="geometry"/>
        </mxCell>
        <mxCell id="NBViREjLb1xKZu8kLgCA-264" value="Nearby Violence" style="text;html=1;strokeColor=none;fillColor=none;align=center;verticalAlign=middle;whiteSpace=wrap;rounded=0;fontSize=18;" parent="NBViREjLb1xKZu8kLgCA-262" vertex="1">
          <mxGeometry x="30" y="30" width="40" height="20" as="geometry"/>
        </mxCell>
        <mxCell id="NBViREjLb1xKZu8kLgCA-265" style="edgeStyle=orthogonalEdgeStyle;rounded=0;orthogonalLoop=1;jettySize=auto;html=1;exitX=0.5;exitY=1;exitDx=0;exitDy=0;exitPerimeter=0;entryX=0.5;entryY=0;entryDx=0;entryDy=0;entryPerimeter=0;" parent="1" source="NBViREjLb1xKZu8kLgCA-242" target="NBViREjLb1xKZu8kLgCA-237" edge="1">
          <mxGeometry relative="1" as="geometry"/>
        </mxCell>
        <mxCell id="NBViREjLb1xKZu8kLgCA-266" style="edgeStyle=orthogonalEdgeStyle;rounded=0;orthogonalLoop=1;jettySize=auto;html=1;exitX=0.5;exitY=1;exitDx=0;exitDy=0;exitPerimeter=0;entryX=0.5;entryY=0;entryDx=0;entryDy=0;" parent="1" source="NBViREjLb1xKZu8kLgCA-237" target="NBViREjLb1xKZu8kLgCA-253" edge="1">
          <mxGeometry relative="1" as="geometry"/>
        </mxCell>
        <mxCell id="NBViREjLb1xKZu8kLgCA-267" value="" style="endArrow=classic;html=1;exitX=0.5;exitY=1;exitDx=0;exitDy=0;entryX=0.5;entryY=0;entryDx=0;entryDy=0;entryPerimeter=0;" parent="1" source="NBViREjLb1xKZu8kLgCA-253" target="NBViREjLb1xKZu8kLgCA-258" edge="1">
          <mxGeometry width="50" height="50" relative="1" as="geometry">
            <mxPoint x="-20" y="2170" as="sourcePoint"/>
            <mxPoint x="30" y="2120" as="targetPoint"/>
          </mxGeometry>
        </mxCell>
        <mxCell id="NBViREjLb1xKZu8kLgCA-268" value="" style="endArrow=classic;html=1;exitX=0.5;exitY=1;exitDx=0;exitDy=0;entryX=0.5;entryY=0;entryDx=0;entryDy=0;" parent="1" source="NBViREjLb1xKZu8kLgCA-253" target="NBViREjLb1xKZu8kLgCA-263" edge="1">
          <mxGeometry width="50" height="50" relative="1" as="geometry">
            <mxPoint x="70" y="2120" as="sourcePoint"/>
            <mxPoint x="120" y="2070" as="targetPoint"/>
          </mxGeometry>
        </mxCell>
        <mxCell id="NBViREjLb1xKZu8kLgCA-269" value="" style="group" parent="1" vertex="1" connectable="0">
          <mxGeometry x="-730" y="1888.5" width="100" height="80" as="geometry"/>
        </mxCell>
        <mxCell id="NBViREjLb1xKZu8kLgCA-270" value="" style="group" parent="NBViREjLb1xKZu8kLgCA-269" vertex="1" connectable="0">
          <mxGeometry width="100" height="80" as="geometry"/>
        </mxCell>
        <mxCell id="NBViREjLb1xKZu8kLgCA-271" value="" style="shape=loopLimit;whiteSpace=wrap;html=1;fillColor=#ffe6cc;strokeColor=#d79b00;strokeWidth=2;" parent="NBViREjLb1xKZu8kLgCA-270" vertex="1">
          <mxGeometry width="100" height="80" as="geometry"/>
        </mxCell>
        <mxCell id="NBViREjLb1xKZu8kLgCA-272" value="&lt;div&gt;Stop Movement&lt;/div&gt;" style="text;html=1;strokeColor=none;fillColor=none;align=center;verticalAlign=middle;whiteSpace=wrap;rounded=0;fontSize=18;" parent="NBViREjLb1xKZu8kLgCA-270" vertex="1">
          <mxGeometry x="30" y="30" width="40" height="20" as="geometry"/>
        </mxCell>
        <mxCell id="NBViREjLb1xKZu8kLgCA-273" value="" style="group" parent="1" vertex="1" connectable="0">
          <mxGeometry x="-620" y="1891" width="100" height="80" as="geometry"/>
        </mxCell>
        <mxCell id="NBViREjLb1xKZu8kLgCA-274" value="" style="group" parent="NBViREjLb1xKZu8kLgCA-273" vertex="1" connectable="0">
          <mxGeometry width="100" height="80" as="geometry"/>
        </mxCell>
        <mxCell id="NBViREjLb1xKZu8kLgCA-275" value="" style="shape=loopLimit;whiteSpace=wrap;html=1;fillColor=#ffe6cc;strokeColor=#d79b00;strokeWidth=2;" parent="NBViREjLb1xKZu8kLgCA-274" vertex="1">
          <mxGeometry width="100" height="80" as="geometry"/>
        </mxCell>
        <mxCell id="NBViREjLb1xKZu8kLgCA-276" value="Set Waiting" style="text;html=1;strokeColor=none;fillColor=none;align=center;verticalAlign=middle;whiteSpace=wrap;rounded=0;fontSize=18;" parent="NBViREjLb1xKZu8kLgCA-274" vertex="1">
          <mxGeometry x="30" y="30" width="40" height="20" as="geometry"/>
        </mxCell>
        <mxCell id="NBViREjLb1xKZu8kLgCA-277" value="" style="group" parent="1" vertex="1" connectable="0">
          <mxGeometry x="-500" y="1940" width="120" height="138" as="geometry"/>
        </mxCell>
        <mxCell id="NBViREjLb1xKZu8kLgCA-278" value="" style="group" parent="NBViREjLb1xKZu8kLgCA-277" vertex="1" connectable="0">
          <mxGeometry x="10" y="-51.5" width="110" height="141.5" as="geometry"/>
        </mxCell>
        <mxCell id="NBViREjLb1xKZu8kLgCA-279" value="" style="strokeWidth=2;html=1;shape=mxgraph.flowchart.decision;whiteSpace=wrap;fontSize=18;fillColor=#ffe6cc;strokeColor=#d79b00;" parent="NBViREjLb1xKZu8kLgCA-278" vertex="1">
          <mxGeometry width="100" height="100" as="geometry"/>
        </mxCell>
        <mxCell id="NBViREjLb1xKZu8kLgCA-280" value="" style="html=1;verticalLabelPosition=bottom;align=center;labelBackgroundColor=#ffffff;verticalAlign=top;strokeWidth=2;strokeColor=#333333;shadow=0;dashed=0;shape=mxgraph.ios7.icons.alarm_clock;fontSize=18;" parent="NBViREjLb1xKZu8kLgCA-278" vertex="1">
          <mxGeometry x="36.5" y="35" width="27" height="30" as="geometry"/>
        </mxCell>
        <mxCell id="NBViREjLb1xKZu8kLgCA-281" value="Wait 10 sec" style="rounded=0;whiteSpace=wrap;html=1;strokeColor=#d79b00;strokeWidth=2;fontSize=18;fillColor=#ffe6cc;" parent="NBViREjLb1xKZu8kLgCA-278" vertex="1">
          <mxGeometry x="-10" y="81.5" width="120" height="60" as="geometry"/>
        </mxCell>
        <mxCell id="NBViREjLb1xKZu8kLgCA-282" value="" style="group" parent="1" vertex="1" connectable="0">
          <mxGeometry x="-360" y="1898.5" width="100" height="80" as="geometry"/>
        </mxCell>
        <mxCell id="NBViREjLb1xKZu8kLgCA-283" value="" style="group" parent="NBViREjLb1xKZu8kLgCA-282" vertex="1" connectable="0">
          <mxGeometry width="100" height="80" as="geometry"/>
        </mxCell>
        <mxCell id="NBViREjLb1xKZu8kLgCA-284" value="" style="shape=loopLimit;whiteSpace=wrap;html=1;fillColor=#ffe6cc;strokeColor=#d79b00;strokeWidth=2;" parent="NBViREjLb1xKZu8kLgCA-283" vertex="1">
          <mxGeometry width="100" height="80" as="geometry"/>
        </mxCell>
        <mxCell id="NBViREjLb1xKZu8kLgCA-285" value="Set not afraid" style="text;html=1;strokeColor=none;fillColor=none;align=center;verticalAlign=middle;whiteSpace=wrap;rounded=0;fontSize=18;" parent="NBViREjLb1xKZu8kLgCA-283" vertex="1">
          <mxGeometry x="30" y="30" width="40" height="20" as="geometry"/>
        </mxCell>
        <mxCell id="NBViREjLb1xKZu8kLgCA-286" value="" style="endArrow=classic;html=1;exitX=0;exitY=1;exitDx=0;exitDy=0;entryX=0.5;entryY=0;entryDx=0;entryDy=0;" parent="1" source="NBViREjLb1xKZu8kLgCA-234" target="NBViREjLb1xKZu8kLgCA-271" edge="1">
          <mxGeometry width="50" height="50" relative="1" as="geometry">
            <mxPoint x="-610" y="1860" as="sourcePoint"/>
            <mxPoint x="-560" y="1810" as="targetPoint"/>
          </mxGeometry>
        </mxCell>
        <mxCell id="NBViREjLb1xKZu8kLgCA-287" value="" style="endArrow=classic;html=1;exitX=0.5;exitY=1;exitDx=0;exitDy=0;entryX=0.5;entryY=0;entryDx=0;entryDy=0;" parent="1" source="NBViREjLb1xKZu8kLgCA-234" target="NBViREjLb1xKZu8kLgCA-275" edge="1">
          <mxGeometry width="50" height="50" relative="1" as="geometry">
            <mxPoint x="-490" y="2260" as="sourcePoint"/>
            <mxPoint x="-440" y="2210" as="targetPoint"/>
          </mxGeometry>
        </mxCell>
        <mxCell id="NBViREjLb1xKZu8kLgCA-288" value="" style="endArrow=classic;html=1;exitX=0.5;exitY=1;exitDx=0;exitDy=0;entryX=0.5;entryY=0;entryDx=0;entryDy=0;entryPerimeter=0;" parent="1" source="NBViREjLb1xKZu8kLgCA-234" target="NBViREjLb1xKZu8kLgCA-279" edge="1">
          <mxGeometry width="50" height="50" relative="1" as="geometry">
            <mxPoint x="-310" y="2190" as="sourcePoint"/>
            <mxPoint x="-260" y="2140" as="targetPoint"/>
          </mxGeometry>
        </mxCell>
        <mxCell id="NBViREjLb1xKZu8kLgCA-289" value="" style="endArrow=classic;html=1;exitX=1;exitY=1;exitDx=0;exitDy=0;entryX=0.5;entryY=0;entryDx=0;entryDy=0;" parent="1" source="NBViREjLb1xKZu8kLgCA-234" target="NBViREjLb1xKZu8kLgCA-284" edge="1">
          <mxGeometry width="50" height="50" relative="1" as="geometry">
            <mxPoint x="-150" y="1900" as="sourcePoint"/>
            <mxPoint x="-100" y="1850" as="targetPoint"/>
          </mxGeometry>
        </mxCell>
        <mxCell id="NBViREjLb1xKZu8kLgCA-290" style="edgeStyle=orthogonalEdgeStyle;rounded=0;orthogonalLoop=1;jettySize=auto;html=1;exitX=0.5;exitY=1;exitDx=0;exitDy=0;entryX=0.5;entryY=0;entryDx=0;entryDy=0;entryPerimeter=0;" parent="1" source="NBViREjLb1xKZu8kLgCA-186" target="NBViREjLb1xKZu8kLgCA-196" edge="1">
          <mxGeometry relative="1" as="geometry"/>
        </mxCell>
        <mxCell id="NBViREjLb1xKZu8kLgCA-291" value="" style="endArrow=classic;html=1;exitX=0.5;exitY=1;exitDx=0;exitDy=0;entryX=0.5;entryY=0;entryDx=0;entryDy=0;" parent="1" source="NBViREjLb1xKZu8kLgCA-34" target="NBViREjLb1xKZu8kLgCA-186" edge="1">
          <mxGeometry width="50" height="50" relative="1" as="geometry">
            <mxPoint x="-100" y="920" as="sourcePoint"/>
            <mxPoint x="-50" y="870" as="targetPoint"/>
          </mxGeometry>
        </mxCell>
        <mxCell id="NBViREjLb1xKZu8kLgCA-292" value="" style="group" parent="1" vertex="1" connectable="0">
          <mxGeometry x="190" y="1200" width="80" height="80" as="geometry"/>
        </mxCell>
        <mxCell id="NBViREjLb1xKZu8kLgCA-293" value="" style="ellipse;whiteSpace=wrap;html=1;aspect=fixed;fillColor=#ffe6cc;strokeColor=#d79b00;" parent="NBViREjLb1xKZu8kLgCA-292" vertex="1">
          <mxGeometry width="80" height="80" as="geometry"/>
        </mxCell>
        <mxCell id="NBViREjLb1xKZu8kLgCA-294" value="" style="shape=flexArrow;endArrow=classic;html=1;fillColor=#ffffff;" parent="NBViREjLb1xKZu8kLgCA-292" edge="1">
          <mxGeometry width="50" height="50" relative="1" as="geometry">
            <mxPoint x="20" y="40" as="sourcePoint"/>
            <mxPoint x="60" y="40" as="targetPoint"/>
          </mxGeometry>
        </mxCell>
        <mxCell id="NBViREjLb1xKZu8kLgCA-295" value="" style="group" parent="1" vertex="1" connectable="0">
          <mxGeometry x="60" y="1340" width="100" height="100" as="geometry"/>
        </mxCell>
        <mxCell id="NBViREjLb1xKZu8kLgCA-296" value="" style="strokeWidth=2;html=1;shape=mxgraph.flowchart.decision;whiteSpace=wrap;fillColor=#ffe6cc;strokeColor=#d79b00;" parent="NBViREjLb1xKZu8kLgCA-295" vertex="1">
          <mxGeometry width="100" height="100" as="geometry"/>
        </mxCell>
        <mxCell id="NBViREjLb1xKZu8kLgCA-297" value="" style="html=1;shadow=0;dashed=0;align=center;verticalAlign=middle;shape=mxgraph.arrows2.uTurnArrow;dy=3.03;arrowHead=19.28;dx2=10.64;" parent="NBViREjLb1xKZu8kLgCA-295" vertex="1">
          <mxGeometry x="20" y="32.5" width="30" height="30" as="geometry"/>
        </mxCell>
        <mxCell id="NBViREjLb1xKZu8kLgCA-298" value="" style="html=1;shadow=0;dashed=0;align=center;verticalAlign=middle;shape=mxgraph.arrows2.uTurnArrow;dy=3.03;arrowHead=19.28;dx2=10.64;rotation=180;" parent="NBViREjLb1xKZu8kLgCA-295" vertex="1">
          <mxGeometry x="50" y="37.5" width="30" height="30" as="geometry"/>
        </mxCell>
        <mxCell id="NBViREjLb1xKZu8kLgCA-300" value="" style="group" parent="1" vertex="1" connectable="0">
          <mxGeometry x="60" y="1510" width="100" height="80" as="geometry"/>
        </mxCell>
        <mxCell id="NBViREjLb1xKZu8kLgCA-301" value="" style="group" parent="NBViREjLb1xKZu8kLgCA-300" vertex="1" connectable="0">
          <mxGeometry width="100" height="80" as="geometry"/>
        </mxCell>
        <mxCell id="NBViREjLb1xKZu8kLgCA-302" value="" style="shape=loopLimit;whiteSpace=wrap;html=1;fillColor=#ffe6cc;strokeColor=#d79b00;strokeWidth=2;" parent="NBViREjLb1xKZu8kLgCA-301" vertex="1">
          <mxGeometry width="100" height="80" as="geometry"/>
        </mxCell>
        <mxCell id="NBViREjLb1xKZu8kLgCA-303" value="Find escape spot" style="text;html=1;strokeColor=none;fillColor=none;align=center;verticalAlign=middle;whiteSpace=wrap;rounded=0;fontSize=18;" parent="NBViREjLb1xKZu8kLgCA-301" vertex="1">
          <mxGeometry x="30" y="30" width="40" height="20" as="geometry"/>
        </mxCell>
        <mxCell id="NBViREjLb1xKZu8kLgCA-304" value="" style="group" parent="1" vertex="1" connectable="0">
          <mxGeometry x="220" y="1340" width="100" height="80" as="geometry"/>
        </mxCell>
        <mxCell id="NBViREjLb1xKZu8kLgCA-305" value="" style="group" parent="NBViREjLb1xKZu8kLgCA-304" vertex="1" connectable="0">
          <mxGeometry width="100" height="80" as="geometry"/>
        </mxCell>
        <mxCell id="NBViREjLb1xKZu8kLgCA-306" value="" style="shape=loopLimit;whiteSpace=wrap;html=1;fillColor=#ffe6cc;strokeColor=#d79b00;strokeWidth=2;" parent="NBViREjLb1xKZu8kLgCA-305" vertex="1">
          <mxGeometry width="100" height="80" as="geometry"/>
        </mxCell>
        <mxCell id="NBViREjLb1xKZu8kLgCA-307" value="Start Walking" style="text;html=1;strokeColor=none;fillColor=none;align=center;verticalAlign=middle;whiteSpace=wrap;rounded=0;fontSize=18;" parent="NBViREjLb1xKZu8kLgCA-305" vertex="1">
          <mxGeometry x="30" y="30" width="40" height="20" as="geometry"/>
        </mxCell>
        <mxCell id="NBViREjLb1xKZu8kLgCA-309" value="" style="group" parent="1" vertex="1" connectable="0">
          <mxGeometry x="412.5" y="1340" width="120" height="138" as="geometry"/>
        </mxCell>
        <mxCell id="NBViREjLb1xKZu8kLgCA-310" value="" style="group" parent="NBViREjLb1xKZu8kLgCA-309" vertex="1" connectable="0">
          <mxGeometry x="10" width="100" height="100" as="geometry"/>
        </mxCell>
        <mxCell id="NBViREjLb1xKZu8kLgCA-311" value="" style="strokeWidth=2;html=1;shape=mxgraph.flowchart.decision;whiteSpace=wrap;fontSize=18;fillColor=#ffe6cc;strokeColor=#d79b00;" parent="NBViREjLb1xKZu8kLgCA-310" vertex="1">
          <mxGeometry width="100" height="100" as="geometry"/>
        </mxCell>
        <mxCell id="NBViREjLb1xKZu8kLgCA-312" value="" style="html=1;verticalLabelPosition=bottom;align=center;labelBackgroundColor=#ffffff;verticalAlign=top;strokeWidth=2;strokeColor=#333333;shadow=0;dashed=0;shape=mxgraph.ios7.icons.alarm_clock;fontSize=18;" parent="NBViREjLb1xKZu8kLgCA-310" vertex="1">
          <mxGeometry x="36.5" y="35" width="27" height="30" as="geometry"/>
        </mxCell>
        <mxCell id="NBViREjLb1xKZu8kLgCA-313" value="Until Finished Path?" style="rounded=0;whiteSpace=wrap;html=1;strokeColor=#d79b00;strokeWidth=2;fontSize=18;fillColor=#ffe6cc;" parent="NBViREjLb1xKZu8kLgCA-309" vertex="1">
          <mxGeometry y="78" width="120" height="60" as="geometry"/>
        </mxCell>
        <mxCell id="NBViREjLb1xKZu8kLgCA-314" value="" style="group" parent="1" vertex="1" connectable="0">
          <mxGeometry x="440" y="1510" width="80" height="80" as="geometry"/>
        </mxCell>
        <mxCell id="NBViREjLb1xKZu8kLgCA-315" value="" style="ellipse;whiteSpace=wrap;html=1;aspect=fixed;fillColor=#ffe6cc;strokeColor=#d79b00;" parent="NBViREjLb1xKZu8kLgCA-314" vertex="1">
          <mxGeometry width="80" height="80" as="geometry"/>
        </mxCell>
        <mxCell id="NBViREjLb1xKZu8kLgCA-316" value="" style="shape=flexArrow;endArrow=classic;html=1;fillColor=#ffffff;" parent="NBViREjLb1xKZu8kLgCA-314" edge="1">
          <mxGeometry width="50" height="50" relative="1" as="geometry">
            <mxPoint x="20" y="40" as="sourcePoint"/>
            <mxPoint x="60" y="40" as="targetPoint"/>
          </mxGeometry>
        </mxCell>
        <mxCell id="NBViREjLb1xKZu8kLgCA-317" value="" style="group" parent="1" vertex="1" connectable="0">
          <mxGeometry x="340" y="1645" width="100" height="80" as="geometry"/>
        </mxCell>
        <mxCell id="NBViREjLb1xKZu8kLgCA-318" value="" style="group" parent="NBViREjLb1xKZu8kLgCA-317" vertex="1" connectable="0">
          <mxGeometry width="100" height="80" as="geometry"/>
        </mxCell>
        <mxCell id="NBViREjLb1xKZu8kLgCA-319" value="" style="shape=loopLimit;whiteSpace=wrap;html=1;fillColor=#ffe6cc;strokeColor=#d79b00;strokeWidth=2;" parent="NBViREjLb1xKZu8kLgCA-318" vertex="1">
          <mxGeometry width="100" height="80" as="geometry"/>
        </mxCell>
        <mxCell id="NBViREjLb1xKZu8kLgCA-320" value="Free my spot" style="text;html=1;strokeColor=none;fillColor=none;align=center;verticalAlign=middle;whiteSpace=wrap;rounded=0;fontSize=18;" parent="NBViREjLb1xKZu8kLgCA-318" vertex="1">
          <mxGeometry x="30" y="30" width="40" height="20" as="geometry"/>
        </mxCell>
        <mxCell id="NBViREjLb1xKZu8kLgCA-321" value="" style="group" parent="1" vertex="1" connectable="0">
          <mxGeometry x="480" y="1645" width="100" height="80" as="geometry"/>
        </mxCell>
        <mxCell id="NBViREjLb1xKZu8kLgCA-322" value="" style="group" parent="NBViREjLb1xKZu8kLgCA-321" vertex="1" connectable="0">
          <mxGeometry width="100" height="80" as="geometry"/>
        </mxCell>
        <mxCell id="NBViREjLb1xKZu8kLgCA-323" value="" style="shape=loopLimit;whiteSpace=wrap;html=1;fillColor=#ffe6cc;strokeColor=#d79b00;strokeWidth=2;" parent="NBViREjLb1xKZu8kLgCA-322" vertex="1">
          <mxGeometry width="100" height="80" as="geometry"/>
        </mxCell>
        <mxCell id="NBViREjLb1xKZu8kLgCA-324" value="Destroy Agent" style="text;html=1;strokeColor=none;fillColor=none;align=center;verticalAlign=middle;whiteSpace=wrap;rounded=0;fontSize=18;" parent="NBViREjLb1xKZu8kLgCA-322" vertex="1">
          <mxGeometry x="30" y="30" width="40" height="20" as="geometry"/>
        </mxCell>
        <mxCell id="NBViREjLb1xKZu8kLgCA-326" value="" style="endArrow=classic;html=1;exitX=0.5;exitY=1;exitDx=0;exitDy=0;entryX=0.5;entryY=0;entryDx=0;entryDy=0;entryPerimeter=0;" parent="1" source="NBViREjLb1xKZu8kLgCA-293" target="NBViREjLb1xKZu8kLgCA-296" edge="1">
          <mxGeometry width="50" height="50" relative="1" as="geometry">
            <mxPoint x="360" y="1270" as="sourcePoint"/>
            <mxPoint x="410" y="1220" as="targetPoint"/>
          </mxGeometry>
        </mxCell>
        <mxCell id="NBViREjLb1xKZu8kLgCA-327" value="" style="endArrow=classic;html=1;exitX=0.5;exitY=1;exitDx=0;exitDy=0;entryX=0.5;entryY=0;entryDx=0;entryDy=0;" parent="1" source="NBViREjLb1xKZu8kLgCA-293" target="NBViREjLb1xKZu8kLgCA-306" edge="1">
          <mxGeometry width="50" height="50" relative="1" as="geometry">
            <mxPoint x="280" y="1520" as="sourcePoint"/>
            <mxPoint x="330" y="1470" as="targetPoint"/>
          </mxGeometry>
        </mxCell>
        <mxCell id="NBViREjLb1xKZu8kLgCA-328" value="" style="endArrow=classic;html=1;exitX=0.5;exitY=1;exitDx=0;exitDy=0;entryX=0.5;entryY=0;entryDx=0;entryDy=0;entryPerimeter=0;" parent="1" source="NBViREjLb1xKZu8kLgCA-293" target="NBViREjLb1xKZu8kLgCA-311" edge="1">
          <mxGeometry width="50" height="50" relative="1" as="geometry">
            <mxPoint x="230" y="1280" as="sourcePoint"/>
            <mxPoint x="420" y="1250" as="targetPoint"/>
          </mxGeometry>
        </mxCell>
        <mxCell id="NBViREjLb1xKZu8kLgCA-329" value="" style="endArrow=classic;html=1;exitX=0.5;exitY=1;exitDx=0;exitDy=0;entryX=0.5;entryY=0;entryDx=0;entryDy=0;" parent="1" source="NBViREjLb1xKZu8kLgCA-313" target="NBViREjLb1xKZu8kLgCA-315" edge="1">
          <mxGeometry width="50" height="50" relative="1" as="geometry">
            <mxPoint x="330" y="1520" as="sourcePoint"/>
            <mxPoint x="380" y="1470" as="targetPoint"/>
          </mxGeometry>
        </mxCell>
        <mxCell id="NBViREjLb1xKZu8kLgCA-330" value="" style="endArrow=classic;html=1;exitX=0.5;exitY=1;exitDx=0;exitDy=0;entryX=0.5;entryY=0;entryDx=0;entryDy=0;" parent="1" source="NBViREjLb1xKZu8kLgCA-315" target="NBViREjLb1xKZu8kLgCA-319" edge="1">
          <mxGeometry width="50" height="50" relative="1" as="geometry">
            <mxPoint x="290" y="1640" as="sourcePoint"/>
            <mxPoint x="340" y="1590" as="targetPoint"/>
          </mxGeometry>
        </mxCell>
        <mxCell id="NBViREjLb1xKZu8kLgCA-331" value="" style="endArrow=classic;html=1;exitX=0.5;exitY=1;exitDx=0;exitDy=0;entryX=0.5;entryY=0;entryDx=0;entryDy=0;" parent="1" source="NBViREjLb1xKZu8kLgCA-315" target="NBViREjLb1xKZu8kLgCA-323" edge="1">
          <mxGeometry width="50" height="50" relative="1" as="geometry">
            <mxPoint x="650" y="1650" as="sourcePoint"/>
            <mxPoint x="700" y="1600" as="targetPoint"/>
          </mxGeometry>
        </mxCell>
        <mxCell id="NBViREjLb1xKZu8kLgCA-332" value="" style="endArrow=classic;html=1;exitX=0.5;exitY=1;exitDx=0;exitDy=0;exitPerimeter=0;entryX=0.5;entryY=0;entryDx=0;entryDy=0;" parent="1" source="NBViREjLb1xKZu8kLgCA-296" target="NBViREjLb1xKZu8kLgCA-302" edge="1">
          <mxGeometry width="50" height="50" relative="1" as="geometry">
            <mxPoint x="180" y="1520" as="sourcePoint"/>
            <mxPoint x="230" y="1470" as="targetPoint"/>
          </mxGeometry>
        </mxCell>
        <mxCell id="NBViREjLb1xKZu8kLgCA-333" value="" style="endArrow=classic;html=1;exitX=0.5;exitY=1;exitDx=0;exitDy=0;entryX=0.5;entryY=0;entryDx=0;entryDy=0;" parent="1" source="NBViREjLb1xKZu8kLgCA-34" target="NBViREjLb1xKZu8kLgCA-189" edge="1">
          <mxGeometry width="50" height="50" relative="1" as="geometry">
            <mxPoint x="140" y="960" as="sourcePoint"/>
            <mxPoint x="190" y="910" as="targetPoint"/>
          </mxGeometry>
        </mxCell>
        <mxCell id="NBViREjLb1xKZu8kLgCA-334" style="edgeStyle=orthogonalEdgeStyle;rounded=0;orthogonalLoop=1;jettySize=auto;html=1;exitX=0.5;exitY=1;exitDx=0;exitDy=0;entryX=0.5;entryY=0;entryDx=0;entryDy=0;" parent="1" source="NBViREjLb1xKZu8kLgCA-189" target="NBViREjLb1xKZu8kLgCA-293" edge="1">
          <mxGeometry relative="1" as="geometry"/>
        </mxCell>
        <mxCell id="NBViREjLb1xKZu8kLgCA-335" value="" style="group" parent="1" vertex="1" connectable="0">
          <mxGeometry x="826" y="1070" width="120" height="60" as="geometry"/>
        </mxCell>
        <mxCell id="NBViREjLb1xKZu8kLgCA-407" value="" style="group" parent="NBViREjLb1xKZu8kLgCA-335" vertex="1" connectable="0">
          <mxGeometry width="120" height="60" as="geometry"/>
        </mxCell>
        <mxCell id="NBViREjLb1xKZu8kLgCA-336" value="" style="rounded=0;whiteSpace=wrap;html=1;fontSize=18;fillColor=#ffe6cc;strokeColor=#d79b00;" parent="NBViREjLb1xKZu8kLgCA-407" vertex="1">
          <mxGeometry width="120" height="60" as="geometry"/>
        </mxCell>
        <mxCell id="NBViREjLb1xKZu8kLgCA-337" value="Event Healing?" style="text;html=1;strokeColor=none;fillColor=none;align=center;verticalAlign=middle;whiteSpace=wrap;rounded=0;fontSize=18;" parent="NBViREjLb1xKZu8kLgCA-407" vertex="1">
          <mxGeometry x="40" y="20" width="40" height="20" as="geometry"/>
        </mxCell>
        <mxCell id="NBViREjLb1xKZu8kLgCA-338" value="" style="group" parent="1" vertex="1" connectable="0">
          <mxGeometry x="840" y="1200" width="80" height="80" as="geometry"/>
        </mxCell>
        <mxCell id="NBViREjLb1xKZu8kLgCA-339" value="" style="ellipse;whiteSpace=wrap;html=1;aspect=fixed;fillColor=#ffe6cc;strokeColor=#d79b00;" parent="NBViREjLb1xKZu8kLgCA-338" vertex="1">
          <mxGeometry width="80" height="80" as="geometry"/>
        </mxCell>
        <mxCell id="NBViREjLb1xKZu8kLgCA-340" value="" style="shape=flexArrow;endArrow=classic;html=1;fillColor=#ffffff;" parent="NBViREjLb1xKZu8kLgCA-338" edge="1">
          <mxGeometry width="50" height="50" relative="1" as="geometry">
            <mxPoint x="20" y="40" as="sourcePoint"/>
            <mxPoint x="60" y="40" as="targetPoint"/>
          </mxGeometry>
        </mxCell>
        <mxCell id="NBViREjLb1xKZu8kLgCA-345" value="" style="group" parent="1" vertex="1" connectable="0">
          <mxGeometry x="980" y="1320" width="120" height="138" as="geometry"/>
        </mxCell>
        <mxCell id="NBViREjLb1xKZu8kLgCA-346" value="" style="group" parent="NBViREjLb1xKZu8kLgCA-345" vertex="1" connectable="0">
          <mxGeometry x="10" width="100" height="100" as="geometry"/>
        </mxCell>
        <mxCell id="NBViREjLb1xKZu8kLgCA-347" value="" style="strokeWidth=2;html=1;shape=mxgraph.flowchart.decision;whiteSpace=wrap;fontSize=18;fillColor=#ffe6cc;strokeColor=#d79b00;" parent="NBViREjLb1xKZu8kLgCA-346" vertex="1">
          <mxGeometry width="100" height="100" as="geometry"/>
        </mxCell>
        <mxCell id="NBViREjLb1xKZu8kLgCA-348" value="" style="html=1;verticalLabelPosition=bottom;align=center;labelBackgroundColor=#ffffff;verticalAlign=top;strokeWidth=2;strokeColor=#333333;shadow=0;dashed=0;shape=mxgraph.ios7.icons.alarm_clock;fontSize=18;" parent="NBViREjLb1xKZu8kLgCA-346" vertex="1">
          <mxGeometry x="36.5" y="35" width="27" height="30" as="geometry"/>
        </mxCell>
        <mxCell id="NBViREjLb1xKZu8kLgCA-349" value="Until Finished Path?" style="rounded=0;whiteSpace=wrap;html=1;strokeColor=#d79b00;strokeWidth=2;fontSize=18;fillColor=#ffe6cc;" parent="NBViREjLb1xKZu8kLgCA-345" vertex="1">
          <mxGeometry y="78" width="120" height="60" as="geometry"/>
        </mxCell>
        <mxCell id="NBViREjLb1xKZu8kLgCA-350" value="" style="group" parent="1" vertex="1" connectable="0">
          <mxGeometry x="660" y="1320" width="100" height="80" as="geometry"/>
        </mxCell>
        <mxCell id="NBViREjLb1xKZu8kLgCA-351" value="" style="group" parent="NBViREjLb1xKZu8kLgCA-350" vertex="1" connectable="0">
          <mxGeometry width="100" height="80" as="geometry"/>
        </mxCell>
        <mxCell id="NBViREjLb1xKZu8kLgCA-352" value="" style="shape=loopLimit;whiteSpace=wrap;html=1;fillColor=#ffe6cc;strokeColor=#d79b00;strokeWidth=2;" parent="NBViREjLb1xKZu8kLgCA-351" vertex="1">
          <mxGeometry width="100" height="80" as="geometry"/>
        </mxCell>
        <mxCell id="NBViREjLb1xKZu8kLgCA-353" value="Find Patient" style="text;html=1;strokeColor=none;fillColor=none;align=center;verticalAlign=middle;whiteSpace=wrap;rounded=0;fontSize=18;" parent="NBViREjLb1xKZu8kLgCA-351" vertex="1">
          <mxGeometry x="30" y="30" width="40" height="20" as="geometry"/>
        </mxCell>
        <mxCell id="NBViREjLb1xKZu8kLgCA-354" value="" style="group" parent="1" vertex="1" connectable="0">
          <mxGeometry x="814" y="1320" width="100" height="80" as="geometry"/>
        </mxCell>
        <mxCell id="NBViREjLb1xKZu8kLgCA-355" value="" style="group" parent="NBViREjLb1xKZu8kLgCA-354" vertex="1" connectable="0">
          <mxGeometry width="100" height="80" as="geometry"/>
        </mxCell>
        <mxCell id="NBViREjLb1xKZu8kLgCA-356" value="" style="shape=loopLimit;whiteSpace=wrap;html=1;fillColor=#ffe6cc;strokeColor=#d79b00;strokeWidth=2;" parent="NBViREjLb1xKZu8kLgCA-355" vertex="1">
          <mxGeometry width="100" height="80" as="geometry"/>
        </mxCell>
        <mxCell id="NBViREjLb1xKZu8kLgCA-357" value="Start Walking" style="text;html=1;strokeColor=none;fillColor=none;align=center;verticalAlign=middle;whiteSpace=wrap;rounded=0;fontSize=18;" parent="NBViREjLb1xKZu8kLgCA-355" vertex="1">
          <mxGeometry x="30" y="30" width="40" height="20" as="geometry"/>
        </mxCell>
        <mxCell id="NBViREjLb1xKZu8kLgCA-358" style="edgeStyle=orthogonalEdgeStyle;rounded=0;orthogonalLoop=1;jettySize=auto;html=1;exitX=0.5;exitY=1;exitDx=0;exitDy=0;entryX=0.5;entryY=0;entryDx=0;entryDy=0;" parent="1" source="NBViREjLb1xKZu8kLgCA-336" target="NBViREjLb1xKZu8kLgCA-339" edge="1">
          <mxGeometry relative="1" as="geometry"/>
        </mxCell>
        <mxCell id="NBViREjLb1xKZu8kLgCA-359" value="" style="endArrow=classic;html=1;exitX=0.5;exitY=1;exitDx=0;exitDy=0;entryX=0.5;entryY=0;entryDx=0;entryDy=0;" parent="1" source="NBViREjLb1xKZu8kLgCA-339" target="NBViREjLb1xKZu8kLgCA-352" edge="1">
          <mxGeometry width="50" height="50" relative="1" as="geometry">
            <mxPoint x="860" y="1410" as="sourcePoint"/>
            <mxPoint x="910" y="1360" as="targetPoint"/>
          </mxGeometry>
        </mxCell>
        <mxCell id="NBViREjLb1xKZu8kLgCA-360" value="" style="endArrow=classic;html=1;exitX=0.5;exitY=1;exitDx=0;exitDy=0;entryX=0.5;entryY=0;entryDx=0;entryDy=0;entryPerimeter=0;" parent="1" source="NBViREjLb1xKZu8kLgCA-339" target="NBViREjLb1xKZu8kLgCA-347" edge="1">
          <mxGeometry width="50" height="50" relative="1" as="geometry">
            <mxPoint x="1110" y="1340" as="sourcePoint"/>
            <mxPoint x="1020.0000000000005" y="1320" as="targetPoint"/>
          </mxGeometry>
        </mxCell>
        <mxCell id="NBViREjLb1xKZu8kLgCA-363" value="" style="group" parent="1" vertex="1" connectable="0">
          <mxGeometry x="990" y="1480" width="80" height="80" as="geometry"/>
        </mxCell>
        <mxCell id="NBViREjLb1xKZu8kLgCA-364" value="" style="ellipse;whiteSpace=wrap;html=1;aspect=fixed;fillColor=#ffe6cc;strokeColor=#d79b00;" parent="NBViREjLb1xKZu8kLgCA-363" vertex="1">
          <mxGeometry width="80" height="80" as="geometry"/>
        </mxCell>
        <mxCell id="NBViREjLb1xKZu8kLgCA-365" value="" style="shape=flexArrow;endArrow=classic;html=1;fillColor=#ffffff;" parent="NBViREjLb1xKZu8kLgCA-363" edge="1">
          <mxGeometry width="50" height="50" relative="1" as="geometry">
            <mxPoint x="20" y="40" as="sourcePoint"/>
            <mxPoint x="60" y="40" as="targetPoint"/>
          </mxGeometry>
        </mxCell>
        <mxCell id="NBViREjLb1xKZu8kLgCA-366" value="" style="group" parent="1" vertex="1" connectable="0">
          <mxGeometry x="650" y="1750" width="100" height="80" as="geometry"/>
        </mxCell>
        <mxCell id="NBViREjLb1xKZu8kLgCA-367" value="" style="shape=loopLimit;whiteSpace=wrap;html=1;fillColor=#ffe6cc;strokeColor=#d79b00;strokeWidth=2;" parent="NBViREjLb1xKZu8kLgCA-366" vertex="1">
          <mxGeometry width="100" height="80" as="geometry"/>
        </mxCell>
        <mxCell id="NBViREjLb1xKZu8kLgCA-368" value="Set Idle" style="text;html=1;strokeColor=none;fillColor=none;align=center;verticalAlign=middle;whiteSpace=wrap;rounded=0;fontStyle=1;fontSize=18;" parent="NBViREjLb1xKZu8kLgCA-366" vertex="1">
          <mxGeometry x="30" y="35" width="40" height="20" as="geometry"/>
        </mxCell>
        <mxCell id="NBViREjLb1xKZu8kLgCA-369" value="" style="group" parent="1" vertex="1" connectable="0">
          <mxGeometry x="1120" y="1565" width="100" height="80" as="geometry"/>
        </mxCell>
        <mxCell id="NBViREjLb1xKZu8kLgCA-370" value="" style="shape=loopLimit;whiteSpace=wrap;html=1;fillColor=#ffe6cc;strokeColor=#d79b00;strokeWidth=2;" parent="NBViREjLb1xKZu8kLgCA-369" vertex="1">
          <mxGeometry width="100" height="80" as="geometry"/>
        </mxCell>
        <mxCell id="NBViREjLb1xKZu8kLgCA-371" value="Free my spot" style="text;html=1;strokeColor=none;fillColor=none;align=center;verticalAlign=middle;whiteSpace=wrap;rounded=0;fontStyle=1;fontSize=18;" parent="NBViREjLb1xKZu8kLgCA-369" vertex="1">
          <mxGeometry x="30" y="35" width="40" height="20" as="geometry"/>
        </mxCell>
        <mxCell id="NBViREjLb1xKZu8kLgCA-372" value="" style="group" parent="1" vertex="1" connectable="0">
          <mxGeometry x="740" y="1610" width="80" height="80" as="geometry"/>
        </mxCell>
        <mxCell id="NBViREjLb1xKZu8kLgCA-373" value="" style="ellipse;whiteSpace=wrap;html=1;aspect=fixed;fillColor=#ffe6cc;strokeColor=#d79b00;" parent="NBViREjLb1xKZu8kLgCA-372" vertex="1">
          <mxGeometry width="80" height="80" as="geometry"/>
        </mxCell>
        <mxCell id="NBViREjLb1xKZu8kLgCA-374" value="" style="shape=flexArrow;endArrow=classic;html=1;fillColor=#ffffff;" parent="NBViREjLb1xKZu8kLgCA-372" edge="1">
          <mxGeometry width="50" height="50" relative="1" as="geometry">
            <mxPoint x="20" y="40" as="sourcePoint"/>
            <mxPoint x="60" y="40" as="targetPoint"/>
          </mxGeometry>
        </mxCell>
        <mxCell id="NBViREjLb1xKZu8kLgCA-375" value="" style="group" parent="1" vertex="1" connectable="0">
          <mxGeometry x="780" y="1750" width="100" height="80" as="geometry"/>
        </mxCell>
        <mxCell id="NBViREjLb1xKZu8kLgCA-376" value="" style="shape=loopLimit;whiteSpace=wrap;html=1;fillColor=#ffe6cc;strokeColor=#d79b00;strokeWidth=2;" parent="NBViREjLb1xKZu8kLgCA-375" vertex="1">
          <mxGeometry width="100" height="80" as="geometry"/>
        </mxCell>
        <mxCell id="NBViREjLb1xKZu8kLgCA-377" value="Set Healing" style="text;html=1;strokeColor=none;fillColor=none;align=center;verticalAlign=middle;whiteSpace=wrap;rounded=0;fontStyle=1;fontSize=18;" parent="NBViREjLb1xKZu8kLgCA-375" vertex="1">
          <mxGeometry x="30" y="35" width="40" height="20" as="geometry"/>
        </mxCell>
        <mxCell id="NBViREjLb1xKZu8kLgCA-378" value="" style="endArrow=classic;html=1;exitX=0.5;exitY=1;exitDx=0;exitDy=0;entryX=0.5;entryY=0;entryDx=0;entryDy=0;" parent="1" source="NBViREjLb1xKZu8kLgCA-373" target="NBViREjLb1xKZu8kLgCA-367" edge="1">
          <mxGeometry width="50" height="50" relative="1" as="geometry">
            <mxPoint x="560" y="1760" as="sourcePoint"/>
            <mxPoint x="610" y="1710" as="targetPoint"/>
          </mxGeometry>
        </mxCell>
        <mxCell id="NBViREjLb1xKZu8kLgCA-379" value="" style="endArrow=classic;html=1;exitX=0.5;exitY=1;exitDx=0;exitDy=0;entryX=0.5;entryY=0;entryDx=0;entryDy=0;" parent="1" source="NBViREjLb1xKZu8kLgCA-373" target="NBViREjLb1xKZu8kLgCA-376" edge="1">
          <mxGeometry width="50" height="50" relative="1" as="geometry">
            <mxPoint x="890" y="1720" as="sourcePoint"/>
            <mxPoint x="940" y="1670" as="targetPoint"/>
          </mxGeometry>
        </mxCell>
        <mxCell id="NBViREjLb1xKZu8kLgCA-385" value="" style="group" parent="1" vertex="1" connectable="0">
          <mxGeometry x="880" y="1760" width="120" height="138" as="geometry"/>
        </mxCell>
        <mxCell id="NBViREjLb1xKZu8kLgCA-386" value="" style="group" parent="NBViREjLb1xKZu8kLgCA-385" vertex="1" connectable="0">
          <mxGeometry x="10" width="100" height="100" as="geometry"/>
        </mxCell>
        <mxCell id="NBViREjLb1xKZu8kLgCA-387" value="" style="strokeWidth=2;html=1;shape=mxgraph.flowchart.decision;whiteSpace=wrap;fontSize=18;fillColor=#ffe6cc;strokeColor=#d79b00;" parent="NBViREjLb1xKZu8kLgCA-386" vertex="1">
          <mxGeometry width="100" height="100" as="geometry"/>
        </mxCell>
        <mxCell id="NBViREjLb1xKZu8kLgCA-388" value="" style="html=1;verticalLabelPosition=bottom;align=center;labelBackgroundColor=#ffffff;verticalAlign=top;strokeWidth=2;strokeColor=#333333;shadow=0;dashed=0;shape=mxgraph.ios7.icons.alarm_clock;fontSize=18;" parent="NBViREjLb1xKZu8kLgCA-386" vertex="1">
          <mxGeometry x="36.5" y="35" width="27" height="30" as="geometry"/>
        </mxCell>
        <mxCell id="NBViREjLb1xKZu8kLgCA-389" value="Until Patient Ready?" style="rounded=0;whiteSpace=wrap;html=1;strokeColor=#d79b00;strokeWidth=2;fontSize=18;fillColor=#ffe6cc;" parent="NBViREjLb1xKZu8kLgCA-385" vertex="1">
          <mxGeometry y="78" width="120" height="60" as="geometry"/>
        </mxCell>
        <mxCell id="NBViREjLb1xKZu8kLgCA-380" value="" style="group;strokeColor=none;" parent="1" vertex="1" connectable="0">
          <mxGeometry x="1000" y="1660" width="80" height="80" as="geometry"/>
        </mxCell>
        <mxCell id="NBViREjLb1xKZu8kLgCA-381" value="" style="ellipse;whiteSpace=wrap;html=1;aspect=fixed;fillColor=#ffe6cc;strokeColor=#d79b00;" parent="NBViREjLb1xKZu8kLgCA-380" vertex="1">
          <mxGeometry width="80" height="80" as="geometry"/>
        </mxCell>
        <mxCell id="NBViREjLb1xKZu8kLgCA-382" value="" style="shape=flexArrow;endArrow=classic;html=1;endWidth=8.20977056344623;endSize=6.232558139534884;width=4.697986577181208;fillColor=#ffffff;" parent="NBViREjLb1xKZu8kLgCA-380" edge="1">
          <mxGeometry width="50" height="50" relative="1" as="geometry">
            <mxPoint x="20" y="20" as="sourcePoint"/>
            <mxPoint x="70" y="20" as="targetPoint"/>
            <Array as="points"/>
          </mxGeometry>
        </mxCell>
        <mxCell id="NBViREjLb1xKZu8kLgCA-383" value="" style="shape=flexArrow;endArrow=classic;html=1;endWidth=8.20977056344623;endSize=6.232558139534884;width=4.697986577181208;fillColor=#ffffff;" parent="NBViREjLb1xKZu8kLgCA-380" edge="1">
          <mxGeometry width="50" height="50" relative="1" as="geometry">
            <mxPoint x="20" y="40" as="sourcePoint"/>
            <mxPoint x="70" y="40" as="targetPoint"/>
            <Array as="points"/>
          </mxGeometry>
        </mxCell>
        <mxCell id="NBViREjLb1xKZu8kLgCA-384" value="" style="shape=flexArrow;endArrow=classic;html=1;endWidth=8.20977056344623;endSize=6.232558139534884;width=4.697986577181208;fillColor=#ffffff;" parent="NBViREjLb1xKZu8kLgCA-380" edge="1">
          <mxGeometry width="50" height="50" relative="1" as="geometry">
            <mxPoint x="20" y="60" as="sourcePoint"/>
            <mxPoint x="70" y="60" as="targetPoint"/>
            <Array as="points"/>
          </mxGeometry>
        </mxCell>
        <mxCell id="NBViREjLb1xKZu8kLgCA-390" value="" style="group" parent="1" vertex="1" connectable="0">
          <mxGeometry x="1160" y="1760" width="100" height="100" as="geometry"/>
        </mxCell>
        <mxCell id="NBViREjLb1xKZu8kLgCA-391" value="" style="strokeWidth=2;html=1;shape=mxgraph.flowchart.decision;whiteSpace=wrap;fillColor=#ffe6cc;strokeColor=#d79b00;" parent="NBViREjLb1xKZu8kLgCA-390" vertex="1">
          <mxGeometry width="100" height="100" as="geometry"/>
        </mxCell>
        <mxCell id="NBViREjLb1xKZu8kLgCA-392" value="" style="html=1;shadow=0;dashed=0;align=center;verticalAlign=middle;shape=mxgraph.arrows2.uTurnArrow;dy=3.03;arrowHead=19.28;dx2=10.64;" parent="NBViREjLb1xKZu8kLgCA-390" vertex="1">
          <mxGeometry x="20" y="32.5" width="30" height="30" as="geometry"/>
        </mxCell>
        <mxCell id="NBViREjLb1xKZu8kLgCA-393" value="" style="html=1;shadow=0;dashed=0;align=center;verticalAlign=middle;shape=mxgraph.arrows2.uTurnArrow;dy=3.03;arrowHead=19.28;dx2=10.64;rotation=180;" parent="NBViREjLb1xKZu8kLgCA-390" vertex="1">
          <mxGeometry x="50" y="37.5" width="30" height="30" as="geometry"/>
        </mxCell>
        <mxCell id="NBViREjLb1xKZu8kLgCA-394" value="" style="group" parent="1" vertex="1" connectable="0">
          <mxGeometry x="890" y="1930" width="100" height="100" as="geometry"/>
        </mxCell>
        <mxCell id="NBViREjLb1xKZu8kLgCA-395" value="" style="strokeWidth=2;html=1;shape=mxgraph.flowchart.decision;whiteSpace=wrap;fillColor=#ffe6cc;strokeColor=#d79b00;" parent="NBViREjLb1xKZu8kLgCA-394" vertex="1">
          <mxGeometry width="100" height="100" as="geometry"/>
        </mxCell>
        <mxCell id="NBViREjLb1xKZu8kLgCA-396" value="" style="html=1;shadow=0;dashed=0;align=center;verticalAlign=middle;shape=mxgraph.arrows2.uTurnArrow;dy=3.03;arrowHead=19.28;dx2=10.64;" parent="NBViREjLb1xKZu8kLgCA-394" vertex="1">
          <mxGeometry x="20" y="32.5" width="30" height="30" as="geometry"/>
        </mxCell>
        <mxCell id="NBViREjLb1xKZu8kLgCA-397" value="" style="html=1;shadow=0;dashed=0;align=center;verticalAlign=middle;shape=mxgraph.arrows2.uTurnArrow;dy=3.03;arrowHead=19.28;dx2=10.64;rotation=180;" parent="NBViREjLb1xKZu8kLgCA-394" vertex="1">
          <mxGeometry x="50" y="37.5" width="30" height="30" as="geometry"/>
        </mxCell>
        <mxCell id="NBViREjLb1xKZu8kLgCA-398" value="" style="group" parent="1" vertex="1" connectable="0">
          <mxGeometry x="900" y="2050" width="80" height="80" as="geometry"/>
        </mxCell>
        <mxCell id="NBViREjLb1xKZu8kLgCA-399" value="" style="ellipse;whiteSpace=wrap;html=1;aspect=fixed;fillColor=#ffe6cc;strokeColor=#d79b00;" parent="NBViREjLb1xKZu8kLgCA-398" vertex="1">
          <mxGeometry width="80" height="80" as="geometry"/>
        </mxCell>
        <mxCell id="NBViREjLb1xKZu8kLgCA-400" value="" style="shape=flexArrow;endArrow=classic;html=1;fillColor=#ffffff;" parent="NBViREjLb1xKZu8kLgCA-398" edge="1">
          <mxGeometry width="50" height="50" relative="1" as="geometry">
            <mxPoint x="20" y="40" as="sourcePoint"/>
            <mxPoint x="60" y="40" as="targetPoint"/>
          </mxGeometry>
        </mxCell>
        <mxCell id="NBViREjLb1xKZu8kLgCA-401" value="" style="group" parent="1" vertex="1" connectable="0">
          <mxGeometry x="800" y="2167" width="120" height="138" as="geometry"/>
        </mxCell>
        <mxCell id="NBViREjLb1xKZu8kLgCA-402" value="" style="group" parent="NBViREjLb1xKZu8kLgCA-401" vertex="1" connectable="0">
          <mxGeometry x="10" width="100" height="100" as="geometry"/>
        </mxCell>
        <mxCell id="NBViREjLb1xKZu8kLgCA-403" value="" style="strokeWidth=2;html=1;shape=mxgraph.flowchart.decision;whiteSpace=wrap;fontSize=18;fillColor=#ffe6cc;strokeColor=#d79b00;" parent="NBViREjLb1xKZu8kLgCA-402" vertex="1">
          <mxGeometry width="100" height="100" as="geometry"/>
        </mxCell>
        <mxCell id="NBViREjLb1xKZu8kLgCA-404" value="" style="html=1;verticalLabelPosition=bottom;align=center;labelBackgroundColor=#ffffff;verticalAlign=top;strokeWidth=2;strokeColor=#333333;shadow=0;dashed=0;shape=mxgraph.ios7.icons.alarm_clock;fontSize=18;" parent="NBViREjLb1xKZu8kLgCA-402" vertex="1">
          <mxGeometry x="36.5" y="35" width="27" height="30" as="geometry"/>
        </mxCell>
        <mxCell id="NBViREjLb1xKZu8kLgCA-405" value="Wait 1 sec" style="rounded=0;whiteSpace=wrap;html=1;strokeColor=#d79b00;strokeWidth=2;fontSize=18;fillColor=#ffe6cc;" parent="NBViREjLb1xKZu8kLgCA-401" vertex="1">
          <mxGeometry y="78" width="120" height="60" as="geometry"/>
        </mxCell>
        <mxCell id="NBViREjLb1xKZu8kLgCA-408" value="" style="group" parent="1" vertex="1" connectable="0">
          <mxGeometry x="980" y="2167" width="120" height="60" as="geometry"/>
        </mxCell>
        <mxCell id="NBViREjLb1xKZu8kLgCA-418" value="" style="group" parent="NBViREjLb1xKZu8kLgCA-408" vertex="1" connectable="0">
          <mxGeometry width="120" height="60" as="geometry"/>
        </mxCell>
        <mxCell id="NBViREjLb1xKZu8kLgCA-409" value="" style="rounded=0;whiteSpace=wrap;html=1;fontSize=18;fillColor=#ffe6cc;strokeColor=#d79b00;" parent="NBViREjLb1xKZu8kLgCA-418" vertex="1">
          <mxGeometry width="120" height="60" as="geometry"/>
        </mxCell>
        <mxCell id="NBViREjLb1xKZu8kLgCA-410" value="Heal patient?" style="text;html=1;strokeColor=none;fillColor=none;align=center;verticalAlign=middle;whiteSpace=wrap;rounded=0;fontSize=18;" parent="NBViREjLb1xKZu8kLgCA-418" vertex="1">
          <mxGeometry x="40" y="20" width="40" height="20" as="geometry"/>
        </mxCell>
        <mxCell id="NBViREjLb1xKZu8kLgCA-411" value="" style="group" parent="1" vertex="1" connectable="0">
          <mxGeometry x="990" y="2257" width="100" height="80" as="geometry"/>
        </mxCell>
        <mxCell id="NBViREjLb1xKZu8kLgCA-412" value="" style="shape=loopLimit;whiteSpace=wrap;html=1;fillColor=#ffe6cc;strokeColor=#d79b00;strokeWidth=2;" parent="NBViREjLb1xKZu8kLgCA-411" vertex="1">
          <mxGeometry width="100" height="80" as="geometry"/>
        </mxCell>
        <mxCell id="NBViREjLb1xKZu8kLgCA-413" value="Set Idle" style="text;html=1;strokeColor=none;fillColor=none;align=center;verticalAlign=middle;whiteSpace=wrap;rounded=0;fontStyle=1;fontSize=18;" parent="NBViREjLb1xKZu8kLgCA-411" vertex="1">
          <mxGeometry x="30" y="35" width="40" height="20" as="geometry"/>
        </mxCell>
        <mxCell id="NBViREjLb1xKZu8kLgCA-419" value="" style="group" parent="1" vertex="1" connectable="0">
          <mxGeometry x="1150" y="1910" width="120" height="60" as="geometry"/>
        </mxCell>
        <mxCell id="NBViREjLb1xKZu8kLgCA-420" value="" style="rounded=0;whiteSpace=wrap;html=1;fontSize=18;fillColor=#ffe6cc;strokeColor=#d79b00;" parent="NBViREjLb1xKZu8kLgCA-419" vertex="1">
          <mxGeometry width="120" height="60" as="geometry"/>
        </mxCell>
        <mxCell id="NBViREjLb1xKZu8kLgCA-421" value="Patient Lost?" style="text;html=1;strokeColor=none;fillColor=none;align=center;verticalAlign=middle;whiteSpace=wrap;rounded=0;fontSize=18;" parent="NBViREjLb1xKZu8kLgCA-419" vertex="1">
          <mxGeometry x="40" y="20" width="40" height="20" as="geometry"/>
        </mxCell>
        <mxCell id="NBViREjLb1xKZu8kLgCA-423" value="" style="endArrow=classic;html=1;exitX=0;exitY=1;exitDx=0;exitDy=0;entryX=0.5;entryY=0;entryDx=0;entryDy=0;" parent="1" source="NBViREjLb1xKZu8kLgCA-364" target="NBViREjLb1xKZu8kLgCA-373" edge="1">
          <mxGeometry width="50" height="50" relative="1" as="geometry">
            <mxPoint x="830" y="1570" as="sourcePoint"/>
            <mxPoint x="880" y="1520" as="targetPoint"/>
          </mxGeometry>
        </mxCell>
        <mxCell id="NBViREjLb1xKZu8kLgCA-424" value="" style="endArrow=classic;html=1;exitX=0.5;exitY=1;exitDx=0;exitDy=0;entryX=0.5;entryY=0;entryDx=0;entryDy=0;" parent="1" source="NBViREjLb1xKZu8kLgCA-364" target="NBViREjLb1xKZu8kLgCA-381" edge="1">
          <mxGeometry width="50" height="50" relative="1" as="geometry">
            <mxPoint x="1060" y="1720" as="sourcePoint"/>
            <mxPoint x="1110" y="1670" as="targetPoint"/>
          </mxGeometry>
        </mxCell>
        <mxCell id="NBViREjLb1xKZu8kLgCA-425" value="" style="endArrow=classic;html=1;exitX=1;exitY=1;exitDx=0;exitDy=0;entryX=0.5;entryY=0;entryDx=0;entryDy=0;" parent="1" source="NBViREjLb1xKZu8kLgCA-364" target="NBViREjLb1xKZu8kLgCA-370" edge="1">
          <mxGeometry width="50" height="50" relative="1" as="geometry">
            <mxPoint x="1210" y="1590" as="sourcePoint"/>
            <mxPoint x="1260" y="1540" as="targetPoint"/>
          </mxGeometry>
        </mxCell>
        <mxCell id="NBViREjLb1xKZu8kLgCA-426" style="edgeStyle=orthogonalEdgeStyle;rounded=0;orthogonalLoop=1;jettySize=auto;html=1;exitX=0.5;exitY=1;exitDx=0;exitDy=0;entryX=0.5;entryY=0;entryDx=0;entryDy=0;" parent="1" source="NBViREjLb1xKZu8kLgCA-349" target="NBViREjLb1xKZu8kLgCA-364" edge="1">
          <mxGeometry relative="1" as="geometry"/>
        </mxCell>
        <mxCell id="NBViREjLb1xKZu8kLgCA-427" value="" style="endArrow=classic;html=1;exitX=0;exitY=1;exitDx=0;exitDy=0;entryX=0.5;entryY=0;entryDx=0;entryDy=0;entryPerimeter=0;" parent="1" source="NBViREjLb1xKZu8kLgCA-381" target="NBViREjLb1xKZu8kLgCA-387" edge="1">
          <mxGeometry width="50" height="50" relative="1" as="geometry">
            <mxPoint x="1110" y="1870" as="sourcePoint"/>
            <mxPoint x="1160" y="1820" as="targetPoint"/>
          </mxGeometry>
        </mxCell>
        <mxCell id="NBViREjLb1xKZu8kLgCA-428" value="" style="endArrow=classic;html=1;exitX=1;exitY=1;exitDx=0;exitDy=0;entryX=0.5;entryY=0;entryDx=0;entryDy=0;entryPerimeter=0;" parent="1" source="NBViREjLb1xKZu8kLgCA-381" target="NBViREjLb1xKZu8kLgCA-391" edge="1">
          <mxGeometry width="50" height="50" relative="1" as="geometry">
            <mxPoint x="1120" y="1890" as="sourcePoint"/>
            <mxPoint x="1170" y="1840" as="targetPoint"/>
          </mxGeometry>
        </mxCell>
        <mxCell id="NBViREjLb1xKZu8kLgCA-429" style="edgeStyle=orthogonalEdgeStyle;rounded=0;orthogonalLoop=1;jettySize=auto;html=1;exitX=0.5;exitY=1;exitDx=0;exitDy=0;entryX=0.5;entryY=0;entryDx=0;entryDy=0;entryPerimeter=0;" parent="1" source="NBViREjLb1xKZu8kLgCA-389" target="NBViREjLb1xKZu8kLgCA-395" edge="1">
          <mxGeometry relative="1" as="geometry"/>
        </mxCell>
        <mxCell id="NBViREjLb1xKZu8kLgCA-430" style="edgeStyle=orthogonalEdgeStyle;rounded=0;orthogonalLoop=1;jettySize=auto;html=1;exitX=0.5;exitY=1;exitDx=0;exitDy=0;exitPerimeter=0;entryX=0.5;entryY=0;entryDx=0;entryDy=0;" parent="1" source="NBViREjLb1xKZu8kLgCA-395" target="NBViREjLb1xKZu8kLgCA-399" edge="1">
          <mxGeometry relative="1" as="geometry"/>
        </mxCell>
        <mxCell id="NBViREjLb1xKZu8kLgCA-431" style="edgeStyle=orthogonalEdgeStyle;rounded=0;orthogonalLoop=1;jettySize=auto;html=1;exitX=0.5;exitY=1;exitDx=0;exitDy=0;exitPerimeter=0;entryX=0.5;entryY=0;entryDx=0;entryDy=0;" parent="1" source="NBViREjLb1xKZu8kLgCA-391" target="NBViREjLb1xKZu8kLgCA-420" edge="1">
          <mxGeometry relative="1" as="geometry"/>
        </mxCell>
        <mxCell id="NBViREjLb1xKZu8kLgCA-432" value="" style="endArrow=classic;html=1;exitX=0.5;exitY=1;exitDx=0;exitDy=0;entryX=0.5;entryY=0;entryDx=0;entryDy=0;entryPerimeter=0;" parent="1" source="NBViREjLb1xKZu8kLgCA-399" target="NBViREjLb1xKZu8kLgCA-403" edge="1">
          <mxGeometry width="50" height="50" relative="1" as="geometry">
            <mxPoint x="930" y="2220" as="sourcePoint"/>
            <mxPoint x="980" y="2170" as="targetPoint"/>
          </mxGeometry>
        </mxCell>
        <mxCell id="NBViREjLb1xKZu8kLgCA-433" value="" style="endArrow=classic;html=1;exitX=0.5;exitY=1;exitDx=0;exitDy=0;entryX=0.5;entryY=0;entryDx=0;entryDy=0;" parent="1" source="NBViREjLb1xKZu8kLgCA-399" target="NBViREjLb1xKZu8kLgCA-409" edge="1">
          <mxGeometry width="50" height="50" relative="1" as="geometry">
            <mxPoint x="1000" y="2180" as="sourcePoint"/>
            <mxPoint x="1050" y="2130" as="targetPoint"/>
          </mxGeometry>
        </mxCell>
        <mxCell id="NBViREjLb1xKZu8kLgCA-434" style="edgeStyle=orthogonalEdgeStyle;rounded=0;orthogonalLoop=1;jettySize=auto;html=1;exitX=0.5;exitY=1;exitDx=0;exitDy=0;entryX=0.5;entryY=0;entryDx=0;entryDy=0;" parent="1" source="NBViREjLb1xKZu8kLgCA-409" target="NBViREjLb1xKZu8kLgCA-412" edge="1">
          <mxGeometry relative="1" as="geometry"/>
        </mxCell>
        <mxCell id="NBViREjLb1xKZu8kLgCA-435" value="" style="endArrow=classic;html=1;exitX=0.5;exitY=1;exitDx=0;exitDy=0;entryX=0.5;entryY=0;entryDx=0;entryDy=0;" parent="1" source="NBViREjLb1xKZu8kLgCA-34" target="NBViREjLb1xKZu8kLgCA-336" edge="1">
          <mxGeometry width="50" height="50" relative="1" as="geometry">
            <mxPoint x="490" y="920" as="sourcePoint"/>
            <mxPoint x="540" y="870" as="targetPoint"/>
          </mxGeometry>
        </mxCell>
        <mxCell id="NBViREjLb1xKZu8kLgCA-436" value="" style="group" parent="1" vertex="1" connectable="0">
          <mxGeometry x="1594" y="1030" width="120" height="60" as="geometry"/>
        </mxCell>
        <mxCell id="NBViREjLb1xKZu8kLgCA-437" value="" style="group" parent="NBViREjLb1xKZu8kLgCA-436" vertex="1" connectable="0">
          <mxGeometry width="120" height="60" as="geometry"/>
        </mxCell>
        <mxCell id="NBViREjLb1xKZu8kLgCA-438" value="" style="rounded=0;whiteSpace=wrap;html=1;fontSize=18;fillColor=#ffe6cc;strokeColor=#d79b00;" parent="NBViREjLb1xKZu8kLgCA-437" vertex="1">
          <mxGeometry width="120" height="60" as="geometry"/>
        </mxCell>
        <mxCell id="NBViREjLb1xKZu8kLgCA-439" value="Event Cooking?" style="text;html=1;strokeColor=none;fillColor=none;align=center;verticalAlign=middle;whiteSpace=wrap;rounded=0;fontSize=18;" parent="NBViREjLb1xKZu8kLgCA-437" vertex="1">
          <mxGeometry x="40" y="20" width="40" height="20" as="geometry"/>
        </mxCell>
        <mxCell id="NBViREjLb1xKZu8kLgCA-441" value="" style="group" parent="1" vertex="1" connectable="0">
          <mxGeometry x="1460" y="1270" width="100" height="80" as="geometry"/>
        </mxCell>
        <mxCell id="NBViREjLb1xKZu8kLgCA-442" value="" style="shape=loopLimit;whiteSpace=wrap;html=1;fillColor=#ffe6cc;strokeColor=#d79b00;strokeWidth=2;" parent="NBViREjLb1xKZu8kLgCA-441" vertex="1">
          <mxGeometry width="100" height="80" as="geometry"/>
        </mxCell>
        <mxCell id="NBViREjLb1xKZu8kLgCA-443" value="Find Cooking Spot" style="text;html=1;strokeColor=none;fillColor=none;align=center;verticalAlign=middle;whiteSpace=wrap;rounded=0;fontStyle=1;fontSize=18;" parent="NBViREjLb1xKZu8kLgCA-441" vertex="1">
          <mxGeometry x="30" y="35" width="40" height="20" as="geometry"/>
        </mxCell>
        <mxCell id="NBViREjLb1xKZu8kLgCA-447" value="" style="group" parent="1" vertex="1" connectable="0">
          <mxGeometry x="1614" y="1128.5" width="80" height="80" as="geometry"/>
        </mxCell>
        <mxCell id="NBViREjLb1xKZu8kLgCA-448" value="" style="ellipse;whiteSpace=wrap;html=1;aspect=fixed;fillColor=#ffe6cc;strokeColor=#d79b00;" parent="NBViREjLb1xKZu8kLgCA-447" vertex="1">
          <mxGeometry width="80" height="80" as="geometry"/>
        </mxCell>
        <mxCell id="NBViREjLb1xKZu8kLgCA-449" value="" style="shape=flexArrow;endArrow=classic;html=1;fillColor=#ffffff;" parent="NBViREjLb1xKZu8kLgCA-447" edge="1">
          <mxGeometry width="50" height="50" relative="1" as="geometry">
            <mxPoint x="20" y="40" as="sourcePoint"/>
            <mxPoint x="60" y="40" as="targetPoint"/>
          </mxGeometry>
        </mxCell>
        <mxCell id="NBViREjLb1xKZu8kLgCA-450" value="" style="group" parent="1" vertex="1" connectable="0">
          <mxGeometry x="1602.5" y="1270" width="100" height="80" as="geometry"/>
        </mxCell>
        <mxCell id="NBViREjLb1xKZu8kLgCA-451" value="" style="shape=loopLimit;whiteSpace=wrap;html=1;fillColor=#ffe6cc;strokeColor=#d79b00;strokeWidth=2;" parent="NBViREjLb1xKZu8kLgCA-450" vertex="1">
          <mxGeometry width="100" height="80" as="geometry"/>
        </mxCell>
        <mxCell id="NBViREjLb1xKZu8kLgCA-452" value="Start Walking" style="text;html=1;strokeColor=none;fillColor=none;align=center;verticalAlign=middle;whiteSpace=wrap;rounded=0;fontStyle=1;fontSize=18;" parent="NBViREjLb1xKZu8kLgCA-450" vertex="1">
          <mxGeometry x="30" y="35" width="40" height="20" as="geometry"/>
        </mxCell>
        <mxCell id="NBViREjLb1xKZu8kLgCA-453" value="" style="group" parent="1" vertex="1" connectable="0">
          <mxGeometry x="1737" y="1270" width="120" height="138" as="geometry"/>
        </mxCell>
        <mxCell id="NBViREjLb1xKZu8kLgCA-454" value="" style="group" parent="NBViREjLb1xKZu8kLgCA-453" vertex="1" connectable="0">
          <mxGeometry x="10" width="100" height="100" as="geometry"/>
        </mxCell>
        <mxCell id="NBViREjLb1xKZu8kLgCA-455" value="" style="strokeWidth=2;html=1;shape=mxgraph.flowchart.decision;whiteSpace=wrap;fontSize=18;fillColor=#ffe6cc;strokeColor=#d79b00;" parent="NBViREjLb1xKZu8kLgCA-454" vertex="1">
          <mxGeometry width="100" height="100" as="geometry"/>
        </mxCell>
        <mxCell id="NBViREjLb1xKZu8kLgCA-456" value="" style="html=1;verticalLabelPosition=bottom;align=center;labelBackgroundColor=#ffffff;verticalAlign=top;strokeWidth=2;strokeColor=#333333;shadow=0;dashed=0;shape=mxgraph.ios7.icons.alarm_clock;fontSize=18;" parent="NBViREjLb1xKZu8kLgCA-454" vertex="1">
          <mxGeometry x="36.5" y="35" width="27" height="30" as="geometry"/>
        </mxCell>
        <mxCell id="NBViREjLb1xKZu8kLgCA-457" value="Until Finished Path?" style="rounded=0;whiteSpace=wrap;html=1;strokeColor=#d79b00;strokeWidth=2;fontSize=18;fillColor=#ffe6cc;" parent="NBViREjLb1xKZu8kLgCA-453" vertex="1">
          <mxGeometry y="78" width="120" height="60" as="geometry"/>
        </mxCell>
        <mxCell id="NBViREjLb1xKZu8kLgCA-470" value="" style="group" parent="1" vertex="1" connectable="0">
          <mxGeometry x="1517" y="1670" width="110" height="138.5" as="geometry"/>
        </mxCell>
        <mxCell id="NBViREjLb1xKZu8kLgCA-471" value="" style="strokeWidth=2;html=1;shape=mxgraph.flowchart.decision;whiteSpace=wrap;fillColor=#ffe6cc;strokeColor=#d79b00;" parent="NBViREjLb1xKZu8kLgCA-470" vertex="1">
          <mxGeometry width="100" height="100" as="geometry"/>
        </mxCell>
        <mxCell id="NBViREjLb1xKZu8kLgCA-472" value="" style="html=1;shadow=0;dashed=0;align=center;verticalAlign=middle;shape=mxgraph.arrows2.uTurnArrow;dy=3.03;arrowHead=19.28;dx2=10.64;" parent="NBViREjLb1xKZu8kLgCA-470" vertex="1">
          <mxGeometry x="20" y="32.5" width="30" height="30" as="geometry"/>
        </mxCell>
        <mxCell id="NBViREjLb1xKZu8kLgCA-473" value="" style="html=1;shadow=0;dashed=0;align=center;verticalAlign=middle;shape=mxgraph.arrows2.uTurnArrow;dy=3.03;arrowHead=19.28;dx2=10.64;rotation=180;" parent="NBViREjLb1xKZu8kLgCA-470" vertex="1">
          <mxGeometry x="50" y="37.5" width="30" height="30" as="geometry"/>
        </mxCell>
        <mxCell id="NBViREjLb1xKZu8kLgCA-483" value="" style="group" parent="NBViREjLb1xKZu8kLgCA-470" vertex="1" connectable="0">
          <mxGeometry x="-10" y="78.5" width="120" height="60" as="geometry"/>
        </mxCell>
        <mxCell id="NBViREjLb1xKZu8kLgCA-484" value="" style="group" parent="NBViREjLb1xKZu8kLgCA-483" vertex="1" connectable="0">
          <mxGeometry width="120" height="60" as="geometry"/>
        </mxCell>
        <mxCell id="NBViREjLb1xKZu8kLgCA-485" value="" style="rounded=0;whiteSpace=wrap;html=1;fontSize=18;fillColor=#ffe6cc;strokeColor=#d79b00;" parent="NBViREjLb1xKZu8kLgCA-484" vertex="1">
          <mxGeometry width="120" height="60" as="geometry"/>
        </mxCell>
        <mxCell id="NBViREjLb1xKZu8kLgCA-486" value="20 times" style="text;html=1;strokeColor=none;fillColor=none;align=center;verticalAlign=middle;whiteSpace=wrap;rounded=0;fontSize=18;" parent="NBViREjLb1xKZu8kLgCA-484" vertex="1">
          <mxGeometry x="40" y="20" width="40" height="20" as="geometry"/>
        </mxCell>
        <mxCell id="NBViREjLb1xKZu8kLgCA-487" value="" style="group" parent="1" vertex="1" connectable="0">
          <mxGeometry x="1527" y="1825" width="80" height="80" as="geometry"/>
        </mxCell>
        <mxCell id="NBViREjLb1xKZu8kLgCA-488" value="" style="ellipse;whiteSpace=wrap;html=1;aspect=fixed;fillColor=#ffe6cc;strokeColor=#d79b00;" parent="NBViREjLb1xKZu8kLgCA-487" vertex="1">
          <mxGeometry width="80" height="80" as="geometry"/>
        </mxCell>
        <mxCell id="NBViREjLb1xKZu8kLgCA-489" value="" style="shape=flexArrow;endArrow=classic;html=1;fillColor=#ffffff;" parent="NBViREjLb1xKZu8kLgCA-487" edge="1">
          <mxGeometry width="50" height="50" relative="1" as="geometry">
            <mxPoint x="20" y="40" as="sourcePoint"/>
            <mxPoint x="60" y="40" as="targetPoint"/>
          </mxGeometry>
        </mxCell>
        <mxCell id="NBViREjLb1xKZu8kLgCA-490" value="" style="group" parent="1" vertex="1" connectable="0">
          <mxGeometry x="1350" y="1930" width="120" height="138" as="geometry"/>
        </mxCell>
        <mxCell id="NBViREjLb1xKZu8kLgCA-491" value="" style="group" parent="NBViREjLb1xKZu8kLgCA-490" vertex="1" connectable="0">
          <mxGeometry x="10" width="100" height="100" as="geometry"/>
        </mxCell>
        <mxCell id="NBViREjLb1xKZu8kLgCA-492" value="" style="strokeWidth=2;html=1;shape=mxgraph.flowchart.decision;whiteSpace=wrap;fontSize=18;fillColor=#ffe6cc;strokeColor=#d79b00;" parent="NBViREjLb1xKZu8kLgCA-491" vertex="1">
          <mxGeometry width="100" height="100" as="geometry"/>
        </mxCell>
        <mxCell id="NBViREjLb1xKZu8kLgCA-493" value="" style="html=1;verticalLabelPosition=bottom;align=center;labelBackgroundColor=#ffffff;verticalAlign=top;strokeWidth=2;strokeColor=#333333;shadow=0;dashed=0;shape=mxgraph.ios7.icons.alarm_clock;fontSize=18;" parent="NBViREjLb1xKZu8kLgCA-491" vertex="1">
          <mxGeometry x="36.5" y="35" width="27" height="30" as="geometry"/>
        </mxCell>
        <mxCell id="NBViREjLb1xKZu8kLgCA-494" value="Wait 1 sec" style="rounded=0;whiteSpace=wrap;html=1;strokeColor=#d79b00;strokeWidth=2;fontSize=18;fillColor=#ffe6cc;" parent="NBViREjLb1xKZu8kLgCA-490" vertex="1">
          <mxGeometry y="78" width="120" height="60" as="geometry"/>
        </mxCell>
        <mxCell id="NBViREjLb1xKZu8kLgCA-495" value="" style="group" parent="1" vertex="1" connectable="0">
          <mxGeometry x="1517" y="1930" width="100" height="80" as="geometry"/>
        </mxCell>
        <mxCell id="NBViREjLb1xKZu8kLgCA-496" value="" style="shape=loopLimit;whiteSpace=wrap;html=1;fillColor=#ffe6cc;strokeColor=#d79b00;strokeWidth=2;" parent="NBViREjLb1xKZu8kLgCA-495" vertex="1">
          <mxGeometry width="100" height="80" as="geometry"/>
        </mxCell>
        <mxCell id="NBViREjLb1xKZu8kLgCA-497" value="-1 Ingredients" style="text;html=1;strokeColor=none;fillColor=none;align=center;verticalAlign=middle;whiteSpace=wrap;rounded=0;fontStyle=1;fontSize=18;" parent="NBViREjLb1xKZu8kLgCA-495" vertex="1">
          <mxGeometry x="30" y="35" width="40" height="20" as="geometry"/>
        </mxCell>
        <mxCell id="NBViREjLb1xKZu8kLgCA-498" value="" style="group" parent="1" vertex="1" connectable="0">
          <mxGeometry x="1657" y="1930" width="100" height="80" as="geometry"/>
        </mxCell>
        <mxCell id="NBViREjLb1xKZu8kLgCA-499" value="" style="shape=loopLimit;whiteSpace=wrap;html=1;fillColor=#ffe6cc;strokeColor=#d79b00;strokeWidth=2;" parent="NBViREjLb1xKZu8kLgCA-498" vertex="1">
          <mxGeometry width="100" height="80" as="geometry"/>
        </mxCell>
        <mxCell id="NBViREjLb1xKZu8kLgCA-500" value="+1 Food" style="text;html=1;strokeColor=none;fillColor=none;align=center;verticalAlign=middle;whiteSpace=wrap;rounded=0;fontStyle=1;fontSize=18;direction=south;" parent="NBViREjLb1xKZu8kLgCA-498" vertex="1">
          <mxGeometry x="40" y="25" width="20" height="40" as="geometry"/>
        </mxCell>
        <mxCell id="NBViREjLb1xKZu8kLgCA-501" value="" style="endArrow=classic;html=1;exitX=0.5;exitY=1;exitDx=0;exitDy=0;entryX=0.5;entryY=0;entryDx=0;entryDy=0;" parent="1" source="NBViREjLb1xKZu8kLgCA-448" target="NBViREjLb1xKZu8kLgCA-442" edge="1">
          <mxGeometry width="50" height="50" relative="1" as="geometry">
            <mxPoint x="1860" y="1130" as="sourcePoint"/>
            <mxPoint x="1910" y="1080" as="targetPoint"/>
          </mxGeometry>
        </mxCell>
        <mxCell id="NBViREjLb1xKZu8kLgCA-502" value="" style="endArrow=classic;html=1;exitX=0.5;exitY=1;exitDx=0;exitDy=0;entryX=0.5;entryY=0;entryDx=0;entryDy=0;entryPerimeter=0;" parent="1" source="NBViREjLb1xKZu8kLgCA-448" target="NBViREjLb1xKZu8kLgCA-455" edge="1">
          <mxGeometry width="50" height="50" relative="1" as="geometry">
            <mxPoint x="1770" y="1220" as="sourcePoint"/>
            <mxPoint x="1789.999999999999" y="1240" as="targetPoint"/>
          </mxGeometry>
        </mxCell>
        <mxCell id="NBViREjLb1xKZu8kLgCA-510" style="edgeStyle=orthogonalEdgeStyle;rounded=0;orthogonalLoop=1;jettySize=auto;html=1;exitX=0.5;exitY=1;exitDx=0;exitDy=0;entryX=0.5;entryY=0;entryDx=0;entryDy=0;" parent="1" source="NBViREjLb1xKZu8kLgCA-485" target="NBViREjLb1xKZu8kLgCA-488" edge="1">
          <mxGeometry relative="1" as="geometry"/>
        </mxCell>
        <mxCell id="NBViREjLb1xKZu8kLgCA-511" value="" style="endArrow=classic;html=1;exitX=0.5;exitY=1;exitDx=0;exitDy=0;entryX=0.5;entryY=0;entryDx=0;entryDy=0;entryPerimeter=0;" parent="1" source="NBViREjLb1xKZu8kLgCA-488" target="NBViREjLb1xKZu8kLgCA-492" edge="1">
          <mxGeometry width="50" height="50" relative="1" as="geometry">
            <mxPoint x="1387" y="1980" as="sourcePoint"/>
            <mxPoint x="1437" y="1930" as="targetPoint"/>
          </mxGeometry>
        </mxCell>
        <mxCell id="NBViREjLb1xKZu8kLgCA-512" value="" style="endArrow=classic;html=1;exitX=0.5;exitY=1;exitDx=0;exitDy=0;entryX=0.5;entryY=0;entryDx=0;entryDy=0;" parent="1" source="NBViREjLb1xKZu8kLgCA-488" target="NBViREjLb1xKZu8kLgCA-496" edge="1">
          <mxGeometry width="50" height="50" relative="1" as="geometry">
            <mxPoint x="1717" y="1970" as="sourcePoint"/>
            <mxPoint x="1767" y="1920" as="targetPoint"/>
          </mxGeometry>
        </mxCell>
        <mxCell id="NBViREjLb1xKZu8kLgCA-513" value="" style="endArrow=classic;html=1;exitX=0.5;exitY=1;exitDx=0;exitDy=0;entryX=0.5;entryY=0;entryDx=0;entryDy=0;" parent="1" source="NBViREjLb1xKZu8kLgCA-488" target="NBViREjLb1xKZu8kLgCA-499" edge="1">
          <mxGeometry width="50" height="50" relative="1" as="geometry">
            <mxPoint x="1647" y="1980" as="sourcePoint"/>
            <mxPoint x="1697" y="1930" as="targetPoint"/>
          </mxGeometry>
        </mxCell>
        <mxCell id="NBViREjLb1xKZu8kLgCA-514" value="" style="endArrow=classic;html=1;exitX=0.5;exitY=1;exitDx=0;exitDy=0;entryX=0.5;entryY=0;entryDx=0;entryDy=0;" parent="1" source="NBViREjLb1xKZu8kLgCA-34" target="NBViREjLb1xKZu8kLgCA-438" edge="1">
          <mxGeometry width="50" height="50" relative="1" as="geometry">
            <mxPoint x="110" y="800" as="sourcePoint"/>
            <mxPoint x="1240" y="900" as="targetPoint"/>
            <Array as="points">
              <mxPoint x="1650" y="980"/>
            </Array>
          </mxGeometry>
        </mxCell>
        <mxCell id="NBViREjLb1xKZu8kLgCA-515" style="edgeStyle=orthogonalEdgeStyle;rounded=0;orthogonalLoop=1;jettySize=auto;html=1;exitX=0.5;exitY=1;exitDx=0;exitDy=0;entryX=0.5;entryY=0;entryDx=0;entryDy=0;" parent="1" source="NBViREjLb1xKZu8kLgCA-438" target="NBViREjLb1xKZu8kLgCA-448" edge="1">
          <mxGeometry relative="1" as="geometry"/>
        </mxCell>
        <mxCell id="NBViREjLb1xKZu8kLgCA-516" value="Subtree NEEDS_TREE" style="shape=process;whiteSpace=wrap;html=1;backgroundOutline=1;strokeWidth=2;fontSize=18;fillColor=#dae8fc;strokeColor=#6c8ebf;" parent="1" vertex="1">
          <mxGeometry x="1894" y="1030" width="262" height="60" as="geometry"/>
        </mxCell>
        <mxCell id="NBViREjLb1xKZu8kLgCA-517" value="" style="endArrow=classic;html=1;exitX=0.5;exitY=1;exitDx=0;exitDy=0;entryX=0.5;entryY=0;entryDx=0;entryDy=0;" parent="1" source="NBViREjLb1xKZu8kLgCA-34" target="NBViREjLb1xKZu8kLgCA-516" edge="1">
          <mxGeometry width="50" height="50" relative="1" as="geometry">
            <mxPoint y="790" as="sourcePoint"/>
            <mxPoint x="700" y="740" as="targetPoint"/>
            <Array as="points">
              <mxPoint x="2000" y="960"/>
            </Array>
          </mxGeometry>
        </mxCell>
        <mxCell id="NBViREjLb1xKZu8kLgCA-518" value="" style="group" parent="1" vertex="1" connectable="0">
          <mxGeometry x="2400" y="1020" width="80" height="80" as="geometry"/>
        </mxCell>
        <mxCell id="NBViREjLb1xKZu8kLgCA-519" value="" style="ellipse;whiteSpace=wrap;html=1;aspect=fixed;fillColor=#ffe6cc;strokeColor=#d79b00;" parent="NBViREjLb1xKZu8kLgCA-518" vertex="1">
          <mxGeometry width="80" height="80" as="geometry"/>
        </mxCell>
        <mxCell id="NBViREjLb1xKZu8kLgCA-520" value="" style="shape=flexArrow;endArrow=classic;html=1;fillColor=#ffffff;" parent="NBViREjLb1xKZu8kLgCA-518" edge="1">
          <mxGeometry width="50" height="50" relative="1" as="geometry">
            <mxPoint x="20" y="40" as="sourcePoint"/>
            <mxPoint x="60" y="40" as="targetPoint"/>
          </mxGeometry>
        </mxCell>
        <mxCell id="NBViREjLb1xKZu8kLgCA-521" value="" style="group" parent="1" vertex="1" connectable="0">
          <mxGeometry x="2200" y="1180" width="100" height="100" as="geometry"/>
        </mxCell>
        <mxCell id="NBViREjLb1xKZu8kLgCA-522" value="" style="strokeWidth=2;html=1;shape=mxgraph.flowchart.decision;whiteSpace=wrap;fillColor=#ffe6cc;strokeColor=#d79b00;" parent="NBViREjLb1xKZu8kLgCA-521" vertex="1">
          <mxGeometry width="100" height="100" as="geometry"/>
        </mxCell>
        <mxCell id="NBViREjLb1xKZu8kLgCA-523" value="" style="html=1;shadow=0;dashed=0;align=center;verticalAlign=middle;shape=mxgraph.arrows2.uTurnArrow;dy=3.03;arrowHead=19.28;dx2=10.64;" parent="NBViREjLb1xKZu8kLgCA-521" vertex="1">
          <mxGeometry x="20" y="32.5" width="30" height="30" as="geometry"/>
        </mxCell>
        <mxCell id="NBViREjLb1xKZu8kLgCA-524" value="" style="html=1;shadow=0;dashed=0;align=center;verticalAlign=middle;shape=mxgraph.arrows2.uTurnArrow;dy=3.03;arrowHead=19.28;dx2=10.64;rotation=180;" parent="NBViREjLb1xKZu8kLgCA-521" vertex="1">
          <mxGeometry x="50" y="37.5" width="30" height="30" as="geometry"/>
        </mxCell>
        <mxCell id="NBViREjLb1xKZu8kLgCA-525" value="" style="group" parent="1" vertex="1" connectable="0">
          <mxGeometry x="2200" y="1330" width="100" height="80" as="geometry"/>
        </mxCell>
        <mxCell id="NBViREjLb1xKZu8kLgCA-526" value="" style="shape=loopLimit;whiteSpace=wrap;html=1;fillColor=#ffe6cc;strokeColor=#d79b00;strokeWidth=2;" parent="NBViREjLb1xKZu8kLgCA-525" vertex="1">
          <mxGeometry width="100" height="80" as="geometry"/>
        </mxCell>
        <mxCell id="NBViREjLb1xKZu8kLgCA-527" value="Find Wander Spot" style="text;html=1;strokeColor=none;fillColor=none;align=center;verticalAlign=middle;whiteSpace=wrap;rounded=0;fontStyle=1;fontSize=18;" parent="NBViREjLb1xKZu8kLgCA-525" vertex="1">
          <mxGeometry x="30" y="35" width="40" height="20" as="geometry"/>
        </mxCell>
        <mxCell id="NBViREjLb1xKZu8kLgCA-528" value="" style="group" parent="1" vertex="1" connectable="0">
          <mxGeometry x="2390" y="1190" width="100" height="80" as="geometry"/>
        </mxCell>
        <mxCell id="NBViREjLb1xKZu8kLgCA-529" value="" style="shape=loopLimit;whiteSpace=wrap;html=1;fillColor=#ffe6cc;strokeColor=#d79b00;strokeWidth=2;" parent="NBViREjLb1xKZu8kLgCA-528" vertex="1">
          <mxGeometry width="100" height="80" as="geometry"/>
        </mxCell>
        <mxCell id="NBViREjLb1xKZu8kLgCA-530" value="Start Walking" style="text;html=1;strokeColor=none;fillColor=none;align=center;verticalAlign=middle;whiteSpace=wrap;rounded=0;fontStyle=1;fontSize=18;" parent="NBViREjLb1xKZu8kLgCA-528" vertex="1">
          <mxGeometry x="30" y="35" width="40" height="20" as="geometry"/>
        </mxCell>
        <mxCell id="NBViREjLb1xKZu8kLgCA-536" value="" style="group" parent="1" vertex="1" connectable="0">
          <mxGeometry x="2569.5" y="1180" width="120" height="138" as="geometry"/>
        </mxCell>
        <mxCell id="NBViREjLb1xKZu8kLgCA-537" value="" style="group" parent="NBViREjLb1xKZu8kLgCA-536" vertex="1" connectable="0">
          <mxGeometry x="10" width="100" height="100" as="geometry"/>
        </mxCell>
        <mxCell id="NBViREjLb1xKZu8kLgCA-538" value="" style="strokeWidth=2;html=1;shape=mxgraph.flowchart.decision;whiteSpace=wrap;fontSize=18;fillColor=#ffe6cc;strokeColor=#d79b00;" parent="NBViREjLb1xKZu8kLgCA-537" vertex="1">
          <mxGeometry width="100" height="100" as="geometry"/>
        </mxCell>
        <mxCell id="NBViREjLb1xKZu8kLgCA-539" value="" style="html=1;verticalLabelPosition=bottom;align=center;labelBackgroundColor=#ffffff;verticalAlign=top;strokeWidth=2;strokeColor=#333333;shadow=0;dashed=0;shape=mxgraph.ios7.icons.alarm_clock;fontSize=18;" parent="NBViREjLb1xKZu8kLgCA-537" vertex="1">
          <mxGeometry x="36.5" y="35" width="27" height="30" as="geometry"/>
        </mxCell>
        <mxCell id="NBViREjLb1xKZu8kLgCA-540" value="Until Finished Path?" style="rounded=0;whiteSpace=wrap;html=1;strokeColor=#d79b00;strokeWidth=2;fontSize=18;fillColor=#ffe6cc;" parent="NBViREjLb1xKZu8kLgCA-536" vertex="1">
          <mxGeometry y="78" width="120" height="60" as="geometry"/>
        </mxCell>
        <mxCell id="NBViREjLb1xKZu8kLgCA-541" value="" style="group" parent="1" vertex="1" connectable="0">
          <mxGeometry x="2589.5" y="1370" width="80" height="80" as="geometry"/>
        </mxCell>
        <mxCell id="NBViREjLb1xKZu8kLgCA-542" value="" style="ellipse;whiteSpace=wrap;html=1;aspect=fixed;fillColor=#ffe6cc;strokeColor=#d79b00;" parent="NBViREjLb1xKZu8kLgCA-541" vertex="1">
          <mxGeometry width="80" height="80" as="geometry"/>
        </mxCell>
        <mxCell id="NBViREjLb1xKZu8kLgCA-543" value="" style="shape=flexArrow;endArrow=classic;html=1;fillColor=#ffffff;" parent="NBViREjLb1xKZu8kLgCA-541" edge="1">
          <mxGeometry width="50" height="50" relative="1" as="geometry">
            <mxPoint x="20" y="40" as="sourcePoint"/>
            <mxPoint x="60" y="40" as="targetPoint"/>
          </mxGeometry>
        </mxCell>
        <mxCell id="NBViREjLb1xKZu8kLgCA-547" value="" style="group" parent="1" vertex="1" connectable="0">
          <mxGeometry x="2569.5" y="1500" width="100" height="80" as="geometry"/>
        </mxCell>
        <mxCell id="NBViREjLb1xKZu8kLgCA-548" value="" style="shape=loopLimit;whiteSpace=wrap;html=1;fillColor=#ffe6cc;strokeColor=#d79b00;strokeWidth=2;" parent="NBViREjLb1xKZu8kLgCA-547" vertex="1">
          <mxGeometry width="100" height="80" as="geometry"/>
        </mxCell>
        <mxCell id="NBViREjLb1xKZu8kLgCA-549" value="Set Waiting" style="text;html=1;strokeColor=none;fillColor=none;align=center;verticalAlign=middle;whiteSpace=wrap;rounded=0;fontStyle=1;fontSize=18;" parent="NBViREjLb1xKZu8kLgCA-547" vertex="1">
          <mxGeometry x="30" y="35" width="40" height="20" as="geometry"/>
        </mxCell>
        <mxCell id="NBViREjLb1xKZu8kLgCA-550" value="" style="group" parent="1" vertex="1" connectable="0">
          <mxGeometry x="2809.5" y="1500" width="100" height="80" as="geometry"/>
        </mxCell>
        <mxCell id="NBViREjLb1xKZu8kLgCA-551" value="" style="shape=loopLimit;whiteSpace=wrap;html=1;fillColor=#ffe6cc;strokeColor=#d79b00;strokeWidth=2;" parent="NBViREjLb1xKZu8kLgCA-550" vertex="1">
          <mxGeometry width="100" height="80" as="geometry"/>
        </mxCell>
        <mxCell id="NBViREjLb1xKZu8kLgCA-552" value="Free my spot" style="text;html=1;strokeColor=none;fillColor=none;align=center;verticalAlign=middle;whiteSpace=wrap;rounded=0;fontStyle=1;fontSize=18;" parent="NBViREjLb1xKZu8kLgCA-550" vertex="1">
          <mxGeometry x="30" y="35" width="40" height="20" as="geometry"/>
        </mxCell>
        <mxCell id="NBViREjLb1xKZu8kLgCA-553" value="" style="group" parent="1" vertex="1" connectable="0">
          <mxGeometry x="2676.5" y="1490" width="120" height="138" as="geometry"/>
        </mxCell>
        <mxCell id="NBViREjLb1xKZu8kLgCA-554" value="" style="group" parent="NBViREjLb1xKZu8kLgCA-553" vertex="1" connectable="0">
          <mxGeometry x="10" width="100" height="100" as="geometry"/>
        </mxCell>
        <mxCell id="NBViREjLb1xKZu8kLgCA-555" value="" style="strokeWidth=2;html=1;shape=mxgraph.flowchart.decision;whiteSpace=wrap;fontSize=18;fillColor=#ffe6cc;strokeColor=#d79b00;" parent="NBViREjLb1xKZu8kLgCA-554" vertex="1">
          <mxGeometry width="100" height="100" as="geometry"/>
        </mxCell>
        <mxCell id="NBViREjLb1xKZu8kLgCA-556" value="" style="html=1;verticalLabelPosition=bottom;align=center;labelBackgroundColor=#ffffff;verticalAlign=top;strokeWidth=2;strokeColor=#333333;shadow=0;dashed=0;shape=mxgraph.ios7.icons.alarm_clock;fontSize=18;" parent="NBViREjLb1xKZu8kLgCA-554" vertex="1">
          <mxGeometry x="36.5" y="35" width="27" height="30" as="geometry"/>
        </mxCell>
        <mxCell id="NBViREjLb1xKZu8kLgCA-557" value="Wait 10 seconds" style="rounded=0;whiteSpace=wrap;html=1;strokeColor=#d79b00;strokeWidth=2;fontSize=18;fillColor=#ffe6cc;" parent="NBViREjLb1xKZu8kLgCA-553" vertex="1">
          <mxGeometry y="78" width="120" height="60" as="geometry"/>
        </mxCell>
        <mxCell id="NBViREjLb1xKZu8kLgCA-558" value="" style="endArrow=classic;html=1;exitX=0.5;exitY=1;exitDx=0;exitDy=0;entryX=0.5;entryY=0;entryDx=0;entryDy=0;" parent="1" source="NBViREjLb1xKZu8kLgCA-542" target="NBViREjLb1xKZu8kLgCA-545" edge="1">
          <mxGeometry width="50" height="50" relative="1" as="geometry">
            <mxPoint x="2209.5" y="1520" as="sourcePoint"/>
            <mxPoint x="2259.5" y="1470" as="targetPoint"/>
          </mxGeometry>
        </mxCell>
        <mxCell id="NBViREjLb1xKZu8kLgCA-559" value="" style="endArrow=classic;html=1;exitX=0.5;exitY=1;exitDx=0;exitDy=0;entryX=0.5;entryY=0;entryDx=0;entryDy=0;" parent="1" source="NBViREjLb1xKZu8kLgCA-542" target="NBViREjLb1xKZu8kLgCA-548" edge="1">
          <mxGeometry width="50" height="50" relative="1" as="geometry">
            <mxPoint x="2739.5" y="1450" as="sourcePoint"/>
            <mxPoint x="2789.5" y="1400" as="targetPoint"/>
          </mxGeometry>
        </mxCell>
        <mxCell id="NBViREjLb1xKZu8kLgCA-560" value="" style="endArrow=classic;html=1;exitX=0.5;exitY=1;exitDx=0;exitDy=0;entryX=0.5;entryY=0;entryDx=0;entryDy=0;entryPerimeter=0;" parent="1" source="NBViREjLb1xKZu8kLgCA-542" target="NBViREjLb1xKZu8kLgCA-555" edge="1">
          <mxGeometry width="50" height="50" relative="1" as="geometry">
            <mxPoint x="2769.5" y="1450" as="sourcePoint"/>
            <mxPoint x="2819.5" y="1400" as="targetPoint"/>
          </mxGeometry>
        </mxCell>
        <mxCell id="NBViREjLb1xKZu8kLgCA-561" value="" style="endArrow=classic;html=1;exitX=0.5;exitY=1;exitDx=0;exitDy=0;entryX=0.5;entryY=0;entryDx=0;entryDy=0;" parent="1" source="NBViREjLb1xKZu8kLgCA-542" target="NBViREjLb1xKZu8kLgCA-551" edge="1">
          <mxGeometry width="50" height="50" relative="1" as="geometry">
            <mxPoint x="2809.5" y="1460" as="sourcePoint"/>
            <mxPoint x="2859.5" y="1410" as="targetPoint"/>
          </mxGeometry>
        </mxCell>
        <mxCell id="NBViREjLb1xKZu8kLgCA-562" value="" style="endArrow=classic;html=1;exitX=0.5;exitY=1;exitDx=0;exitDy=0;entryX=0.5;entryY=0;entryDx=0;entryDy=0;entryPerimeter=0;" parent="1" source="NBViREjLb1xKZu8kLgCA-519" target="NBViREjLb1xKZu8kLgCA-522" edge="1">
          <mxGeometry width="50" height="50" relative="1" as="geometry">
            <mxPoint x="2050" y="1280" as="sourcePoint"/>
            <mxPoint x="2100" y="1230" as="targetPoint"/>
          </mxGeometry>
        </mxCell>
        <mxCell id="NBViREjLb1xKZu8kLgCA-563" value="" style="endArrow=classic;html=1;exitX=0.5;exitY=1;exitDx=0;exitDy=0;entryX=0.5;entryY=0;entryDx=0;entryDy=0;" parent="1" source="NBViREjLb1xKZu8kLgCA-519" target="NBViREjLb1xKZu8kLgCA-529" edge="1">
          <mxGeometry width="50" height="50" relative="1" as="geometry">
            <mxPoint x="2640" y="1120" as="sourcePoint"/>
            <mxPoint x="2690" y="1070" as="targetPoint"/>
          </mxGeometry>
        </mxCell>
        <mxCell id="NBViREjLb1xKZu8kLgCA-564" value="" style="endArrow=classic;html=1;exitX=0.5;exitY=1;exitDx=0;exitDy=0;entryX=0.5;entryY=0;entryDx=0;entryDy=0;entryPerimeter=0;" parent="1" source="NBViREjLb1xKZu8kLgCA-519" target="NBViREjLb1xKZu8kLgCA-538" edge="1">
          <mxGeometry width="50" height="50" relative="1" as="geometry">
            <mxPoint x="2640" y="1160" as="sourcePoint"/>
            <mxPoint x="2630" y="1190" as="targetPoint"/>
          </mxGeometry>
        </mxCell>
        <mxCell id="NBViREjLb1xKZu8kLgCA-565" style="edgeStyle=orthogonalEdgeStyle;rounded=0;orthogonalLoop=1;jettySize=auto;html=1;exitX=0.5;exitY=1;exitDx=0;exitDy=0;exitPerimeter=0;entryX=0.5;entryY=0;entryDx=0;entryDy=0;" parent="1" source="NBViREjLb1xKZu8kLgCA-522" target="NBViREjLb1xKZu8kLgCA-526" edge="1">
          <mxGeometry relative="1" as="geometry"/>
        </mxCell>
        <mxCell id="NBViREjLb1xKZu8kLgCA-567" style="edgeStyle=orthogonalEdgeStyle;rounded=0;orthogonalLoop=1;jettySize=auto;html=1;exitX=0.5;exitY=1;exitDx=0;exitDy=0;entryX=0.5;entryY=0;entryDx=0;entryDy=0;" parent="1" source="NBViREjLb1xKZu8kLgCA-540" target="NBViREjLb1xKZu8kLgCA-542" edge="1">
          <mxGeometry relative="1" as="geometry"/>
        </mxCell>
        <mxCell id="NBViREjLb1xKZu8kLgCA-568" value="" style="endArrow=classic;html=1;exitX=0.5;exitY=1;exitDx=0;exitDy=0;entryX=0.5;entryY=0;entryDx=0;entryDy=0;" parent="1" source="NBViREjLb1xKZu8kLgCA-34" target="NBViREjLb1xKZu8kLgCA-519" edge="1">
          <mxGeometry width="50" height="50" relative="1" as="geometry">
            <mxPoint x="110" y="770" as="sourcePoint"/>
            <mxPoint x="1570" y="740" as="targetPoint"/>
            <Array as="points">
              <mxPoint x="2440" y="880"/>
            </Array>
          </mxGeometry>
        </mxCell>
        <mxCell id="knY3L9KS_mWDInX-zm8A-1" value="" style="group" vertex="1" connectable="0" parent="1">
          <mxGeometry x="-235" y="1901" width="100" height="80" as="geometry"/>
        </mxCell>
        <mxCell id="knY3L9KS_mWDInX-zm8A-2" value="" style="group" vertex="1" connectable="0" parent="knY3L9KS_mWDInX-zm8A-1">
          <mxGeometry width="100" height="80" as="geometry"/>
        </mxCell>
        <mxCell id="knY3L9KS_mWDInX-zm8A-3" value="" style="shape=loopLimit;whiteSpace=wrap;html=1;fillColor=#ffe6cc;strokeColor=#d79b00;strokeWidth=2;" vertex="1" parent="knY3L9KS_mWDInX-zm8A-2">
          <mxGeometry width="100" height="80" as="geometry"/>
        </mxCell>
        <mxCell id="knY3L9KS_mWDInX-zm8A-4" value="Free my Spot" style="text;html=1;strokeColor=none;fillColor=none;align=center;verticalAlign=middle;whiteSpace=wrap;rounded=0;fontSize=18;" vertex="1" parent="knY3L9KS_mWDInX-zm8A-2">
          <mxGeometry x="30" y="30" width="40" height="20" as="geometry"/>
        </mxCell>
        <mxCell id="knY3L9KS_mWDInX-zm8A-5" value="" style="group" vertex="1" connectable="0" parent="1">
          <mxGeometry x="43.5" y="2137.5" width="100" height="80" as="geometry"/>
        </mxCell>
        <mxCell id="knY3L9KS_mWDInX-zm8A-6" value="" style="group" vertex="1" connectable="0" parent="knY3L9KS_mWDInX-zm8A-5">
          <mxGeometry width="100" height="80" as="geometry"/>
        </mxCell>
        <mxCell id="knY3L9KS_mWDInX-zm8A-7" value="" style="shape=loopLimit;whiteSpace=wrap;html=1;fillColor=#ffe6cc;strokeColor=#d79b00;strokeWidth=2;" vertex="1" parent="knY3L9KS_mWDInX-zm8A-6">
          <mxGeometry width="100" height="80" as="geometry"/>
        </mxCell>
        <mxCell id="knY3L9KS_mWDInX-zm8A-8" value="Free my Spot" style="text;html=1;strokeColor=none;fillColor=none;align=center;verticalAlign=middle;whiteSpace=wrap;rounded=0;fontSize=18;" vertex="1" parent="knY3L9KS_mWDInX-zm8A-6">
          <mxGeometry x="30" y="30" width="40" height="20" as="geometry"/>
        </mxCell>
        <mxCell id="knY3L9KS_mWDInX-zm8A-9" value="" style="endArrow=classic;html=1;exitX=1;exitY=1;exitDx=0;exitDy=0;entryX=0.5;entryY=0;entryDx=0;entryDy=0;" edge="1" parent="1" source="NBViREjLb1xKZu8kLgCA-234" target="knY3L9KS_mWDInX-zm8A-3">
          <mxGeometry width="50" height="50" relative="1" as="geometry">
            <mxPoint x="-310" y="1850" as="sourcePoint"/>
            <mxPoint x="-260" y="1800" as="targetPoint"/>
          </mxGeometry>
        </mxCell>
        <mxCell id="knY3L9KS_mWDInX-zm8A-10" value="" style="endArrow=classic;html=1;entryX=0.5;entryY=0;entryDx=0;entryDy=0;" edge="1" parent="1" target="knY3L9KS_mWDInX-zm8A-7">
          <mxGeometry width="50" height="50" relative="1" as="geometry">
            <mxPoint x="-30" y="2100" as="sourcePoint"/>
            <mxPoint x="150" y="2060" as="targetPoint"/>
          </mxGeometry>
        </mxCell>
        <mxCell id="knY3L9KS_mWDInX-zm8A-11" value="" style="endArrow=classic;html=1;exitX=0.5;exitY=1;exitDx=0;exitDy=0;entryX=0.5;entryY=0;entryDx=0;entryDy=0;" edge="1" parent="1" source="NBViREjLb1xKZu8kLgCA-339" target="NBViREjLb1xKZu8kLgCA-356">
          <mxGeometry width="50" height="50" relative="1" as="geometry">
            <mxPoint x="830" y="1570" as="sourcePoint"/>
            <mxPoint x="880" y="1520" as="targetPoint"/>
          </mxGeometry>
        </mxCell>
        <mxCell id="knY3L9KS_mWDInX-zm8A-12" value="" style="endArrow=classic;html=1;exitX=0.5;exitY=1;exitDx=0;exitDy=0;entryX=0.5;entryY=0;entryDx=0;entryDy=0;" edge="1" parent="1" source="NBViREjLb1xKZu8kLgCA-448" target="NBViREjLb1xKZu8kLgCA-451">
          <mxGeometry width="50" height="50" relative="1" as="geometry">
            <mxPoint x="1580" y="1460" as="sourcePoint"/>
            <mxPoint x="1630" y="1410" as="targetPoint"/>
          </mxGeometry>
        </mxCell>
        <mxCell id="knY3L9KS_mWDInX-zm8A-13" value="" style="group" vertex="1" connectable="0" parent="1">
          <mxGeometry x="1750" y="1670" width="117.5" height="195" as="geometry"/>
        </mxCell>
        <mxCell id="knY3L9KS_mWDInX-zm8A-14" value="" style="strokeWidth=2;html=1;shape=mxgraph.flowchart.decision;whiteSpace=wrap;fillColor=#ffe6cc;strokeColor=#d79b00;" vertex="1" parent="knY3L9KS_mWDInX-zm8A-13">
          <mxGeometry width="100" height="100" as="geometry"/>
        </mxCell>
        <mxCell id="knY3L9KS_mWDInX-zm8A-15" value="" style="html=1;shadow=0;dashed=0;align=center;verticalAlign=middle;shape=mxgraph.arrows2.uTurnArrow;dy=3.03;arrowHead=19.28;dx2=10.64;" vertex="1" parent="knY3L9KS_mWDInX-zm8A-13">
          <mxGeometry x="20" y="32.5" width="30" height="30" as="geometry"/>
        </mxCell>
        <mxCell id="knY3L9KS_mWDInX-zm8A-16" value="" style="html=1;shadow=0;dashed=0;align=center;verticalAlign=middle;shape=mxgraph.arrows2.uTurnArrow;dy=3.03;arrowHead=19.28;dx2=10.64;rotation=180;" vertex="1" parent="knY3L9KS_mWDInX-zm8A-13">
          <mxGeometry x="50" y="37.5" width="30" height="30" as="geometry"/>
        </mxCell>
        <mxCell id="knY3L9KS_mWDInX-zm8A-21" value="" style="group" vertex="1" connectable="0" parent="knY3L9KS_mWDInX-zm8A-13">
          <mxGeometry x="-12.5" y="135" width="130" height="60" as="geometry"/>
        </mxCell>
        <mxCell id="knY3L9KS_mWDInX-zm8A-22" value="" style="group" vertex="1" connectable="0" parent="knY3L9KS_mWDInX-zm8A-21">
          <mxGeometry width="130" height="60" as="geometry"/>
        </mxCell>
        <mxCell id="knY3L9KS_mWDInX-zm8A-23" value="" style="rounded=0;whiteSpace=wrap;html=1;fontSize=18;fillColor=#ffe6cc;strokeColor=#d79b00;" vertex="1" parent="knY3L9KS_mWDInX-zm8A-22">
          <mxGeometry x="-5" y="-5" width="130" height="70" as="geometry"/>
        </mxCell>
        <mxCell id="knY3L9KS_mWDInX-zm8A-24" value="No Ingredients left?" style="text;html=1;strokeColor=none;fillColor=none;align=center;verticalAlign=middle;whiteSpace=wrap;rounded=0;fontSize=18;" vertex="1" parent="knY3L9KS_mWDInX-zm8A-22">
          <mxGeometry x="40" y="20" width="40" height="20" as="geometry"/>
        </mxCell>
        <mxCell id="knY3L9KS_mWDInX-zm8A-26" style="edgeStyle=orthogonalEdgeStyle;rounded=0;orthogonalLoop=1;jettySize=auto;html=1;exitX=0.5;exitY=1;exitDx=0;exitDy=0;exitPerimeter=0;entryX=0.5;entryY=0;entryDx=0;entryDy=0;" edge="1" parent="knY3L9KS_mWDInX-zm8A-13" source="knY3L9KS_mWDInX-zm8A-14" target="knY3L9KS_mWDInX-zm8A-23">
          <mxGeometry relative="1" as="geometry"/>
        </mxCell>
        <mxCell id="knY3L9KS_mWDInX-zm8A-27" value="" style="group;strokeColor=none;" vertex="1" connectable="0" parent="1">
          <mxGeometry x="1630" y="1550" width="80" height="80" as="geometry"/>
        </mxCell>
        <mxCell id="knY3L9KS_mWDInX-zm8A-28" value="" style="ellipse;whiteSpace=wrap;html=1;aspect=fixed;fillColor=#ffe6cc;strokeColor=#d79b00;" vertex="1" parent="knY3L9KS_mWDInX-zm8A-27">
          <mxGeometry width="80" height="80" as="geometry"/>
        </mxCell>
        <mxCell id="knY3L9KS_mWDInX-zm8A-29" value="" style="shape=flexArrow;endArrow=classic;html=1;endWidth=8.20977056344623;endSize=6.232558139534884;width=4.697986577181208;fillColor=#ffffff;" edge="1" parent="knY3L9KS_mWDInX-zm8A-27">
          <mxGeometry width="50" height="50" relative="1" as="geometry">
            <mxPoint x="20" y="20" as="sourcePoint"/>
            <mxPoint x="70" y="20" as="targetPoint"/>
            <Array as="points"/>
          </mxGeometry>
        </mxCell>
        <mxCell id="knY3L9KS_mWDInX-zm8A-30" value="" style="shape=flexArrow;endArrow=classic;html=1;endWidth=8.20977056344623;endSize=6.232558139534884;width=4.697986577181208;fillColor=#ffffff;" edge="1" parent="knY3L9KS_mWDInX-zm8A-27">
          <mxGeometry width="50" height="50" relative="1" as="geometry">
            <mxPoint x="20" y="40" as="sourcePoint"/>
            <mxPoint x="70" y="40" as="targetPoint"/>
            <Array as="points"/>
          </mxGeometry>
        </mxCell>
        <mxCell id="knY3L9KS_mWDInX-zm8A-31" value="" style="shape=flexArrow;endArrow=classic;html=1;endWidth=8.20977056344623;endSize=6.232558139534884;width=4.697986577181208;fillColor=#ffffff;" edge="1" parent="knY3L9KS_mWDInX-zm8A-27">
          <mxGeometry width="50" height="50" relative="1" as="geometry">
            <mxPoint x="20" y="60" as="sourcePoint"/>
            <mxPoint x="70" y="60" as="targetPoint"/>
            <Array as="points"/>
          </mxGeometry>
        </mxCell>
        <mxCell id="knY3L9KS_mWDInX-zm8A-32" value="" style="endArrow=classic;html=1;exitX=0.5;exitY=1;exitDx=0;exitDy=0;entryX=0.5;entryY=0;entryDx=0;entryDy=0;entryPerimeter=0;" edge="1" parent="1" source="knY3L9KS_mWDInX-zm8A-28" target="NBViREjLb1xKZu8kLgCA-471">
          <mxGeometry width="50" height="50" relative="1" as="geometry">
            <mxPoint x="1370" y="1760" as="sourcePoint"/>
            <mxPoint x="1420" y="1710" as="targetPoint"/>
          </mxGeometry>
        </mxCell>
        <mxCell id="knY3L9KS_mWDInX-zm8A-33" value="" style="endArrow=classic;html=1;exitX=0.5;exitY=1;exitDx=0;exitDy=0;entryX=0.5;entryY=0;entryDx=0;entryDy=0;entryPerimeter=0;" edge="1" parent="1" source="knY3L9KS_mWDInX-zm8A-28" target="knY3L9KS_mWDInX-zm8A-14">
          <mxGeometry width="50" height="50" relative="1" as="geometry">
            <mxPoint x="1830" y="1700" as="sourcePoint"/>
            <mxPoint x="1880" y="1650" as="targetPoint"/>
          </mxGeometry>
        </mxCell>
        <mxCell id="knY3L9KS_mWDInX-zm8A-36" value="" style="group" vertex="1" connectable="0" parent="1">
          <mxGeometry x="2430" y="1500" width="100" height="80" as="geometry"/>
        </mxCell>
        <mxCell id="NBViREjLb1xKZu8kLgCA-544" value="" style="group" parent="knY3L9KS_mWDInX-zm8A-36" vertex="1" connectable="0">
          <mxGeometry width="100" height="80" as="geometry"/>
        </mxCell>
        <mxCell id="NBViREjLb1xKZu8kLgCA-545" value="" style="shape=loopLimit;whiteSpace=wrap;html=1;fillColor=#ffe6cc;strokeColor=#d79b00;strokeWidth=2;" parent="NBViREjLb1xKZu8kLgCA-544" vertex="1">
          <mxGeometry width="100" height="80" as="geometry"/>
        </mxCell>
        <mxCell id="NBViREjLb1xKZu8kLgCA-546" value="&lt;div&gt;Stop Movement&lt;/div&gt;&lt;div&gt;&lt;br&gt;&lt;/div&gt;" style="text;html=1;strokeColor=none;fillColor=none;align=center;verticalAlign=middle;whiteSpace=wrap;rounded=0;fontStyle=1;fontSize=18;" parent="NBViREjLb1xKZu8kLgCA-544" vertex="1">
          <mxGeometry x="30" y="35" width="40" height="20" as="geometry"/>
        </mxCell>
        <mxCell id="knY3L9KS_mWDInX-zm8A-38" value="" style="group" vertex="1" connectable="0" parent="1">
          <mxGeometry x="1880" y="1560" width="100" height="80" as="geometry"/>
        </mxCell>
        <mxCell id="knY3L9KS_mWDInX-zm8A-39" value="" style="group" vertex="1" connectable="0" parent="knY3L9KS_mWDInX-zm8A-38">
          <mxGeometry width="100" height="80" as="geometry"/>
        </mxCell>
        <mxCell id="knY3L9KS_mWDInX-zm8A-40" value="" style="shape=loopLimit;whiteSpace=wrap;html=1;fillColor=#ffe6cc;strokeColor=#d79b00;strokeWidth=2;" vertex="1" parent="knY3L9KS_mWDInX-zm8A-39">
          <mxGeometry width="100" height="80" as="geometry"/>
        </mxCell>
        <mxCell id="knY3L9KS_mWDInX-zm8A-41" value="Free my spot" style="text;html=1;strokeColor=none;fillColor=none;align=center;verticalAlign=middle;whiteSpace=wrap;rounded=0;fontStyle=1;fontSize=18;" vertex="1" parent="knY3L9KS_mWDInX-zm8A-39">
          <mxGeometry x="30" y="35" width="40" height="20" as="geometry"/>
        </mxCell>
        <mxCell id="knY3L9KS_mWDInX-zm8A-42" value="" style="group" vertex="1" connectable="0" parent="1">
          <mxGeometry x="1760" y="1450" width="80" height="80" as="geometry"/>
        </mxCell>
        <mxCell id="knY3L9KS_mWDInX-zm8A-43" value="" style="ellipse;whiteSpace=wrap;html=1;aspect=fixed;fillColor=#ffe6cc;strokeColor=#d79b00;" vertex="1" parent="knY3L9KS_mWDInX-zm8A-42">
          <mxGeometry width="80" height="80" as="geometry"/>
        </mxCell>
        <mxCell id="knY3L9KS_mWDInX-zm8A-44" value="" style="shape=flexArrow;endArrow=classic;html=1;fillColor=#ffffff;" edge="1" parent="knY3L9KS_mWDInX-zm8A-42">
          <mxGeometry width="50" height="50" relative="1" as="geometry">
            <mxPoint x="20" y="40" as="sourcePoint"/>
            <mxPoint x="60" y="40" as="targetPoint"/>
          </mxGeometry>
        </mxCell>
        <mxCell id="knY3L9KS_mWDInX-zm8A-47" value="" style="endArrow=classic;html=1;exitX=0.5;exitY=1;exitDx=0;exitDy=0;entryX=0.5;entryY=0;entryDx=0;entryDy=0;" edge="1" parent="1" source="knY3L9KS_mWDInX-zm8A-43" target="knY3L9KS_mWDInX-zm8A-28">
          <mxGeometry width="50" height="50" relative="1" as="geometry">
            <mxPoint x="1780" y="1679" as="sourcePoint"/>
            <mxPoint x="1830" y="1629" as="targetPoint"/>
          </mxGeometry>
        </mxCell>
        <mxCell id="knY3L9KS_mWDInX-zm8A-48" value="" style="endArrow=classic;html=1;exitX=0.5;exitY=1;exitDx=0;exitDy=0;entryX=0.5;entryY=0;entryDx=0;entryDy=0;" edge="1" parent="1" source="knY3L9KS_mWDInX-zm8A-43" target="knY3L9KS_mWDInX-zm8A-40">
          <mxGeometry width="50" height="50" relative="1" as="geometry">
            <mxPoint x="1910" y="1559" as="sourcePoint"/>
            <mxPoint x="1960" y="1509" as="targetPoint"/>
          </mxGeometry>
        </mxCell>
        <mxCell id="knY3L9KS_mWDInX-zm8A-49" style="edgeStyle=orthogonalEdgeStyle;rounded=0;orthogonalLoop=1;jettySize=auto;html=1;exitX=0.5;exitY=1;exitDx=0;exitDy=0;entryX=0.5;entryY=0;entryDx=0;entryDy=0;" edge="1" parent="1" source="NBViREjLb1xKZu8kLgCA-457" target="knY3L9KS_mWDInX-zm8A-43">
          <mxGeometry relative="1" as="geometry"/>
        </mxCell>
        <mxCell id="knY3L9KS_mWDInX-zm8A-50" value="" style="endArrow=classic;html=1;exitX=0.5;exitY=1;exitDx=0;exitDy=0;entryX=0.5;entryY=0;entryDx=0;entryDy=0;" edge="1" parent="1" source="NBViREjLb1xKZu8kLgCA-2" target="NBViREjLb1xKZu8kLgCA-27">
          <mxGeometry width="50" height="50" relative="1" as="geometry">
            <mxPoint x="-180" y="460" as="sourcePoint"/>
            <mxPoint x="-130" y="410" as="targetPoint"/>
          </mxGeometry>
        </mxCell>
        <mxCell id="knY3L9KS_mWDInX-zm8A-51" style="edgeStyle=orthogonalEdgeStyle;rounded=0;orthogonalLoop=1;jettySize=auto;html=1;exitX=0.5;exitY=1;exitDx=0;exitDy=0;entryX=0.5;entryY=0;entryDx=0;entryDy=0;fontSize=18;" edge="1" parent="1" source="knY3L9KS_mWDInX-zm8A-59" target="knY3L9KS_mWDInX-zm8A-53">
          <mxGeometry relative="1" as="geometry">
            <mxPoint x="442.66666666666674" y="480.16666666666674" as="sourcePoint"/>
            <mxPoint x="441.8571428571431" y="530" as="targetPoint"/>
          </mxGeometry>
        </mxCell>
        <mxCell id="knY3L9KS_mWDInX-zm8A-52" value="" style="group" vertex="1" connectable="0" parent="1">
          <mxGeometry x="402.5" y="530" width="80" height="80" as="geometry"/>
        </mxCell>
        <mxCell id="knY3L9KS_mWDInX-zm8A-53" value="" style="ellipse;whiteSpace=wrap;html=1;aspect=fixed;fillColor=#ffe6cc;strokeColor=#d79b00;" vertex="1" parent="knY3L9KS_mWDInX-zm8A-52">
          <mxGeometry width="80" height="80" as="geometry"/>
        </mxCell>
        <mxCell id="knY3L9KS_mWDInX-zm8A-54" value="" style="shape=flexArrow;endArrow=classic;html=1;fillColor=#ffffff;" edge="1" parent="knY3L9KS_mWDInX-zm8A-52">
          <mxGeometry width="50" height="50" relative="1" as="geometry">
            <mxPoint x="20" y="40" as="sourcePoint"/>
            <mxPoint x="60" y="40" as="targetPoint"/>
          </mxGeometry>
        </mxCell>
        <mxCell id="knY3L9KS_mWDInX-zm8A-55" value="" style="group" vertex="1" connectable="0" parent="1">
          <mxGeometry x="662.5" y="530" width="80" height="80" as="geometry"/>
        </mxCell>
        <mxCell id="knY3L9KS_mWDInX-zm8A-56" value="" style="ellipse;whiteSpace=wrap;html=1;aspect=fixed;fillColor=#ffe6cc;strokeColor=#d79b00;" vertex="1" parent="knY3L9KS_mWDInX-zm8A-55">
          <mxGeometry width="80" height="80" as="geometry"/>
        </mxCell>
        <mxCell id="knY3L9KS_mWDInX-zm8A-57" value="" style="shape=flexArrow;endArrow=classic;html=1;fillColor=#ffffff;" edge="1" parent="knY3L9KS_mWDInX-zm8A-55">
          <mxGeometry width="50" height="50" relative="1" as="geometry">
            <mxPoint x="20" y="40" as="sourcePoint"/>
            <mxPoint x="60" y="40" as="targetPoint"/>
          </mxGeometry>
        </mxCell>
        <mxCell id="knY3L9KS_mWDInX-zm8A-58" value="" style="group" vertex="1" connectable="0" parent="1">
          <mxGeometry x="389" y="449" width="120" height="60" as="geometry"/>
        </mxCell>
        <mxCell id="knY3L9KS_mWDInX-zm8A-59" value="" style="rounded=0;whiteSpace=wrap;html=1;fontSize=18;fillColor=#ffe6cc;strokeColor=#d79b00;" vertex="1" parent="knY3L9KS_mWDInX-zm8A-58">
          <mxGeometry width="120" height="60" as="geometry"/>
        </mxCell>
        <mxCell id="knY3L9KS_mWDInX-zm8A-60" value="Dead?" style="text;html=1;strokeColor=none;fillColor=none;align=center;verticalAlign=middle;whiteSpace=wrap;rounded=0;fontSize=18;" vertex="1" parent="knY3L9KS_mWDInX-zm8A-58">
          <mxGeometry x="40" y="20" width="40" height="20" as="geometry"/>
        </mxCell>
        <mxCell id="knY3L9KS_mWDInX-zm8A-61" value="" style="group" vertex="1" connectable="0" parent="1">
          <mxGeometry x="640" y="440" width="205" height="65" as="geometry"/>
        </mxCell>
        <mxCell id="knY3L9KS_mWDInX-zm8A-62" value="" style="rounded=0;whiteSpace=wrap;html=1;fontSize=18;fillColor=#ffe6cc;strokeColor=#d79b00;" vertex="1" parent="knY3L9KS_mWDInX-zm8A-61">
          <mxGeometry y="5" width="120" height="60" as="geometry"/>
        </mxCell>
        <mxCell id="knY3L9KS_mWDInX-zm8A-63" value="Fainted?" style="text;html=1;strokeColor=none;fillColor=none;align=center;verticalAlign=middle;whiteSpace=wrap;rounded=0;fontSize=18;" vertex="1" parent="knY3L9KS_mWDInX-zm8A-61">
          <mxGeometry x="-5" y="5" width="130" height="60" as="geometry"/>
        </mxCell>
        <mxCell id="knY3L9KS_mWDInX-zm8A-64" style="edgeStyle=orthogonalEdgeStyle;rounded=0;orthogonalLoop=1;jettySize=auto;html=1;exitX=0.5;exitY=1;exitDx=0;exitDy=0;fontSize=18;entryX=0.5;entryY=0;entryDx=0;entryDy=0;" edge="1" parent="1" source="knY3L9KS_mWDInX-zm8A-63" target="knY3L9KS_mWDInX-zm8A-56">
          <mxGeometry relative="1" as="geometry">
            <mxPoint x="627.5714285714287" y="520" as="targetPoint"/>
          </mxGeometry>
        </mxCell>
        <mxCell id="knY3L9KS_mWDInX-zm8A-65" value="" style="group" vertex="1" connectable="0" parent="1">
          <mxGeometry x="459" y="630" width="100" height="80" as="geometry"/>
        </mxCell>
        <mxCell id="knY3L9KS_mWDInX-zm8A-66" value="" style="group" vertex="1" connectable="0" parent="knY3L9KS_mWDInX-zm8A-65">
          <mxGeometry width="100" height="80" as="geometry"/>
        </mxCell>
        <mxCell id="knY3L9KS_mWDInX-zm8A-67" value="" style="shape=loopLimit;whiteSpace=wrap;html=1;fillColor=#ffe6cc;strokeColor=#d79b00;strokeWidth=2;" vertex="1" parent="knY3L9KS_mWDInX-zm8A-66">
          <mxGeometry width="100" height="80" as="geometry"/>
        </mxCell>
        <mxCell id="knY3L9KS_mWDInX-zm8A-68" value="Destroy Agent" style="text;html=1;strokeColor=none;fillColor=none;align=center;verticalAlign=middle;whiteSpace=wrap;rounded=0;fontStyle=1;fontSize=18;" vertex="1" parent="knY3L9KS_mWDInX-zm8A-66">
          <mxGeometry x="30" y="35" width="40" height="20" as="geometry"/>
        </mxCell>
        <mxCell id="knY3L9KS_mWDInX-zm8A-69" value="" style="endArrow=classic;html=1;fontSize=18;exitX=0.5;exitY=1;exitDx=0;exitDy=0;entryX=0.5;entryY=0;entryDx=0;entryDy=0;" edge="1" parent="1" source="knY3L9KS_mWDInX-zm8A-53" target="knY3L9KS_mWDInX-zm8A-67">
          <mxGeometry width="50" height="50" relative="1" as="geometry">
            <mxPoint x="499" y="610" as="sourcePoint"/>
            <mxPoint x="549" y="560" as="targetPoint"/>
          </mxGeometry>
        </mxCell>
        <mxCell id="knY3L9KS_mWDInX-zm8A-70" value="" style="group" vertex="1" connectable="0" parent="1">
          <mxGeometry x="712.5" y="630" width="100" height="80" as="geometry"/>
        </mxCell>
        <mxCell id="knY3L9KS_mWDInX-zm8A-71" value="" style="shape=loopLimit;whiteSpace=wrap;html=1;fillColor=#ffe6cc;strokeColor=#d79b00;strokeWidth=2;" vertex="1" parent="knY3L9KS_mWDInX-zm8A-70">
          <mxGeometry width="100" height="80" as="geometry"/>
        </mxCell>
        <mxCell id="knY3L9KS_mWDInX-zm8A-72" value="Set Idle" style="text;html=1;strokeColor=none;fillColor=none;align=center;verticalAlign=middle;whiteSpace=wrap;rounded=0;fontStyle=1;fontSize=18;" vertex="1" parent="knY3L9KS_mWDInX-zm8A-70">
          <mxGeometry x="30" y="35" width="40" height="20" as="geometry"/>
        </mxCell>
        <mxCell id="knY3L9KS_mWDInX-zm8A-73" value="" style="endArrow=classic;html=1;fontSize=18;exitX=0.5;exitY=1;exitDx=0;exitDy=0;entryX=0.5;entryY=0;entryDx=0;entryDy=0;entryPerimeter=0;" edge="1" parent="1" source="knY3L9KS_mWDInX-zm8A-56" target="knY3L9KS_mWDInX-zm8A-78">
          <mxGeometry width="50" height="50" relative="1" as="geometry">
            <mxPoint x="862.5" y="590" as="sourcePoint"/>
            <mxPoint x="632.5" y="630" as="targetPoint"/>
          </mxGeometry>
        </mxCell>
        <mxCell id="knY3L9KS_mWDInX-zm8A-74" value="" style="endArrow=classic;html=1;fontSize=18;exitX=0.5;exitY=1;exitDx=0;exitDy=0;entryX=0.5;entryY=0;entryDx=0;entryDy=0;" edge="1" parent="1" source="knY3L9KS_mWDInX-zm8A-56" target="knY3L9KS_mWDInX-zm8A-71">
          <mxGeometry width="50" height="50" relative="1" as="geometry">
            <mxPoint x="832.5" y="620" as="sourcePoint"/>
            <mxPoint x="882.5" y="570" as="targetPoint"/>
          </mxGeometry>
        </mxCell>
        <mxCell id="knY3L9KS_mWDInX-zm8A-75" value="" style="endArrow=classic;html=1;fontSize=18;exitX=0.5;exitY=1;exitDx=0;exitDy=0;entryX=0.5;entryY=0;entryDx=0;entryDy=0;entryPerimeter=0;" edge="1" parent="1" source="knY3L9KS_mWDInX-zm8A-53" target="knY3L9KS_mWDInX-zm8A-83">
          <mxGeometry width="50" height="50" relative="1" as="geometry">
            <mxPoint x="342.5" y="650" as="sourcePoint"/>
            <mxPoint x="392.5" y="600" as="targetPoint"/>
          </mxGeometry>
        </mxCell>
        <mxCell id="knY3L9KS_mWDInX-zm8A-76" value="" style="group" vertex="1" connectable="0" parent="1">
          <mxGeometry x="582.5" y="630" width="120" height="130" as="geometry"/>
        </mxCell>
        <mxCell id="knY3L9KS_mWDInX-zm8A-77" value="" style="group" vertex="1" connectable="0" parent="knY3L9KS_mWDInX-zm8A-76">
          <mxGeometry x="10" width="100" height="100" as="geometry"/>
        </mxCell>
        <mxCell id="knY3L9KS_mWDInX-zm8A-78" value="" style="strokeWidth=2;html=1;shape=mxgraph.flowchart.decision;whiteSpace=wrap;fontSize=18;fillColor=#ffe6cc;strokeColor=#d79b00;" vertex="1" parent="knY3L9KS_mWDInX-zm8A-77">
          <mxGeometry width="100" height="100" as="geometry"/>
        </mxCell>
        <mxCell id="knY3L9KS_mWDInX-zm8A-79" value="" style="html=1;verticalLabelPosition=bottom;align=center;labelBackgroundColor=#ffffff;verticalAlign=top;strokeWidth=2;strokeColor=#333333;shadow=0;dashed=0;shape=mxgraph.ios7.icons.alarm_clock;fontSize=18;" vertex="1" parent="knY3L9KS_mWDInX-zm8A-77">
          <mxGeometry x="36.5" y="35" width="27" height="30" as="geometry"/>
        </mxCell>
        <mxCell id="knY3L9KS_mWDInX-zm8A-80" value="Wait 15 Sec" style="rounded=0;whiteSpace=wrap;html=1;strokeColor=#d79b00;strokeWidth=2;fontSize=18;fillColor=#ffe6cc;" vertex="1" parent="knY3L9KS_mWDInX-zm8A-76">
          <mxGeometry y="70" width="120" height="60" as="geometry"/>
        </mxCell>
        <mxCell id="knY3L9KS_mWDInX-zm8A-81" value="" style="group" vertex="1" connectable="0" parent="1">
          <mxGeometry x="312.5" y="630" width="120" height="130" as="geometry"/>
        </mxCell>
        <mxCell id="knY3L9KS_mWDInX-zm8A-82" value="" style="group" vertex="1" connectable="0" parent="knY3L9KS_mWDInX-zm8A-81">
          <mxGeometry x="10" width="100" height="100" as="geometry"/>
        </mxCell>
        <mxCell id="knY3L9KS_mWDInX-zm8A-83" value="" style="strokeWidth=2;html=1;shape=mxgraph.flowchart.decision;whiteSpace=wrap;fontSize=18;fillColor=#ffe6cc;strokeColor=#d79b00;" vertex="1" parent="knY3L9KS_mWDInX-zm8A-82">
          <mxGeometry width="100" height="100" as="geometry"/>
        </mxCell>
        <mxCell id="knY3L9KS_mWDInX-zm8A-84" value="" style="html=1;verticalLabelPosition=bottom;align=center;labelBackgroundColor=#ffffff;verticalAlign=top;strokeWidth=2;strokeColor=#333333;shadow=0;dashed=0;shape=mxgraph.ios7.icons.alarm_clock;fontSize=18;" vertex="1" parent="knY3L9KS_mWDInX-zm8A-82">
          <mxGeometry x="36.5" y="35" width="27" height="30" as="geometry"/>
        </mxCell>
        <mxCell id="knY3L9KS_mWDInX-zm8A-85" value="Wait 15 Sec" style="rounded=0;whiteSpace=wrap;html=1;strokeColor=#d79b00;strokeWidth=2;fontSize=18;fillColor=#ffe6cc;" vertex="1" parent="knY3L9KS_mWDInX-zm8A-81">
          <mxGeometry y="70" width="120" height="60" as="geometry"/>
        </mxCell>
        <mxCell id="knY3L9KS_mWDInX-zm8A-86" value="" style="group" vertex="1" connectable="0" parent="1">
          <mxGeometry x="146" y="225" width="100" height="100" as="geometry"/>
        </mxCell>
        <mxCell id="knY3L9KS_mWDInX-zm8A-87" value="" style="group" vertex="1" connectable="0" parent="knY3L9KS_mWDInX-zm8A-86">
          <mxGeometry width="100" height="100" as="geometry"/>
        </mxCell>
        <mxCell id="knY3L9KS_mWDInX-zm8A-88" value="" style="strokeWidth=2;html=1;shape=mxgraph.flowchart.decision;whiteSpace=wrap;fillColor=#ffe6cc;strokeColor=#d79b00;" vertex="1" parent="knY3L9KS_mWDInX-zm8A-87">
          <mxGeometry width="100" height="100" as="geometry"/>
        </mxCell>
        <mxCell id="knY3L9KS_mWDInX-zm8A-89" value="" style="triangle;whiteSpace=wrap;html=1;strokeWidth=2;fontSize=18;rotation=-90;" vertex="1" parent="knY3L9KS_mWDInX-zm8A-87">
          <mxGeometry x="34" y="20" width="32" height="43" as="geometry"/>
        </mxCell>
        <mxCell id="knY3L9KS_mWDInX-zm8A-90" value="" style="group" vertex="1" connectable="0" parent="1">
          <mxGeometry x="532.5" y="210" width="100" height="100" as="geometry"/>
        </mxCell>
        <mxCell id="knY3L9KS_mWDInX-zm8A-91" value="" style="group" vertex="1" connectable="0" parent="knY3L9KS_mWDInX-zm8A-90">
          <mxGeometry width="100" height="100" as="geometry"/>
        </mxCell>
        <mxCell id="knY3L9KS_mWDInX-zm8A-92" value="" style="strokeWidth=2;html=1;shape=mxgraph.flowchart.decision;whiteSpace=wrap;fillColor=#ffe6cc;strokeColor=#d79b00;" vertex="1" parent="knY3L9KS_mWDInX-zm8A-91">
          <mxGeometry width="100" height="100" as="geometry"/>
        </mxCell>
        <mxCell id="knY3L9KS_mWDInX-zm8A-93" value="" style="triangle;whiteSpace=wrap;html=1;strokeWidth=2;fontSize=18;rotation=-90;" vertex="1" parent="knY3L9KS_mWDInX-zm8A-91">
          <mxGeometry x="34" y="20" width="32" height="43" as="geometry"/>
        </mxCell>
        <mxCell id="knY3L9KS_mWDInX-zm8A-94" value="" style="endArrow=classic;html=1;exitX=0.5;exitY=1;exitDx=0;exitDy=0;exitPerimeter=0;entryX=0.5;entryY=0;entryDx=0;entryDy=0;" edge="1" parent="1" source="knY3L9KS_mWDInX-zm8A-92" target="knY3L9KS_mWDInX-zm8A-104">
          <mxGeometry width="50" height="50" relative="1" as="geometry">
            <mxPoint x="722.5" y="335" as="sourcePoint"/>
            <mxPoint x="582.5" y="295" as="targetPoint"/>
          </mxGeometry>
        </mxCell>
        <mxCell id="knY3L9KS_mWDInX-zm8A-95" value="" style="endArrow=classic;html=1;exitX=1;exitY=1;exitDx=0;exitDy=0;entryX=0.5;entryY=0;entryDx=0;entryDy=0;" edge="1" parent="1" source="knY3L9KS_mWDInX-zm8A-104" target="knY3L9KS_mWDInX-zm8A-63">
          <mxGeometry width="50" height="50" relative="1" as="geometry">
            <mxPoint x="610.7842712474621" y="363.28427124746213" as="sourcePoint"/>
            <mxPoint x="832.5" y="315" as="targetPoint"/>
          </mxGeometry>
        </mxCell>
        <mxCell id="knY3L9KS_mWDInX-zm8A-96" value="" style="endArrow=classic;html=1;exitX=0;exitY=1;exitDx=0;exitDy=0;entryX=0.5;entryY=0;entryDx=0;entryDy=0;" edge="1" parent="1" source="knY3L9KS_mWDInX-zm8A-104" target="knY3L9KS_mWDInX-zm8A-59">
          <mxGeometry width="50" height="50" relative="1" as="geometry">
            <mxPoint x="554.2157287525379" y="363.28427124746213" as="sourcePoint"/>
            <mxPoint x="392.5" y="315" as="targetPoint"/>
          </mxGeometry>
        </mxCell>
        <mxCell id="knY3L9KS_mWDInX-zm8A-97" value="" style="group" vertex="1" connectable="0" parent="1">
          <mxGeometry x="132.5" y="365" width="120" height="60" as="geometry"/>
        </mxCell>
        <mxCell id="knY3L9KS_mWDInX-zm8A-98" value="" style="rounded=0;whiteSpace=wrap;html=1;fontSize=18;fillColor=#ffe6cc;strokeColor=#d79b00;" vertex="1" parent="knY3L9KS_mWDInX-zm8A-97">
          <mxGeometry width="120" height="60" as="geometry"/>
        </mxCell>
        <mxCell id="knY3L9KS_mWDInX-zm8A-99" value="&lt;div&gt;Interrupted?&lt;/div&gt;" style="text;html=1;strokeColor=none;fillColor=none;align=center;verticalAlign=middle;whiteSpace=wrap;rounded=0;fontSize=18;" vertex="1" parent="knY3L9KS_mWDInX-zm8A-97">
          <mxGeometry x="40" y="20" width="40" height="20" as="geometry"/>
        </mxCell>
        <mxCell id="knY3L9KS_mWDInX-zm8A-100" value="" style="group" vertex="1" connectable="0" parent="1">
          <mxGeometry x="156" y="450" width="80" height="80" as="geometry"/>
        </mxCell>
        <mxCell id="knY3L9KS_mWDInX-zm8A-101" value="" style="ellipse;whiteSpace=wrap;html=1;aspect=fixed;fillColor=#ffe6cc;strokeColor=#d79b00;" vertex="1" parent="knY3L9KS_mWDInX-zm8A-100">
          <mxGeometry width="80" height="80" as="geometry"/>
        </mxCell>
        <mxCell id="knY3L9KS_mWDInX-zm8A-102" value="" style="shape=flexArrow;endArrow=classic;html=1;fillColor=#ffffff;" edge="1" parent="knY3L9KS_mWDInX-zm8A-100">
          <mxGeometry width="50" height="50" relative="1" as="geometry">
            <mxPoint x="20" y="40" as="sourcePoint"/>
            <mxPoint x="60" y="40" as="targetPoint"/>
          </mxGeometry>
        </mxCell>
        <mxCell id="knY3L9KS_mWDInX-zm8A-103" value="" style="group" vertex="1" connectable="0" parent="1">
          <mxGeometry x="542.5" y="330" width="80" height="80" as="geometry"/>
        </mxCell>
        <mxCell id="knY3L9KS_mWDInX-zm8A-104" value="" style="ellipse;whiteSpace=wrap;html=1;aspect=fixed;fillColor=#ffe6cc;strokeColor=#d79b00;" vertex="1" parent="knY3L9KS_mWDInX-zm8A-103">
          <mxGeometry width="80" height="80" as="geometry"/>
        </mxCell>
        <mxCell id="knY3L9KS_mWDInX-zm8A-105" value="?" style="text;html=1;strokeColor=none;fillColor=none;align=center;verticalAlign=middle;whiteSpace=wrap;rounded=0;strokeWidth=5;labelBorderColor=none;fontSize=60;" vertex="1" parent="knY3L9KS_mWDInX-zm8A-103">
          <mxGeometry x="20" y="30" width="40" height="20" as="geometry"/>
        </mxCell>
        <mxCell id="knY3L9KS_mWDInX-zm8A-106" value="" style="group" vertex="1" connectable="0" parent="1">
          <mxGeometry x="72" y="595" width="100" height="80" as="geometry"/>
        </mxCell>
        <mxCell id="knY3L9KS_mWDInX-zm8A-107" value="" style="shape=loopLimit;whiteSpace=wrap;html=1;fillColor=#ffe6cc;strokeColor=#d79b00;strokeWidth=2;" vertex="1" parent="knY3L9KS_mWDInX-zm8A-106">
          <mxGeometry width="100" height="80" as="geometry"/>
        </mxCell>
        <mxCell id="knY3L9KS_mWDInX-zm8A-108" value="&lt;div&gt;Disable Perception&lt;/div&gt;&lt;div&gt;&lt;br&gt;&lt;/div&gt;" style="text;html=1;strokeColor=none;fillColor=none;align=center;verticalAlign=middle;whiteSpace=wrap;rounded=0;fontStyle=1;fontSize=18;" vertex="1" parent="knY3L9KS_mWDInX-zm8A-106">
          <mxGeometry x="30" y="35" width="40" height="20" as="geometry"/>
        </mxCell>
        <mxCell id="knY3L9KS_mWDInX-zm8A-109" value="" style="group" vertex="1" connectable="0" parent="1">
          <mxGeometry x="186" y="695" width="100" height="80" as="geometry"/>
        </mxCell>
        <mxCell id="knY3L9KS_mWDInX-zm8A-110" value="" style="shape=loopLimit;whiteSpace=wrap;html=1;fillColor=#ffe6cc;strokeColor=#d79b00;strokeWidth=2;" vertex="1" parent="knY3L9KS_mWDInX-zm8A-109">
          <mxGeometry width="100" height="80" as="geometry"/>
        </mxCell>
        <mxCell id="knY3L9KS_mWDInX-zm8A-111" value="Free my spot" style="text;html=1;strokeColor=none;fillColor=none;align=center;verticalAlign=middle;whiteSpace=wrap;rounded=0;fontStyle=1;fontSize=18;" vertex="1" parent="knY3L9KS_mWDInX-zm8A-109">
          <mxGeometry x="30" y="35" width="40" height="20" as="geometry"/>
        </mxCell>
        <mxCell id="knY3L9KS_mWDInX-zm8A-112" value="" style="group" vertex="1" connectable="0" parent="1">
          <mxGeometry x="192.5" y="595" width="120" height="60" as="geometry"/>
        </mxCell>
        <mxCell id="knY3L9KS_mWDInX-zm8A-113" value="" style="rounded=0;whiteSpace=wrap;html=1;fontSize=18;fillColor=#ffe6cc;strokeColor=#d79b00;" vertex="1" parent="knY3L9KS_mWDInX-zm8A-112">
          <mxGeometry width="120" height="60" as="geometry"/>
        </mxCell>
        <mxCell id="knY3L9KS_mWDInX-zm8A-114" value="Spot Found?" style="text;html=1;strokeColor=none;fillColor=none;align=center;verticalAlign=middle;whiteSpace=wrap;rounded=0;fontSize=18;" vertex="1" parent="knY3L9KS_mWDInX-zm8A-112">
          <mxGeometry x="40" y="20" width="40" height="20" as="geometry"/>
        </mxCell>
        <mxCell id="knY3L9KS_mWDInX-zm8A-115" value="" style="endArrow=classic;html=1;exitX=0.5;exitY=1;exitDx=0;exitDy=0;entryX=0.5;entryY=0;entryDx=0;entryDy=0;" edge="1" parent="1" source="knY3L9KS_mWDInX-zm8A-101" target="knY3L9KS_mWDInX-zm8A-113">
          <mxGeometry width="50" height="50" relative="1" as="geometry">
            <mxPoint x="312.5" y="535" as="sourcePoint"/>
            <mxPoint x="362.5" y="485" as="targetPoint"/>
          </mxGeometry>
        </mxCell>
        <mxCell id="knY3L9KS_mWDInX-zm8A-116" value="" style="endArrow=classic;html=1;exitX=0.5;exitY=1;exitDx=0;exitDy=0;entryX=0.5;entryY=0;entryDx=0;entryDy=0;" edge="1" parent="1" source="knY3L9KS_mWDInX-zm8A-101" target="knY3L9KS_mWDInX-zm8A-107">
          <mxGeometry width="50" height="50" relative="1" as="geometry">
            <mxPoint x="72.5" y="545" as="sourcePoint"/>
            <mxPoint x="122.5" y="495" as="targetPoint"/>
          </mxGeometry>
        </mxCell>
        <mxCell id="knY3L9KS_mWDInX-zm8A-117" style="edgeStyle=orthogonalEdgeStyle;rounded=0;orthogonalLoop=1;jettySize=auto;html=1;exitX=0.5;exitY=1;exitDx=0;exitDy=0;entryX=0.5;entryY=0;entryDx=0;entryDy=0;" edge="1" parent="1" source="knY3L9KS_mWDInX-zm8A-98" target="knY3L9KS_mWDInX-zm8A-101">
          <mxGeometry relative="1" as="geometry"/>
        </mxCell>
        <mxCell id="knY3L9KS_mWDInX-zm8A-118" style="edgeStyle=orthogonalEdgeStyle;rounded=0;orthogonalLoop=1;jettySize=auto;html=1;exitX=0.5;exitY=1;exitDx=0;exitDy=0;exitPerimeter=0;entryX=0.5;entryY=0;entryDx=0;entryDy=0;" edge="1" parent="1" source="knY3L9KS_mWDInX-zm8A-88" target="knY3L9KS_mWDInX-zm8A-98">
          <mxGeometry relative="1" as="geometry"/>
        </mxCell>
        <mxCell id="knY3L9KS_mWDInX-zm8A-119" value="" style="endArrow=classic;html=1;exitX=0.5;exitY=1;exitDx=0;exitDy=0;entryX=0.5;entryY=0;entryDx=0;entryDy=0;" edge="1" parent="1" source="knY3L9KS_mWDInX-zm8A-113" target="knY3L9KS_mWDInX-zm8A-110">
          <mxGeometry width="50" height="50" relative="1" as="geometry">
            <mxPoint x="132.5" y="735" as="sourcePoint"/>
            <mxPoint x="182.5" y="685" as="targetPoint"/>
          </mxGeometry>
        </mxCell>
        <mxCell id="knY3L9KS_mWDInX-zm8A-120" value="" style="endArrow=classic;html=1;exitX=0.5;exitY=1;exitDx=0;exitDy=0;entryX=0.5;entryY=0;entryDx=0;entryDy=0;entryPerimeter=0;" edge="1" parent="1" source="NBViREjLb1xKZu8kLgCA-86" target="knY3L9KS_mWDInX-zm8A-88">
          <mxGeometry width="50" height="50" relative="1" as="geometry">
            <mxPoint x="310" y="190" as="sourcePoint"/>
            <mxPoint x="360" y="140" as="targetPoint"/>
          </mxGeometry>
        </mxCell>
        <mxCell id="knY3L9KS_mWDInX-zm8A-121" value="" style="endArrow=classic;html=1;exitX=0.5;exitY=1;exitDx=0;exitDy=0;entryX=0.5;entryY=0;entryDx=0;entryDy=0;entryPerimeter=0;" edge="1" parent="1" source="NBViREjLb1xKZu8kLgCA-86" target="knY3L9KS_mWDInX-zm8A-92">
          <mxGeometry width="50" height="50" relative="1" as="geometry">
            <mxPoint x="350" y="220" as="sourcePoint"/>
            <mxPoint x="400" y="170" as="targetPoint"/>
          </mxGeometry>
        </mxCell>
      </root>
    </mxGraphModel>
  </diagram>
</mxfile>
